{"glyphs":{"0":{"ha":1025,"x_min":111,"x_max":914,"o":"m 517 -14 q 294 47 385 -14 q 157 219 203 108 q 111 486 111 331 q 157 753 111 642 q 294 925 203 864 q 517 986 385 986 q 736 925 647 986 q 869 753 825 864 q 914 486 914 642 q 869 219 914 331 q 736 47 825 108 q 517 -14 647 -14 m 517 56 q 756 167 672 56 q 840 486 840 279 q 756 805 840 693 q 517 917 672 917 q 272 805 358 917 q 185 486 185 693 q 272 167 185 279 q 517 56 358 56 z "},"1":{"ha":708,"x_min":153,"x_max":561,"o":"m 342 28 l 342 924 l 379 907 l 179 778 l 153 843 l 383 986 l 411 986 l 411 28 l 342 28 m 185 0 l 185 69 l 561 69 l 561 0 l 185 0 z "},"2":{"ha":938,"x_min":117,"x_max":832,"o":"m 175 0 l 153 54 l 519 422 q 583 489 547 451 q 651 569 618 526 q 706 655 685 613 q 726 738 726 697 q 700 836 726 797 q 620 896 674 875 q 492 917 567 917 q 373 898 431 917 q 263 833 315 879 q 169 703 211 788 l 117 738 q 210 874 154 818 q 340 958 267 929 q 499 986 414 986 q 656 956 588 986 q 763 869 725 925 q 801 739 801 814 q 785 656 801 696 q 745 578 769 615 q 690 506 721 540 q 629 442 658 472 q 574 386 600 413 l 228 33 l 225 65 l 832 65 l 832 0 l 175 0 z "},"3":{"ha":918,"x_min":82,"x_max":817,"o":"m 456 -14 q 242 39 333 -14 q 82 192 150 92 l 142 238 q 229 140 181 181 q 335 78 278 100 q 458 56 393 56 q 605 86 540 56 q 707 170 669 117 q 744 296 744 224 q 710 421 744 367 q 617 506 676 475 q 483 536 558 536 q 426 531 451 536 q 375 510 400 525 q 318 468 350 494 l 290 522 l 707 943 l 721 906 l 164 906 l 164 972 l 747 972 l 769 906 l 400 546 l 375 574 q 426 597 400 589 q 488 606 453 606 q 622 582 561 606 q 725 517 682 558 q 792 421 768 475 q 817 303 817 367 q 770 138 817 210 q 642 26 724 65 q 456 -14 561 -14 z "},"4":{"ha":983,"x_min":94,"x_max":911,"o":"m 642 0 l 642 925 l 676 917 l 131 290 l 115 333 l 911 333 l 911 264 l 135 264 l 94 346 l 644 972 l 711 972 l 711 0 l 642 0 z "},"5":{"ha":938,"x_min":110,"x_max":824,"o":"m 443 -10 q 251 35 336 -10 q 110 150 165 79 l 154 204 q 288 95 211 131 q 444 60 364 60 q 603 97 533 60 q 712 196 672 133 q 751 339 751 258 q 715 463 751 407 q 614 552 678 519 q 467 585 550 585 q 350 571 407 585 q 253 538 293 557 q 194 506 213 518 l 150 560 l 207 972 l 763 972 l 763 907 l 228 907 l 267 929 l 211 564 l 186 569 q 262 609 215 590 q 364 639 308 628 q 474 650 419 650 q 649 610 571 650 q 776 499 728 569 q 824 332 824 428 q 774 158 824 235 q 639 35 725 81 q 443 -10 553 -10 z "},"6":{"ha":1001,"x_min":138,"x_max":860,"o":"m 503 -14 q 358 10 425 -14 q 242 81 292 33 q 165 192 193 128 q 138 333 138 256 q 151 426 139 379 q 187 523 164 474 q 241 621 210 572 q 308 718 272 669 l 494 972 l 571 972 l 576 958 l 369 689 q 310 607 340 653 q 249 503 279 561 q 189 372 219 444 l 169 424 q 224 502 190 465 q 301 569 257 539 q 400 617 346 599 q 517 635 454 635 q 690 592 613 635 q 814 476 768 549 q 860 311 860 404 q 813 149 860 222 q 683 31 765 75 q 503 -14 601 -14 m 494 54 q 640 88 574 54 q 746 178 706 121 q 786 308 786 235 q 749 438 786 379 q 647 531 713 496 q 494 565 581 565 q 348 530 413 565 q 247 436 283 494 q 210 310 210 378 q 246 183 210 242 q 347 90 282 125 q 494 54 411 54 z "},"7":{"ha":803,"x_min":51,"x_max":696,"o":"m 219 0 l 635 936 l 653 907 l 51 907 l 51 972 l 681 972 l 696 900 l 297 0 l 219 0 z "},"8":{"ha":988,"x_min":126,"x_max":861,"o":"m 494 -4 q 306 35 389 -4 q 175 139 224 74 q 126 283 126 204 q 145 370 126 331 q 198 441 164 410 q 278 497 232 472 q 376 539 324 522 l 367 506 q 290 533 326 513 q 229 583 254 554 q 190 648 204 611 q 176 726 176 685 q 217 850 176 794 q 331 939 258 906 q 494 972 404 972 q 657 939 585 972 q 770 851 729 906 q 811 725 811 796 q 797 646 811 683 q 756 580 782 608 q 695 532 729 551 q 626 506 661 513 l 619 535 q 716 495 672 521 q 792 436 760 469 q 843 364 825 403 q 861 283 861 325 q 813 138 861 204 q 682 34 764 72 q 494 -4 600 -4 m 494 65 q 644 94 578 65 q 749 172 710 122 q 788 285 788 222 q 749 388 788 343 q 643 460 710 433 q 494 486 576 486 q 345 460 413 486 q 238 388 278 433 q 199 283 199 342 q 238 173 199 222 q 344 94 276 124 q 494 65 411 65 m 494 539 q 622 563 567 539 q 707 628 676 586 q 738 724 738 671 q 706 817 738 776 q 620 880 675 857 q 494 903 565 903 q 369 880 424 903 q 281 817 314 857 q 249 724 249 776 q 283 626 249 669 q 372 561 317 583 q 494 539 428 539 z "},"9":{"ha":938,"x_min":117,"x_max":833,"o":"m 485 0 l 479 14 l 786 579 l 803 575 q 744 481 779 525 q 666 404 710 436 q 569 355 622 372 q 454 338 517 338 q 283 381 361 338 q 161 497 206 424 q 117 661 117 569 q 165 826 117 753 q 297 943 214 900 q 482 986 379 986 q 619 961 556 986 q 730 892 682 936 q 806 788 778 849 q 833 658 833 728 q 816 556 833 611 q 773 441 799 500 q 720 329 747 382 q 669 236 693 276 l 549 0 l 485 0 m 479 407 q 626 442 561 407 q 726 536 690 478 q 763 663 763 594 q 726 789 763 731 q 626 883 690 847 q 479 918 563 918 q 334 885 400 918 q 228 795 268 853 q 188 664 188 738 q 224 535 188 593 q 326 442 261 476 q 479 407 392 407 z "},"A":{"ha":1126,"x_min":90,"x_max":1038,"o":"m 90 0 l 515 972 l 614 972 l 1038 0 l 958 0 l 644 719 q 612 797 624 768 q 591 847 600 826 q 574 891 582 867 q 551 956 565 915 l 572 956 q 547 883 557 910 q 528 835 538 857 q 506 785 518 813 q 475 711 494 758 l 163 0 l 90 0 m 260 286 l 288 354 l 842 354 l 861 286 l 260 286 z "},"Á":{"ha":1126,"x_min":90,"x_max":1038,"o":"m 90 0 l 515 972 l 614 972 l 1038 0 l 958 0 l 644 719 q 612 797 624 768 q 591 847 600 826 q 574 891 582 867 q 551 956 565 915 l 572 956 q 547 883 557 910 q 528 835 538 857 q 506 785 518 813 q 475 711 494 758 l 163 0 l 90 0 m 260 286 l 288 354 l 842 354 l 861 286 l 260 286 m 474 1054 l 449 1100 l 660 1236 l 707 1164 l 474 1054 z "},"Ă":{"ha":1126,"x_min":90,"x_max":1038,"o":"m 90 0 l 515 972 l 614 972 l 1038 0 l 958 0 l 644 719 q 612 797 624 768 q 591 847 600 826 q 574 891 582 867 q 551 956 565 915 l 572 956 q 547 883 557 910 q 528 835 538 857 q 506 785 518 813 q 475 711 494 758 l 163 0 l 90 0 m 260 286 l 288 354 l 842 354 l 861 286 l 260 286 m 564 1057 q 474 1078 514 1057 q 406 1137 433 1099 q 367 1226 378 1175 l 426 1233 q 478 1140 440 1167 q 564 1114 517 1114 q 649 1140 611 1114 q 701 1233 688 1167 l 761 1226 q 722 1137 750 1175 q 654 1078 694 1099 q 564 1057 614 1057 z "},"Ắ":{"ha":1126,"x_min":90,"x_max":1038,"o":"m 90 0 l 515 972 l 614 972 l 1038 0 l 958 0 l 644 719 q 612 797 624 768 q 591 847 600 826 q 574 891 582 867 q 551 956 565 915 l 572 956 q 547 883 557 910 q 528 835 538 857 q 506 785 518 813 q 475 711 494 758 l 163 0 l 90 0 m 260 286 l 288 354 l 842 354 l 861 286 l 260 286 m 564 1057 q 436 1099 489 1057 q 367 1213 383 1140 l 426 1219 q 481 1138 444 1161 q 564 1114 517 1114 q 647 1138 611 1114 q 701 1219 683 1161 l 761 1213 q 692 1099 744 1140 q 564 1057 639 1057 m 571 1238 l 528 1265 l 635 1442 l 710 1390 l 571 1238 z "},"Ặ":{"ha":1126,"x_min":90,"x_max":1038,"o":"m 90 0 l 515 972 l 614 972 l 1038 0 l 958 0 l 644 719 q 612 797 624 768 q 591 847 600 826 q 574 891 582 867 q 551 956 565 915 l 572 956 q 547 883 557 910 q 528 835 538 857 q 506 785 518 813 q 475 711 494 758 l 163 0 l 90 0 m 260 286 l 288 354 l 842 354 l 861 286 l 260 286 m 564 -231 q 516 -213 532 -231 q 500 -168 500 -196 q 515 -124 500 -143 q 564 -106 531 -106 q 612 -123 596 -106 q 628 -168 628 -140 q 613 -212 628 -193 q 564 -231 597 -231 m 564 1057 q 474 1078 514 1057 q 406 1137 433 1099 q 367 1226 378 1175 l 426 1233 q 478 1140 440 1167 q 564 1114 517 1114 q 649 1140 611 1114 q 701 1233 688 1167 l 761 1226 q 722 1137 750 1175 q 654 1078 694 1099 q 564 1057 614 1057 z "},"Ằ":{"ha":1126,"x_min":90,"x_max":1038,"o":"m 90 0 l 515 972 l 614 972 l 1038 0 l 958 0 l 644 719 q 612 797 624 768 q 591 847 600 826 q 574 891 582 867 q 551 956 565 915 l 572 956 q 547 883 557 910 q 528 835 538 857 q 506 785 518 813 q 475 711 494 758 l 163 0 l 90 0 m 260 286 l 288 354 l 842 354 l 861 286 l 260 286 m 564 1057 q 436 1099 489 1057 q 367 1213 383 1140 l 426 1219 q 481 1138 444 1161 q 564 1114 517 1114 q 647 1138 611 1114 q 701 1219 683 1161 l 761 1213 q 692 1099 744 1140 q 564 1057 639 1057 m 561 1238 l 421 1390 l 497 1442 l 604 1265 l 561 1238 z "},"Ẳ":{"ha":1126,"x_min":90,"x_max":1038,"o":"m 90 0 l 515 972 l 614 972 l 1038 0 l 958 0 l 644 719 q 612 797 624 768 q 591 847 600 826 q 574 891 582 867 q 551 956 565 915 l 572 956 q 547 883 557 910 q 528 835 538 857 q 506 785 518 813 q 475 711 494 758 l 163 0 l 90 0 m 260 286 l 288 354 l 842 354 l 861 286 l 260 286 m 564 1057 q 436 1099 489 1057 q 367 1213 383 1140 l 426 1219 q 481 1138 444 1161 q 564 1114 517 1114 q 647 1138 611 1114 q 701 1219 683 1161 l 761 1213 q 692 1099 744 1140 q 564 1057 639 1057 m 539 1236 q 532 1251 535 1243 q 529 1265 529 1258 q 540 1287 529 1276 q 575 1314 550 1297 q 603 1337 594 1326 q 613 1357 613 1347 q 594 1379 613 1372 q 553 1386 576 1386 q 506 1381 529 1386 q 458 1364 482 1375 l 440 1415 q 499 1437 468 1429 q 560 1444 531 1444 q 650 1420 621 1444 q 679 1364 679 1396 q 665 1323 679 1340 q 628 1290 651 1306 q 601 1272 614 1281 q 589 1256 589 1263 q 589 1253 589 1254 q 590 1249 589 1251 l 539 1236 z "},"Ẵ":{"ha":1126,"x_min":90,"x_max":1038,"o":"m 90 0 l 515 972 l 614 972 l 1038 0 l 958 0 l 644 719 q 612 797 624 768 q 591 847 600 826 q 574 891 582 867 q 551 956 565 915 l 572 956 q 547 883 557 910 q 528 835 538 857 q 506 785 518 813 q 475 711 494 758 l 163 0 l 90 0 m 260 286 l 288 354 l 842 354 l 861 286 l 260 286 m 564 1057 q 436 1099 489 1057 q 367 1213 383 1140 l 426 1219 q 481 1138 444 1161 q 564 1114 517 1114 q 647 1138 611 1114 q 701 1219 683 1161 l 761 1213 q 692 1099 744 1140 q 564 1057 639 1057 m 661 1319 q 606 1331 631 1319 q 557 1351 581 1342 q 513 1372 535 1363 q 469 1381 490 1381 q 440 1369 454 1381 q 426 1328 426 1357 l 363 1328 q 394 1410 363 1378 q 468 1442 425 1442 q 519 1432 497 1442 q 565 1411 542 1422 q 611 1391 588 1401 q 656 1381 635 1381 q 689 1394 675 1381 q 703 1433 703 1407 l 767 1433 q 752 1370 767 1396 q 714 1332 738 1344 q 661 1319 690 1319 z "},"Ǎ":{"ha":1126,"x_min":90,"x_max":1038,"o":"m 90 0 l 515 972 l 614 972 l 1038 0 l 958 0 l 644 719 q 612 797 624 768 q 591 847 600 826 q 574 891 582 867 q 551 956 565 915 l 572 956 q 547 883 557 910 q 528 835 538 857 q 506 785 518 813 q 475 711 494 758 l 163 0 l 90 0 m 260 286 l 288 354 l 842 354 l 861 286 l 260 286 m 521 1064 l 369 1190 l 408 1225 l 585 1104 l 543 1104 l 719 1225 l 758 1190 l 607 1064 l 521 1064 z "},"Â":{"ha":1126,"x_min":90,"x_max":1038,"o":"m 90 0 l 515 972 l 614 972 l 1038 0 l 958 0 l 644 719 q 612 797 624 768 q 591 847 600 826 q 574 891 582 867 q 551 956 565 915 l 572 956 q 547 883 557 910 q 528 835 538 857 q 506 785 518 813 q 475 711 494 758 l 163 0 l 90 0 m 260 286 l 288 354 l 842 354 l 861 286 l 260 286 m 394 1063 l 356 1097 l 521 1224 l 607 1224 l 772 1097 l 733 1063 l 543 1181 l 585 1181 l 394 1063 z "},"Ấ":{"ha":1126,"x_min":90,"x_max":1038,"o":"m 90 0 l 515 972 l 614 972 l 1038 0 l 958 0 l 644 719 q 612 797 624 768 q 591 847 600 826 q 574 891 582 867 q 551 956 565 915 l 572 956 q 547 883 557 910 q 528 835 538 857 q 506 785 518 813 q 475 711 494 758 l 163 0 l 90 0 m 260 286 l 288 354 l 842 354 l 861 286 l 260 286 m 394 1063 l 356 1097 l 521 1224 l 607 1224 l 772 1097 l 733 1063 l 543 1181 l 585 1181 l 394 1063 m 756 1210 l 713 1238 l 819 1414 l 897 1364 l 756 1210 z "},"Ậ":{"ha":1126,"x_min":90,"x_max":1038,"o":"m 90 0 l 515 972 l 614 972 l 1038 0 l 958 0 l 644 719 q 612 797 624 768 q 591 847 600 826 q 574 891 582 867 q 551 956 565 915 l 572 956 q 547 883 557 910 q 528 835 538 857 q 506 785 518 813 q 475 711 494 758 l 163 0 l 90 0 m 260 286 l 288 354 l 842 354 l 861 286 l 260 286 m 564 -231 q 516 -213 532 -231 q 500 -168 500 -196 q 515 -124 500 -143 q 564 -106 531 -106 q 612 -123 596 -106 q 628 -168 628 -140 q 613 -212 628 -193 q 564 -231 597 -231 m 394 1063 l 356 1097 l 521 1224 l 607 1224 l 772 1097 l 733 1063 l 543 1181 l 585 1181 l 394 1063 z "},"Ầ":{"ha":1126,"x_min":90,"x_max":1038,"o":"m 90 0 l 515 972 l 614 972 l 1038 0 l 958 0 l 644 719 q 612 797 624 768 q 591 847 600 826 q 574 891 582 867 q 551 956 565 915 l 572 956 q 547 883 557 910 q 528 835 538 857 q 506 785 518 813 q 475 711 494 758 l 163 0 l 90 0 m 260 286 l 288 354 l 842 354 l 861 286 l 260 286 m 394 1063 l 356 1097 l 521 1238 l 607 1238 l 772 1097 l 733 1063 l 543 1194 l 585 1194 l 394 1063 m 785 1210 l 643 1364 l 721 1414 l 828 1238 l 785 1210 z "},"Ẩ":{"ha":1126,"x_min":90,"x_max":1038,"o":"m 90 0 l 515 972 l 614 972 l 1038 0 l 958 0 l 644 719 q 612 797 624 768 q 591 847 600 826 q 574 891 582 867 q 551 956 565 915 l 572 956 q 547 883 557 910 q 528 835 538 857 q 506 785 518 813 q 475 711 494 758 l 163 0 l 90 0 m 260 286 l 288 354 l 842 354 l 861 286 l 260 286 m 394 1063 l 356 1097 l 521 1224 l 607 1224 l 772 1097 l 733 1063 l 543 1181 l 585 1181 l 394 1063 m 757 1228 q 750 1242 753 1235 q 747 1257 747 1250 q 758 1277 747 1268 q 793 1303 768 1286 q 822 1326 813 1315 q 831 1346 831 1336 q 813 1369 831 1361 q 771 1378 794 1378 q 724 1372 747 1378 q 676 1356 700 1367 l 658 1407 q 717 1428 686 1421 q 778 1436 749 1436 q 868 1412 839 1436 q 897 1356 897 1388 q 883 1315 897 1332 q 846 1282 869 1297 q 819 1263 832 1272 q 807 1247 807 1254 q 807 1244 807 1246 q 808 1240 807 1243 l 757 1228 z "},"Ẫ":{"ha":1126,"x_min":90,"x_max":1038,"o":"m 90 0 l 515 972 l 614 972 l 1038 0 l 958 0 l 644 719 q 612 797 624 768 q 591 847 600 826 q 574 891 582 867 q 551 956 565 915 l 572 956 q 547 883 557 910 q 528 835 538 857 q 506 785 518 813 q 475 711 494 758 l 163 0 l 90 0 m 260 286 l 288 354 l 842 354 l 861 286 l 260 286 m 394 1063 l 356 1097 l 521 1224 l 607 1224 l 772 1097 l 733 1063 l 543 1181 l 585 1181 l 394 1063 m 661 1319 q 606 1331 631 1319 q 557 1351 581 1342 q 513 1372 535 1363 q 469 1381 490 1381 q 440 1369 454 1381 q 426 1328 426 1357 l 363 1328 q 394 1410 363 1378 q 468 1442 425 1442 q 519 1432 497 1442 q 565 1411 542 1422 q 611 1391 588 1401 q 656 1381 635 1381 q 689 1394 675 1381 q 703 1433 703 1407 l 767 1433 q 752 1370 767 1396 q 714 1332 738 1344 q 661 1319 690 1319 z "},"Ȁ":{"ha":1126,"x_min":90,"x_max":1038,"o":"m 90 0 l 515 972 l 614 972 l 1038 0 l 958 0 l 644 719 q 612 797 624 768 q 591 847 600 826 q 574 891 582 867 q 551 956 565 915 l 572 956 q 547 883 557 910 q 528 835 538 857 q 506 785 518 813 q 475 711 494 758 l 163 0 l 90 0 m 260 286 l 288 354 l 842 354 l 861 286 l 260 286 m 681 1040 l 467 1181 l 519 1249 l 714 1086 l 681 1040 m 467 1040 l 253 1181 l 306 1249 l 500 1086 l 467 1040 z "},"Ä":{"ha":1126,"x_min":90,"x_max":1038,"o":"m 90 0 l 515 972 l 614 972 l 1038 0 l 958 0 l 644 719 q 612 797 624 768 q 591 847 600 826 q 574 891 582 867 q 551 956 565 915 l 572 956 q 547 883 557 910 q 528 835 538 857 q 506 785 518 813 q 475 711 494 758 l 163 0 l 90 0 m 260 286 l 288 354 l 842 354 l 861 286 l 260 286 m 703 1082 q 656 1099 672 1082 q 639 1144 639 1115 q 656 1190 639 1172 q 703 1207 672 1207 q 750 1190 733 1207 q 767 1144 767 1174 q 750 1099 767 1117 q 703 1082 733 1082 m 425 1082 q 378 1099 394 1082 q 361 1144 361 1115 q 378 1190 361 1172 q 425 1207 394 1207 q 472 1190 456 1207 q 489 1144 489 1174 q 472 1099 489 1117 q 425 1082 456 1082 z "},"Ạ":{"ha":1126,"x_min":90,"x_max":1038,"o":"m 90 0 l 515 972 l 614 972 l 1038 0 l 958 0 l 644 719 q 612 797 624 768 q 591 847 600 826 q 574 891 582 867 q 551 956 565 915 l 572 956 q 547 883 557 910 q 528 835 538 857 q 506 785 518 813 q 475 711 494 758 l 163 0 l 90 0 m 260 286 l 288 354 l 842 354 l 861 286 l 260 286 m 564 -231 q 516 -213 532 -231 q 500 -168 500 -196 q 515 -124 500 -143 q 564 -106 531 -106 q 612 -123 596 -106 q 628 -168 628 -140 q 613 -212 628 -193 q 564 -231 597 -231 z "},"À":{"ha":1126,"x_min":90,"x_max":1038,"o":"m 90 0 l 515 972 l 614 972 l 1038 0 l 958 0 l 644 719 q 612 797 624 768 q 591 847 600 826 q 574 891 582 867 q 551 956 565 915 l 572 956 q 547 883 557 910 q 528 835 538 857 q 506 785 518 813 q 475 711 494 758 l 163 0 l 90 0 m 260 286 l 288 354 l 842 354 l 861 286 l 260 286 m 654 1054 l 421 1164 l 468 1236 l 679 1100 l 654 1054 z "},"Ả":{"ha":1126,"x_min":90,"x_max":1038,"o":"m 90 0 l 515 972 l 614 972 l 1038 0 l 958 0 l 644 719 q 612 797 624 768 q 591 847 600 826 q 574 891 582 867 q 551 956 565 915 l 572 956 q 547 883 557 910 q 528 835 538 857 q 506 785 518 813 q 475 711 494 758 l 163 0 l 90 0 m 260 286 l 288 354 l 842 354 l 861 286 l 260 286 m 550 1067 q 543 1084 546 1074 q 540 1103 540 1094 q 547 1126 540 1113 q 574 1153 553 1139 q 610 1179 596 1168 q 624 1203 624 1190 q 603 1229 624 1221 q 556 1238 583 1238 q 509 1232 535 1238 q 456 1215 483 1226 l 438 1267 q 503 1288 468 1281 q 567 1296 538 1296 q 659 1269 628 1296 q 690 1208 690 1242 q 673 1162 690 1178 q 636 1133 656 1146 q 611 1115 622 1124 q 600 1092 600 1107 q 600 1088 600 1090 q 601 1079 600 1085 l 550 1067 z "},"Ȃ":{"ha":1126,"x_min":90,"x_max":1038,"o":"m 90 0 l 515 972 l 614 972 l 1038 0 l 958 0 l 644 719 q 612 797 624 768 q 591 847 600 826 q 574 891 582 867 q 551 956 565 915 l 572 956 q 547 883 557 910 q 528 835 538 857 q 506 785 518 813 q 475 711 494 758 l 163 0 l 90 0 m 260 286 l 288 354 l 842 354 l 861 286 l 260 286 m 426 1057 l 367 1064 q 406 1154 378 1117 q 474 1213 433 1192 q 564 1233 514 1233 q 654 1213 614 1233 q 722 1154 694 1192 q 761 1064 750 1117 l 701 1057 q 649 1150 688 1124 q 564 1176 611 1176 q 478 1150 517 1176 q 426 1057 440 1124 z "},"Ā":{"ha":1126,"x_min":90,"x_max":1038,"o":"m 90 0 l 515 972 l 614 972 l 1038 0 l 958 0 l 644 719 q 612 797 624 768 q 591 847 600 826 q 574 891 582 867 q 551 956 565 915 l 572 956 q 547 883 557 910 q 528 835 538 857 q 506 785 518 813 q 475 711 494 758 l 163 0 l 90 0 m 260 286 l 288 354 l 842 354 l 861 286 l 260 286 m 367 1113 l 367 1176 l 761 1176 l 761 1113 l 367 1113 z "},"Ą":{"ha":1126,"x_min":90,"x_max":1100,"o":"m 90 0 l 515 972 l 614 972 l 1038 0 l 958 0 l 644 719 q 612 797 624 768 q 591 847 600 826 q 574 891 582 867 q 551 956 565 915 l 572 956 q 547 883 557 910 q 528 835 538 857 q 506 785 518 813 q 475 711 494 758 l 163 0 l 90 0 m 260 286 l 288 354 l 842 354 l 861 286 l 260 286 m 956 -307 q 875 -289 911 -307 q 817 -239 839 -271 q 796 -168 796 -207 q 815 -99 796 -129 q 866 -44 835 -68 q 933 -1 897 -21 q 1001 33 968 18 l 1038 0 q 949 -46 989 -19 q 886 -101 910 -72 q 863 -165 863 -131 q 890 -224 863 -200 q 958 -247 917 -247 q 1015 -233 990 -247 q 1054 -203 1039 -219 l 1100 -236 q 1041 -287 1075 -267 q 956 -307 1007 -307 z "},"Å":{"ha":1126,"x_min":90,"x_max":1038,"o":"m 90 0 l 515 972 l 614 972 l 1038 0 l 958 0 l 644 719 q 612 797 624 768 q 591 847 600 826 q 574 891 582 867 q 551 956 565 915 l 572 956 q 547 883 557 910 q 528 835 538 857 q 506 785 518 813 q 475 711 494 758 l 163 0 l 90 0 m 260 286 l 288 354 l 842 354 l 861 286 l 260 286 m 563 1017 q 488 1037 522 1017 q 432 1090 453 1057 q 411 1163 411 1124 q 432 1236 411 1203 q 488 1290 453 1269 q 563 1310 522 1310 q 638 1290 603 1310 q 694 1236 672 1269 q 715 1163 715 1203 q 694 1090 715 1124 q 638 1037 672 1057 q 563 1017 603 1017 m 563 1071 q 631 1098 603 1071 q 660 1163 660 1125 q 631 1230 660 1204 q 563 1256 603 1256 q 494 1229 521 1256 q 467 1163 467 1203 q 495 1098 467 1125 q 563 1071 524 1071 z "},"Ǻ":{"ha":1126,"x_min":90,"x_max":1038,"o":"m 90 0 l 515 972 l 614 972 l 1038 0 l 958 0 l 644 719 q 612 797 624 768 q 591 847 600 826 q 574 891 582 867 q 551 956 565 915 l 572 956 q 547 883 557 910 q 528 835 538 857 q 506 785 518 813 q 475 711 494 758 l 163 0 l 90 0 m 260 286 l 288 354 l 842 354 l 861 286 l 260 286 m 563 1017 q 488 1037 522 1017 q 432 1090 453 1057 q 411 1163 411 1124 q 432 1236 411 1203 q 488 1290 453 1269 q 563 1310 522 1310 q 638 1290 603 1310 q 694 1236 672 1269 q 715 1163 715 1203 q 694 1090 715 1124 q 638 1037 672 1057 q 563 1017 603 1017 m 563 1071 q 631 1098 603 1071 q 660 1163 660 1125 q 631 1230 660 1204 q 563 1256 603 1256 q 494 1229 521 1256 q 467 1163 467 1203 q 495 1098 467 1125 q 563 1071 524 1071 m 472 1356 l 447 1401 l 658 1538 l 706 1465 l 472 1356 z "},"Ã":{"ha":1126,"x_min":90,"x_max":1038,"o":"m 90 0 l 515 972 l 614 972 l 1038 0 l 958 0 l 644 719 q 612 797 624 768 q 591 847 600 826 q 574 891 582 867 q 551 956 565 915 l 572 956 q 547 883 557 910 q 528 835 538 857 q 506 785 518 813 q 475 711 494 758 l 163 0 l 90 0 m 260 286 l 288 354 l 842 354 l 861 286 l 260 286 m 661 1082 q 601 1094 631 1082 q 540 1119 572 1106 q 506 1135 524 1126 q 474 1143 489 1143 q 438 1128 453 1143 q 422 1083 422 1113 l 358 1083 q 390 1174 358 1140 q 468 1207 422 1207 q 527 1196 499 1207 q 589 1169 556 1185 q 622 1154 604 1163 q 656 1146 640 1146 q 692 1160 676 1146 q 707 1206 707 1175 l 771 1206 q 756 1140 771 1168 q 717 1097 742 1113 q 661 1082 692 1082 z "},"Æ":{"ha":1658,"x_min":69,"x_max":1496,"o":"m 69 0 l 856 972 l 1496 972 l 1496 900 l 896 900 l 896 529 l 1417 529 l 1417 458 l 896 458 l 896 72 l 1490 72 l 1490 0 l 824 0 l 824 265 l 354 265 l 413 338 l 824 338 l 824 872 l 861 858 l 160 0 l 69 0 z "},"Ǽ":{"ha":1658,"x_min":69,"x_max":1496,"o":"m 69 0 l 856 972 l 1496 972 l 1496 900 l 896 900 l 896 529 l 1417 529 l 1417 458 l 896 458 l 896 72 l 1490 72 l 1490 0 l 824 0 l 824 265 l 354 265 l 413 338 l 824 338 l 824 872 l 861 858 l 160 0 l 69 0 m 1021 1054 l 996 1100 l 1207 1236 l 1254 1164 l 1021 1054 z "},"B":{"ha":1164,"x_min":215,"x_max":1032,"o":"m 215 0 l 215 972 l 678 972 q 836 942 768 972 q 942 858 904 913 q 981 729 981 803 q 931 588 981 646 q 790 506 881 531 l 790 531 q 914 485 860 518 q 1000 402 968 453 q 1032 285 1032 351 q 1005 164 1032 217 q 933 74 978 111 q 831 19 889 38 q 707 0 772 0 l 215 0 m 286 69 l 696 69 q 826 92 767 68 q 920 164 885 117 q 956 276 956 211 q 919 383 956 339 q 822 452 883 428 q 689 476 761 476 l 286 476 l 286 69 m 286 544 l 688 544 q 803 567 754 544 q 878 628 853 589 q 904 724 904 668 q 844 855 904 807 q 679 903 783 903 l 286 903 l 286 544 z "},"C":{"ha":1171,"x_min":132,"x_max":1060,"o":"m 682 -14 q 462 23 563 -14 q 287 128 361 60 q 172 288 213 196 q 132 488 132 379 q 171 684 132 594 q 283 840 210 774 q 452 943 356 907 q 665 979 549 979 q 816 958 740 979 q 955 899 892 936 q 1060 814 1018 861 l 1017 753 q 924 834 981 799 q 801 890 868 869 q 663 910 733 910 q 481 879 564 910 q 335 792 397 849 q 240 657 274 735 q 206 488 206 579 q 241 315 206 394 q 341 177 276 235 q 491 87 406 119 q 678 54 576 54 q 815 73 750 54 q 931 124 879 92 q 1014 194 982 157 l 1050 132 q 951 60 1011 93 q 823 6 892 26 q 682 -14 754 -14 z "},"Ć":{"ha":1171,"x_min":132,"x_max":1060,"o":"m 682 -14 q 462 23 563 -14 q 287 128 361 60 q 172 288 213 196 q 132 488 132 379 q 171 684 132 594 q 283 840 210 774 q 452 943 356 907 q 665 979 549 979 q 816 958 740 979 q 955 899 892 936 q 1060 814 1018 861 l 1017 753 q 924 834 981 799 q 801 890 868 869 q 663 910 733 910 q 481 879 564 910 q 335 792 397 849 q 240 657 274 735 q 206 488 206 579 q 241 315 206 394 q 341 177 276 235 q 491 87 406 119 q 678 54 576 54 q 815 73 750 54 q 931 124 879 92 q 1014 194 982 157 l 1050 132 q 951 60 1011 93 q 823 6 892 26 q 682 -14 754 -14 m 575 1054 l 550 1100 l 761 1236 l 808 1164 l 575 1054 z "},"Č":{"ha":1171,"x_min":132,"x_max":1060,"o":"m 682 -14 q 462 23 563 -14 q 287 128 361 60 q 172 288 213 196 q 132 488 132 379 q 171 684 132 594 q 283 840 210 774 q 452 943 356 907 q 665 979 549 979 q 816 958 740 979 q 955 899 892 936 q 1060 814 1018 861 l 1017 753 q 924 834 981 799 q 801 890 868 869 q 663 910 733 910 q 481 879 564 910 q 335 792 397 849 q 240 657 274 735 q 206 488 206 579 q 241 315 206 394 q 341 177 276 235 q 491 87 406 119 q 678 54 576 54 q 815 73 750 54 q 931 124 879 92 q 1014 194 982 157 l 1050 132 q 951 60 1011 93 q 823 6 892 26 q 682 -14 754 -14 m 622 1064 l 471 1190 l 510 1225 l 686 1104 l 644 1104 l 821 1225 l 860 1190 l 708 1064 l 622 1064 z "},"Ç":{"ha":1171,"x_min":132,"x_max":1060,"o":"m 682 -14 q 462 23 563 -14 q 287 128 361 60 q 172 288 213 196 q 132 488 132 379 q 171 684 132 594 q 283 840 210 774 q 452 943 356 907 q 665 979 549 979 q 816 958 740 979 q 955 899 892 936 q 1060 814 1018 861 l 1017 753 q 924 834 981 799 q 801 890 868 869 q 663 910 733 910 q 481 879 564 910 q 335 792 397 849 q 240 657 274 735 q 206 488 206 579 q 241 315 206 394 q 341 177 276 235 q 491 87 406 119 q 678 54 576 54 q 815 73 750 54 q 931 124 879 92 q 1014 194 982 157 l 1050 132 q 951 60 1011 93 q 823 6 892 26 q 682 -14 754 -14 m 539 -319 l 528 -274 q 612 -262 574 -269 q 673 -239 650 -256 q 696 -199 696 -222 q 677 -161 696 -176 q 628 -140 658 -146 q 564 -133 597 -133 l 549 -111 l 631 8 l 692 8 l 629 -82 q 724 -117 686 -92 q 761 -187 761 -143 q 740 -252 761 -226 q 686 -293 719 -278 q 614 -315 653 -308 q 539 -319 575 -321 z "},"Ḉ":{"ha":1171,"x_min":132,"x_max":1060,"o":"m 682 -14 q 462 23 563 -14 q 287 128 361 60 q 172 288 213 196 q 132 488 132 379 q 171 684 132 594 q 283 840 210 774 q 452 943 356 907 q 665 979 549 979 q 816 958 740 979 q 955 899 892 936 q 1060 814 1018 861 l 1017 753 q 924 834 981 799 q 801 890 868 869 q 663 910 733 910 q 481 879 564 910 q 335 792 397 849 q 240 657 274 735 q 206 488 206 579 q 241 315 206 394 q 341 177 276 235 q 491 87 406 119 q 678 54 576 54 q 815 73 750 54 q 931 124 879 92 q 1014 194 982 157 l 1050 132 q 951 60 1011 93 q 823 6 892 26 q 682 -14 754 -14 m 539 -319 l 528 -274 q 612 -262 574 -269 q 673 -239 650 -256 q 696 -199 696 -222 q 677 -161 696 -176 q 628 -140 658 -146 q 564 -133 597 -133 l 549 -111 l 631 8 l 692 8 l 629 -82 q 724 -117 686 -92 q 761 -187 761 -143 q 740 -252 761 -226 q 686 -293 719 -278 q 614 -315 653 -308 q 539 -319 575 -321 m 575 1054 l 550 1100 l 761 1236 l 808 1164 l 575 1054 z "},"Ĉ":{"ha":1171,"x_min":132,"x_max":1060,"o":"m 682 -14 q 462 23 563 -14 q 287 128 361 60 q 172 288 213 196 q 132 488 132 379 q 171 684 132 594 q 283 840 210 774 q 452 943 356 907 q 665 979 549 979 q 816 958 740 979 q 955 899 892 936 q 1060 814 1018 861 l 1017 753 q 924 834 981 799 q 801 890 868 869 q 663 910 733 910 q 481 879 564 910 q 335 792 397 849 q 240 657 274 735 q 206 488 206 579 q 241 315 206 394 q 341 177 276 235 q 491 87 406 119 q 678 54 576 54 q 815 73 750 54 q 931 124 879 92 q 1014 194 982 157 l 1050 132 q 951 60 1011 93 q 823 6 892 26 q 682 -14 754 -14 m 496 1063 l 457 1097 l 622 1224 l 708 1224 l 874 1097 l 835 1063 l 644 1181 l 686 1181 l 496 1063 z "},"Ċ":{"ha":1171,"x_min":132,"x_max":1060,"o":"m 682 -14 q 462 23 563 -14 q 287 128 361 60 q 172 288 213 196 q 132 488 132 379 q 171 684 132 594 q 283 840 210 774 q 452 943 356 907 q 665 979 549 979 q 816 958 740 979 q 955 899 892 936 q 1060 814 1018 861 l 1017 753 q 924 834 981 799 q 801 890 868 869 q 663 910 733 910 q 481 879 564 910 q 335 792 397 849 q 240 657 274 735 q 206 488 206 579 q 241 315 206 394 q 341 177 276 235 q 491 87 406 119 q 678 54 576 54 q 815 73 750 54 q 931 124 879 92 q 1014 194 982 157 l 1050 132 q 951 60 1011 93 q 823 6 892 26 q 682 -14 754 -14 m 665 1082 q 618 1099 635 1082 q 601 1144 601 1115 q 618 1190 601 1172 q 665 1207 635 1207 q 713 1190 696 1207 q 729 1144 729 1174 q 713 1099 729 1117 q 665 1082 696 1082 z "},"D":{"ha":1267,"x_min":215,"x_max":1135,"o":"m 215 0 l 215 972 l 632 972 q 835 935 743 972 q 993 834 926 899 q 1097 681 1060 769 q 1135 486 1135 592 q 1097 291 1135 381 q 994 138 1060 201 q 835 37 928 74 q 632 0 743 0 l 215 0 m 285 46 l 265 69 l 625 69 q 800 100 719 69 q 938 187 881 131 q 1028 319 996 243 q 1060 486 1060 394 q 1028 652 1060 576 q 938 784 996 728 q 799 872 879 840 q 625 903 719 903 l 261 903 l 285 924 l 285 46 z "},"Ǳ":{"ha":2264,"x_min":215,"x_max":2156,"o":"m 215 0 l 215 972 l 632 972 q 835 935 743 972 q 993 834 926 899 q 1097 681 1060 769 q 1135 486 1135 592 q 1097 291 1135 381 q 994 138 1060 201 q 835 37 928 74 q 632 0 743 0 l 215 0 m 285 46 l 265 69 l 625 69 q 800 100 719 69 q 938 187 881 131 q 1028 319 996 243 q 1060 486 1060 394 q 1028 652 1060 576 q 938 784 996 728 q 799 872 879 840 q 625 903 719 903 l 261 903 l 285 924 l 285 46 m 1318 0 l 1318 58 l 2068 936 l 2088 903 l 1354 903 l 1354 972 l 2140 972 l 2140 915 l 1393 36 l 1371 69 l 2156 69 l 2156 0 l 1318 0 z "},"Ǆ":{"ha":2264,"x_min":215,"x_max":2156,"o":"m 215 0 l 215 972 l 632 972 q 835 935 743 972 q 993 834 926 899 q 1097 681 1060 769 q 1135 486 1135 592 q 1097 291 1135 381 q 994 138 1060 201 q 835 37 928 74 q 632 0 743 0 l 215 0 m 285 46 l 265 69 l 625 69 q 800 100 719 69 q 938 187 881 131 q 1028 319 996 243 q 1060 486 1060 394 q 1028 652 1060 576 q 938 784 996 728 q 799 872 879 840 q 625 903 719 903 l 261 903 l 285 924 l 285 46 m 1318 0 l 1318 58 l 2068 936 l 2088 903 l 1354 903 l 1354 972 l 2140 972 l 2140 915 l 1393 36 l 1371 69 l 2156 69 l 2156 0 l 1318 0 m 1690 1064 l 1539 1190 l 1578 1225 l 1754 1104 l 1713 1104 l 1889 1225 l 1928 1190 l 1776 1064 l 1690 1064 z "},"Ð":{"ha":1267,"x_min":108,"x_max":1135,"o":"m 108 456 l 108 515 l 589 515 l 589 456 l 108 456 m 215 0 l 215 972 l 632 972 q 835 935 743 972 q 993 834 926 899 q 1097 681 1060 769 q 1135 486 1135 592 q 1097 291 1135 381 q 994 138 1060 201 q 835 37 928 74 q 632 0 743 0 l 215 0 m 285 46 l 265 69 l 625 69 q 800 100 719 69 q 938 187 881 131 q 1028 319 996 243 q 1060 486 1060 394 q 1028 652 1060 576 q 938 784 996 728 q 799 872 879 840 q 625 903 719 903 l 261 903 l 285 924 l 285 46 z "},"Ď":{"ha":1267,"x_min":215,"x_max":1135,"o":"m 215 0 l 215 972 l 632 972 q 835 935 743 972 q 993 834 926 899 q 1097 681 1060 769 q 1135 486 1135 592 q 1097 291 1135 381 q 994 138 1060 201 q 835 37 928 74 q 632 0 743 0 l 215 0 m 285 46 l 265 69 l 625 69 q 800 100 719 69 q 938 187 881 131 q 1028 319 996 243 q 1060 486 1060 394 q 1028 652 1060 576 q 938 784 996 728 q 799 872 879 840 q 625 903 719 903 l 261 903 l 285 924 l 285 46 m 593 1064 l 442 1190 l 481 1225 l 657 1104 l 615 1104 l 792 1225 l 831 1190 l 679 1064 l 593 1064 z "},"Đ":{"ha":1267,"x_min":108,"x_max":1135,"o":"m 108 456 l 108 515 l 589 515 l 589 456 l 108 456 m 215 0 l 215 972 l 632 972 q 835 935 743 972 q 993 834 926 899 q 1097 681 1060 769 q 1135 486 1135 592 q 1097 291 1135 381 q 994 138 1060 201 q 835 37 928 74 q 632 0 743 0 l 215 0 m 285 46 l 265 69 l 625 69 q 800 100 719 69 q 938 187 881 131 q 1028 319 996 243 q 1060 486 1060 394 q 1028 652 1060 576 q 938 784 996 728 q 799 872 879 840 q 625 903 719 903 l 261 903 l 285 924 l 285 46 z "},"Ḍ":{"ha":1267,"x_min":215,"x_max":1135,"o":"m 215 0 l 215 972 l 632 972 q 835 935 743 972 q 993 834 926 899 q 1097 681 1060 769 q 1135 486 1135 592 q 1097 291 1135 381 q 994 138 1060 201 q 835 37 928 74 q 632 0 743 0 l 215 0 m 285 46 l 265 69 l 625 69 q 800 100 719 69 q 938 187 881 131 q 1028 319 996 243 q 1060 486 1060 394 q 1028 652 1060 576 q 938 784 996 728 q 799 872 879 840 q 625 903 719 903 l 261 903 l 285 924 l 285 46 m 636 -231 q 588 -213 604 -231 q 572 -168 572 -196 q 588 -124 572 -143 q 636 -106 603 -106 q 684 -123 668 -106 q 700 -168 700 -140 q 685 -212 700 -193 q 636 -231 669 -231 z "},"Ḏ":{"ha":1267,"x_min":215,"x_max":1135,"o":"m 215 0 l 215 972 l 632 972 q 835 935 743 972 q 993 834 926 899 q 1097 681 1060 769 q 1135 486 1135 592 q 1097 291 1135 381 q 994 138 1060 201 q 835 37 928 74 q 632 0 743 0 l 215 0 m 285 46 l 265 69 l 625 69 q 800 100 719 69 q 938 187 881 131 q 1028 319 996 243 q 1060 486 1060 394 q 1028 652 1060 576 q 938 784 996 728 q 799 872 879 840 q 625 903 719 903 l 261 903 l 285 924 l 285 46 m 446 -201 l 446 -135 l 826 -135 l 826 -201 l 446 -201 z "},"ǲ":{"ha":2074,"x_min":215,"x_max":1978,"o":"m 215 0 l 215 972 l 632 972 q 835 935 743 972 q 993 834 926 899 q 1097 681 1060 769 q 1135 486 1135 592 q 1097 291 1135 381 q 994 138 1060 201 q 835 37 928 74 q 632 0 743 0 l 215 0 m 285 46 l 265 69 l 625 69 q 800 100 719 69 q 938 187 881 131 q 1028 319 996 243 q 1060 486 1060 394 q 1028 652 1060 576 q 938 784 996 728 q 799 872 879 840 q 625 903 719 903 l 261 903 l 285 924 l 285 46 m 1357 0 l 1357 64 l 1885 679 l 1915 657 l 1357 657 l 1357 722 l 1956 722 l 1956 658 l 1424 35 l 1400 65 l 1978 65 l 1978 0 l 1357 0 z "},"ǅ":{"ha":2074,"x_min":215,"x_max":1978,"o":"m 215 0 l 215 972 l 632 972 q 835 935 743 972 q 993 834 926 899 q 1097 681 1060 769 q 1135 486 1135 592 q 1097 291 1135 381 q 994 138 1060 201 q 835 37 928 74 q 632 0 743 0 l 215 0 m 285 46 l 265 69 l 625 69 q 800 100 719 69 q 938 187 881 131 q 1028 319 996 243 q 1060 486 1060 394 q 1028 652 1060 576 q 938 784 996 728 q 799 872 879 840 q 625 903 719 903 l 261 903 l 285 924 l 285 46 m 1357 0 l 1357 64 l 1885 679 l 1915 657 l 1357 657 l 1357 722 l 1956 722 l 1956 658 l 1424 35 l 1400 65 l 1978 65 l 1978 0 l 1357 0 m 1625 835 l 1474 975 l 1513 1010 l 1689 875 l 1647 875 l 1824 1010 l 1863 975 l 1711 835 l 1625 835 z "},"E":{"ha":1053,"x_min":215,"x_max":889,"o":"m 215 0 l 215 972 l 889 972 l 889 903 l 285 903 l 285 69 l 883 69 l 883 0 l 215 0 m 251 467 l 251 536 l 810 536 l 810 467 l 251 467 z "},"É":{"ha":1053,"x_min":215,"x_max":889,"o":"m 215 0 l 215 972 l 889 972 l 889 903 l 285 903 l 285 69 l 883 69 l 883 0 l 215 0 m 251 467 l 251 536 l 810 536 l 810 467 l 251 467 m 479 1054 l 454 1100 l 665 1236 l 713 1164 l 479 1054 z "},"Ĕ":{"ha":1053,"x_min":215,"x_max":889,"o":"m 215 0 l 215 972 l 889 972 l 889 903 l 285 903 l 285 69 l 883 69 l 883 0 l 215 0 m 251 467 l 251 536 l 810 536 l 810 467 l 251 467 m 568 1057 q 478 1078 518 1057 q 410 1137 438 1099 q 371 1226 382 1175 l 431 1233 q 483 1140 444 1167 q 568 1114 521 1114 q 653 1140 615 1114 q 706 1233 692 1167 l 765 1226 q 726 1137 754 1175 q 658 1078 699 1099 q 568 1057 618 1057 z "},"Ě":{"ha":1053,"x_min":215,"x_max":889,"o":"m 215 0 l 215 972 l 889 972 l 889 903 l 285 903 l 285 69 l 883 69 l 883 0 l 215 0 m 251 467 l 251 536 l 810 536 l 810 467 l 251 467 m 525 1064 l 374 1190 l 413 1225 l 589 1104 l 547 1104 l 724 1225 l 763 1190 l 611 1064 l 525 1064 z "},"Ḝ":{"ha":1053,"x_min":215,"x_max":889,"o":"m 215 0 l 215 972 l 889 972 l 889 903 l 285 903 l 285 69 l 883 69 l 883 0 l 215 0 m 251 467 l 251 536 l 810 536 l 810 467 l 251 467 m 411 -319 l 400 -274 q 484 -262 446 -269 q 545 -239 522 -256 q 568 -199 568 -222 q 549 -161 568 -176 q 500 -140 531 -146 q 436 -133 469 -133 l 421 -111 l 503 8 l 564 8 l 501 -82 q 596 -117 558 -92 q 633 -187 633 -143 q 613 -252 633 -226 q 558 -293 592 -278 q 486 -315 525 -308 q 411 -319 447 -321 m 568 1057 q 478 1078 518 1057 q 410 1137 438 1099 q 371 1226 382 1175 l 431 1233 q 483 1140 444 1167 q 568 1114 521 1114 q 653 1140 615 1114 q 706 1233 692 1167 l 765 1226 q 726 1137 754 1175 q 658 1078 699 1099 q 568 1057 618 1057 z "},"Ê":{"ha":1053,"x_min":215,"x_max":889,"o":"m 215 0 l 215 972 l 889 972 l 889 903 l 285 903 l 285 69 l 883 69 l 883 0 l 215 0 m 251 467 l 251 536 l 810 536 l 810 467 l 251 467 m 399 1063 l 360 1097 l 525 1224 l 611 1224 l 776 1097 l 738 1063 l 547 1181 l 589 1181 l 399 1063 z "},"Ế":{"ha":1053,"x_min":215,"x_max":901,"o":"m 215 0 l 215 972 l 889 972 l 889 903 l 285 903 l 285 69 l 883 69 l 883 0 l 215 0 m 251 467 l 251 536 l 810 536 l 810 467 l 251 467 m 399 1063 l 360 1097 l 525 1224 l 611 1224 l 776 1097 l 738 1063 l 547 1181 l 589 1181 l 399 1063 m 760 1210 l 717 1238 l 824 1414 l 901 1364 l 760 1210 z "},"Ệ":{"ha":1053,"x_min":215,"x_max":889,"o":"m 215 0 l 215 972 l 889 972 l 889 903 l 285 903 l 285 69 l 883 69 l 883 0 l 215 0 m 251 467 l 251 536 l 810 536 l 810 467 l 251 467 m 526 -231 q 478 -213 494 -231 q 463 -168 463 -196 q 478 -124 463 -143 q 526 -106 493 -106 q 574 -123 558 -106 q 590 -168 590 -140 q 575 -212 590 -193 q 526 -231 560 -231 m 399 1063 l 360 1097 l 525 1224 l 611 1224 l 776 1097 l 738 1063 l 547 1181 l 589 1181 l 399 1063 z "},"Ề":{"ha":1053,"x_min":215,"x_max":889,"o":"m 215 0 l 215 972 l 889 972 l 889 903 l 285 903 l 285 69 l 883 69 l 883 0 l 215 0 m 251 467 l 251 536 l 810 536 l 810 467 l 251 467 m 399 1063 l 360 1097 l 525 1238 l 611 1238 l 776 1097 l 738 1063 l 547 1194 l 589 1194 l 399 1063 m 789 1210 l 647 1364 l 725 1414 l 832 1238 l 789 1210 z "},"Ể":{"ha":1053,"x_min":215,"x_max":901,"o":"m 215 0 l 215 972 l 889 972 l 889 903 l 285 903 l 285 69 l 883 69 l 883 0 l 215 0 m 251 467 l 251 536 l 810 536 l 810 467 l 251 467 m 399 1063 l 360 1097 l 525 1224 l 611 1224 l 776 1097 l 738 1063 l 547 1181 l 589 1181 l 399 1063 m 761 1228 q 754 1242 757 1235 q 751 1257 751 1250 q 762 1277 751 1268 q 797 1303 772 1286 q 826 1326 817 1315 q 835 1346 835 1336 q 817 1369 835 1361 q 775 1378 799 1378 q 728 1372 751 1378 q 681 1356 704 1367 l 663 1407 q 722 1428 690 1421 q 782 1436 753 1436 q 872 1412 843 1436 q 901 1356 901 1388 q 888 1315 901 1332 q 850 1282 874 1297 q 824 1263 836 1272 q 811 1247 811 1254 q 811 1244 811 1246 q 813 1240 811 1243 l 761 1228 z "},"Ễ":{"ha":1053,"x_min":215,"x_max":889,"o":"m 215 0 l 215 972 l 889 972 l 889 903 l 285 903 l 285 69 l 883 69 l 883 0 l 215 0 m 251 467 l 251 536 l 810 536 l 810 467 l 251 467 m 399 1063 l 360 1097 l 525 1224 l 611 1224 l 776 1097 l 738 1063 l 547 1181 l 589 1181 l 399 1063 m 665 1319 q 610 1331 635 1319 q 561 1351 585 1342 q 517 1372 539 1363 q 474 1381 494 1381 q 444 1369 458 1381 q 431 1328 431 1357 l 367 1328 q 398 1410 367 1378 q 472 1442 429 1442 q 524 1432 501 1442 q 569 1411 546 1422 q 615 1391 592 1401 q 660 1381 639 1381 q 693 1394 679 1381 q 707 1433 707 1407 l 771 1433 q 756 1370 771 1396 q 718 1332 742 1344 q 665 1319 694 1319 z "},"Ȅ":{"ha":1053,"x_min":215,"x_max":889,"o":"m 215 0 l 215 972 l 889 972 l 889 903 l 285 903 l 285 69 l 883 69 l 883 0 l 215 0 m 251 467 l 251 536 l 810 536 l 810 467 l 251 467 m 686 1040 l 472 1181 l 525 1249 l 719 1086 l 686 1040 m 472 1040 l 258 1181 l 311 1249 l 506 1086 l 472 1040 z "},"Ë":{"ha":1053,"x_min":215,"x_max":889,"o":"m 215 0 l 215 972 l 889 972 l 889 903 l 285 903 l 285 69 l 883 69 l 883 0 l 215 0 m 251 467 l 251 536 l 810 536 l 810 467 l 251 467 m 707 1082 q 660 1099 676 1082 q 643 1144 643 1115 q 660 1190 643 1172 q 707 1207 676 1207 q 754 1190 738 1207 q 771 1144 771 1174 q 754 1099 771 1117 q 707 1082 738 1082 m 429 1082 q 382 1099 399 1082 q 365 1144 365 1115 q 382 1190 365 1172 q 429 1207 399 1207 q 476 1190 460 1207 q 493 1144 493 1174 q 476 1099 493 1117 q 429 1082 460 1082 z "},"Ė":{"ha":1053,"x_min":215,"x_max":889,"o":"m 215 0 l 215 972 l 889 972 l 889 903 l 285 903 l 285 69 l 883 69 l 883 0 l 215 0 m 251 467 l 251 536 l 810 536 l 810 467 l 251 467 m 568 1082 q 521 1099 538 1082 q 504 1144 504 1115 q 521 1190 504 1172 q 568 1207 538 1207 q 615 1190 599 1207 q 632 1144 632 1174 q 615 1099 632 1117 q 568 1082 599 1082 z "},"Ẹ":{"ha":1053,"x_min":215,"x_max":889,"o":"m 215 0 l 215 972 l 889 972 l 889 903 l 285 903 l 285 69 l 883 69 l 883 0 l 215 0 m 251 467 l 251 536 l 810 536 l 810 467 l 251 467 m 526 -231 q 478 -213 494 -231 q 463 -168 463 -196 q 478 -124 463 -143 q 526 -106 493 -106 q 574 -123 558 -106 q 590 -168 590 -140 q 575 -212 590 -193 q 526 -231 560 -231 z "},"È":{"ha":1053,"x_min":215,"x_max":889,"o":"m 215 0 l 215 972 l 889 972 l 889 903 l 285 903 l 285 69 l 883 69 l 883 0 l 215 0 m 251 467 l 251 536 l 810 536 l 810 467 l 251 467 m 660 1054 l 426 1164 l 474 1236 l 685 1100 l 660 1054 z "},"Ẻ":{"ha":1053,"x_min":215,"x_max":889,"o":"m 215 0 l 215 972 l 889 972 l 889 903 l 285 903 l 285 69 l 883 69 l 883 0 l 215 0 m 251 467 l 251 536 l 810 536 l 810 467 l 251 467 m 554 1067 q 547 1084 550 1074 q 544 1103 544 1094 q 551 1126 544 1113 q 578 1153 557 1139 q 614 1179 600 1168 q 628 1203 628 1190 q 608 1229 628 1221 q 560 1238 588 1238 q 513 1232 539 1238 q 460 1215 488 1226 l 442 1267 q 507 1288 472 1281 q 571 1296 542 1296 q 663 1269 632 1296 q 694 1208 694 1242 q 677 1162 694 1178 q 640 1133 660 1146 q 615 1115 626 1124 q 604 1092 604 1107 q 604 1088 604 1090 q 606 1079 604 1085 l 554 1067 z "},"Ȇ":{"ha":1053,"x_min":215,"x_max":889,"o":"m 215 0 l 215 972 l 889 972 l 889 903 l 285 903 l 285 69 l 883 69 l 883 0 l 215 0 m 251 467 l 251 536 l 810 536 l 810 467 l 251 467 m 431 1057 l 371 1064 q 410 1154 382 1117 q 478 1213 438 1192 q 568 1233 518 1233 q 658 1213 618 1233 q 726 1154 699 1192 q 765 1064 754 1117 l 706 1057 q 653 1150 692 1124 q 568 1176 615 1176 q 483 1150 521 1176 q 431 1057 444 1124 z "},"Ē":{"ha":1053,"x_min":215,"x_max":889,"o":"m 215 0 l 215 972 l 889 972 l 889 903 l 285 903 l 285 69 l 883 69 l 883 0 l 215 0 m 251 467 l 251 536 l 810 536 l 810 467 l 251 467 m 371 1113 l 371 1176 l 765 1176 l 765 1113 l 371 1113 z "},"Ḗ":{"ha":1053,"x_min":215,"x_max":889,"o":"m 215 0 l 215 972 l 889 972 l 889 903 l 285 903 l 285 69 l 883 69 l 883 0 l 215 0 m 251 467 l 251 536 l 810 536 l 810 467 l 251 467 m 371 1113 l 371 1176 l 765 1176 l 765 1113 l 371 1113 m 479 1242 l 454 1288 l 665 1424 l 713 1351 l 479 1242 z "},"Ḕ":{"ha":1053,"x_min":215,"x_max":889,"o":"m 215 0 l 215 972 l 889 972 l 889 903 l 285 903 l 285 69 l 883 69 l 883 0 l 215 0 m 251 467 l 251 536 l 810 536 l 810 467 l 251 467 m 371 1113 l 371 1176 l 765 1176 l 765 1113 l 371 1113 m 660 1242 l 426 1351 l 474 1424 l 685 1288 l 660 1242 z "},"Ę":{"ha":1053,"x_min":215,"x_max":889,"o":"m 215 0 l 215 972 l 889 972 l 889 903 l 285 903 l 285 69 l 883 69 l 883 0 l 215 0 m 251 467 l 251 536 l 810 536 l 810 467 l 251 467 m 744 -307 q 664 -289 700 -307 q 606 -239 628 -271 q 585 -168 585 -207 q 604 -99 585 -129 q 655 -44 624 -68 q 722 -1 686 -21 q 790 33 757 18 l 826 0 q 738 -46 778 -19 q 675 -101 699 -72 q 651 -165 651 -131 q 678 -224 651 -200 q 747 -247 706 -247 q 803 -233 779 -247 q 843 -203 828 -219 l 889 -236 q 830 -287 864 -267 q 744 -307 796 -307 z "},"Ẽ":{"ha":1053,"x_min":215,"x_max":889,"o":"m 215 0 l 215 972 l 889 972 l 889 903 l 285 903 l 285 69 l 883 69 l 883 0 l 215 0 m 251 467 l 251 536 l 810 536 l 810 467 l 251 467 m 665 1082 q 606 1094 635 1082 q 544 1119 576 1106 q 510 1135 528 1126 q 478 1143 493 1143 q 442 1128 457 1143 q 426 1083 426 1113 l 363 1083 q 394 1174 363 1140 q 472 1207 426 1207 q 531 1196 503 1207 q 593 1169 560 1185 q 626 1154 608 1163 q 660 1146 644 1146 q 696 1160 681 1146 q 711 1206 711 1175 l 775 1206 q 760 1140 775 1168 q 721 1097 746 1113 q 665 1082 696 1082 z "},"F":{"ha":1042,"x_min":215,"x_max":901,"o":"m 215 0 l 215 972 l 285 972 l 285 0 l 215 0 m 254 444 l 254 514 l 833 514 l 833 444 l 254 444 m 258 903 l 258 972 l 901 972 l 901 903 l 258 903 z "},"G":{"ha":1304,"x_min":132,"x_max":1192,"o":"m 693 -14 q 471 22 574 -14 q 292 124 368 58 q 174 281 217 189 q 132 483 132 374 q 174 681 132 590 q 290 838 215 771 q 465 942 364 904 q 685 979 567 979 q 848 958 768 979 q 992 903 928 938 q 1094 824 1057 868 l 1051 771 q 951 841 1011 810 q 823 891 892 872 q 688 910 754 910 q 497 878 585 910 q 344 789 408 846 q 243 654 279 732 q 207 483 207 576 q 244 309 207 388 q 347 174 281 231 q 503 86 414 117 q 697 56 592 56 q 863 81 786 56 q 998 149 940 106 q 1089 249 1056 193 q 1122 367 1122 304 l 1121 426 l 1150 385 l 694 385 l 694 453 l 1186 453 q 1188 433 1188 447 q 1190 404 1189 419 q 1192 379 1192 389 q 1153 228 1192 300 q 1047 103 1115 157 q 888 17 978 49 q 693 -14 799 -14 z "},"Ğ":{"ha":1304,"x_min":132,"x_max":1192,"o":"m 693 -14 q 471 22 574 -14 q 292 124 368 58 q 174 281 217 189 q 132 483 132 374 q 174 681 132 590 q 290 838 215 771 q 465 942 364 904 q 685 979 567 979 q 848 958 768 979 q 992 903 928 938 q 1094 824 1057 868 l 1051 771 q 951 841 1011 810 q 823 891 892 872 q 688 910 754 910 q 497 878 585 910 q 344 789 408 846 q 243 654 279 732 q 207 483 207 576 q 244 309 207 388 q 347 174 281 231 q 503 86 414 117 q 697 56 592 56 q 863 81 786 56 q 998 149 940 106 q 1089 249 1056 193 q 1122 367 1122 304 l 1121 426 l 1150 385 l 694 385 l 694 453 l 1186 453 q 1188 433 1188 447 q 1190 404 1189 419 q 1192 379 1192 389 q 1153 228 1192 300 q 1047 103 1115 157 q 888 17 978 49 q 693 -14 799 -14 m 683 1057 q 593 1078 633 1057 q 525 1137 553 1099 q 486 1226 497 1175 l 546 1233 q 598 1140 560 1167 q 683 1114 636 1114 q 769 1140 731 1114 q 821 1233 807 1167 l 881 1226 q 842 1137 869 1175 q 774 1078 814 1099 q 683 1057 733 1057 z "},"Ǧ":{"ha":1304,"x_min":132,"x_max":1192,"o":"m 693 -14 q 471 22 574 -14 q 292 124 368 58 q 174 281 217 189 q 132 483 132 374 q 174 681 132 590 q 290 838 215 771 q 465 942 364 904 q 685 979 567 979 q 848 958 768 979 q 992 903 928 938 q 1094 824 1057 868 l 1051 771 q 951 841 1011 810 q 823 891 892 872 q 688 910 754 910 q 497 878 585 910 q 344 789 408 846 q 243 654 279 732 q 207 483 207 576 q 244 309 207 388 q 347 174 281 231 q 503 86 414 117 q 697 56 592 56 q 863 81 786 56 q 998 149 940 106 q 1089 249 1056 193 q 1122 367 1122 304 l 1121 426 l 1150 385 l 694 385 l 694 453 l 1186 453 q 1188 433 1188 447 q 1190 404 1189 419 q 1192 379 1192 389 q 1153 228 1192 300 q 1047 103 1115 157 q 888 17 978 49 q 693 -14 799 -14 m 640 1064 l 489 1190 l 528 1225 l 704 1104 l 663 1104 l 839 1225 l 878 1190 l 726 1064 l 640 1064 z "},"Ĝ":{"ha":1304,"x_min":132,"x_max":1192,"o":"m 693 -14 q 471 22 574 -14 q 292 124 368 58 q 174 281 217 189 q 132 483 132 374 q 174 681 132 590 q 290 838 215 771 q 465 942 364 904 q 685 979 567 979 q 848 958 768 979 q 992 903 928 938 q 1094 824 1057 868 l 1051 771 q 951 841 1011 810 q 823 891 892 872 q 688 910 754 910 q 497 878 585 910 q 344 789 408 846 q 243 654 279 732 q 207 483 207 576 q 244 309 207 388 q 347 174 281 231 q 503 86 414 117 q 697 56 592 56 q 863 81 786 56 q 998 149 940 106 q 1089 249 1056 193 q 1122 367 1122 304 l 1121 426 l 1150 385 l 694 385 l 694 453 l 1186 453 q 1188 433 1188 447 q 1190 404 1189 419 q 1192 379 1192 389 q 1153 228 1192 300 q 1047 103 1115 157 q 888 17 978 49 q 693 -14 799 -14 m 515 1063 l 476 1097 l 642 1224 l 728 1224 l 893 1097 l 854 1063 l 664 1181 l 706 1181 l 515 1063 z "},"Ģ":{"ha":1304,"x_min":132,"x_max":1192,"o":"m 693 -14 q 471 22 574 -14 q 292 124 368 58 q 174 281 217 189 q 132 483 132 374 q 174 681 132 590 q 290 838 215 771 q 465 942 364 904 q 685 979 567 979 q 848 958 768 979 q 992 903 928 938 q 1094 824 1057 868 l 1051 771 q 951 841 1011 810 q 823 891 892 872 q 688 910 754 910 q 497 878 585 910 q 344 789 408 846 q 243 654 279 732 q 207 483 207 576 q 244 309 207 388 q 347 174 281 231 q 503 86 414 117 q 697 56 592 56 q 863 81 786 56 q 998 149 940 106 q 1089 249 1056 193 q 1122 367 1122 304 l 1121 426 l 1150 385 l 694 385 l 694 453 l 1186 453 q 1188 433 1188 447 q 1190 404 1189 419 q 1192 379 1192 389 q 1153 228 1192 300 q 1047 103 1115 157 q 888 17 978 49 q 693 -14 799 -14 m 615 -318 l 586 -285 q 623 -260 608 -271 q 644 -238 638 -249 q 651 -217 651 -228 q 642 -196 651 -201 q 621 -185 632 -190 q 599 -167 608 -179 q 590 -139 590 -156 q 605 -106 590 -119 q 640 -93 619 -93 q 700 -115 678 -93 q 722 -178 722 -137 q 715 -222 722 -201 q 692 -258 707 -242 q 658 -288 678 -274 q 615 -318 639 -303 z "},"Ġ":{"ha":1304,"x_min":132,"x_max":1192,"o":"m 693 -14 q 471 22 574 -14 q 292 124 368 58 q 174 281 217 189 q 132 483 132 374 q 174 681 132 590 q 290 838 215 771 q 465 942 364 904 q 685 979 567 979 q 848 958 768 979 q 992 903 928 938 q 1094 824 1057 868 l 1051 771 q 951 841 1011 810 q 823 891 892 872 q 688 910 754 910 q 497 878 585 910 q 344 789 408 846 q 243 654 279 732 q 207 483 207 576 q 244 309 207 388 q 347 174 281 231 q 503 86 414 117 q 697 56 592 56 q 863 81 786 56 q 998 149 940 106 q 1089 249 1056 193 q 1122 367 1122 304 l 1121 426 l 1150 385 l 694 385 l 694 453 l 1186 453 q 1188 433 1188 447 q 1190 404 1189 419 q 1192 379 1192 389 q 1153 228 1192 300 q 1047 103 1115 157 q 888 17 978 49 q 693 -14 799 -14 m 683 1082 q 636 1099 653 1082 q 619 1144 619 1115 q 636 1190 619 1172 q 683 1207 653 1207 q 731 1190 714 1207 q 747 1144 747 1174 q 731 1099 747 1117 q 683 1082 714 1082 z "},"Ḡ":{"ha":1304,"x_min":132,"x_max":1192,"o":"m 693 -14 q 471 22 574 -14 q 292 124 368 58 q 174 281 217 189 q 132 483 132 374 q 174 681 132 590 q 290 838 215 771 q 465 942 364 904 q 685 979 567 979 q 848 958 768 979 q 992 903 928 938 q 1094 824 1057 868 l 1051 771 q 951 841 1011 810 q 823 891 892 872 q 688 910 754 910 q 497 878 585 910 q 344 789 408 846 q 243 654 279 732 q 207 483 207 576 q 244 309 207 388 q 347 174 281 231 q 503 86 414 117 q 697 56 592 56 q 863 81 786 56 q 998 149 940 106 q 1089 249 1056 193 q 1122 367 1122 304 l 1121 426 l 1150 385 l 694 385 l 694 453 l 1186 453 q 1188 433 1188 447 q 1190 404 1189 419 q 1192 379 1192 389 q 1153 228 1192 300 q 1047 103 1115 157 q 888 17 978 49 q 693 -14 799 -14 m 488 1113 l 488 1176 l 882 1176 l 882 1113 l 488 1113 z "},"H":{"ha":1272,"x_min":215,"x_max":1057,"o":"m 988 0 l 988 972 l 1057 972 l 1057 0 l 988 0 m 215 0 l 215 972 l 285 972 l 285 0 l 215 0 m 256 447 l 257 517 l 1013 517 l 1013 447 l 256 447 z "},"Ħ":{"ha":1289,"x_min":61,"x_max":1229,"o":"m 61 744 l 61 808 l 231 808 l 268 808 l 1029 808 l 1054 808 l 1229 808 l 1229 744 l 1058 744 l 1028 744 l 275 744 l 233 744 l 61 744 m 996 0 l 996 972 l 1065 972 l 1065 0 l 996 0 m 224 0 l 224 972 l 293 972 l 293 0 l 224 0 m 264 447 l 264 517 l 1021 517 l 1021 447 l 264 447 z "},"Ḫ":{"ha":1272,"x_min":215,"x_max":1057,"o":"m 988 0 l 988 972 l 1057 972 l 1057 0 l 988 0 m 215 0 l 215 972 l 285 972 l 285 0 l 215 0 m 256 447 l 257 517 l 1013 517 l 1013 447 l 256 447 m 636 -278 q 507 -228 560 -278 q 439 -94 454 -178 l 499 -87 q 549 -183 511 -144 q 636 -221 586 -221 q 724 -183 686 -221 q 774 -87 761 -144 l 833 -94 q 765 -228 818 -178 q 636 -278 713 -278 z "},"Ĥ":{"ha":1272,"x_min":215,"x_max":1057,"o":"m 988 0 l 988 972 l 1057 972 l 1057 0 l 988 0 m 215 0 l 215 972 l 285 972 l 285 0 l 215 0 m 256 447 l 257 517 l 1013 517 l 1013 447 l 256 447 m 467 1063 l 428 1097 l 593 1224 l 679 1224 l 844 1097 l 806 1063 l 615 1181 l 657 1181 l 467 1063 z "},"Ḥ":{"ha":1272,"x_min":215,"x_max":1057,"o":"m 988 0 l 988 972 l 1057 972 l 1057 0 l 988 0 m 215 0 l 215 972 l 285 972 l 285 0 l 215 0 m 256 447 l 257 517 l 1013 517 l 1013 447 l 256 447 m 636 -231 q 588 -213 604 -231 q 572 -168 572 -196 q 588 -124 572 -143 q 636 -106 603 -106 q 684 -123 668 -106 q 700 -168 700 -140 q 685 -212 700 -193 q 636 -231 669 -231 z "},"I":{"ha":865,"x_min":186,"x_max":678,"o":"m 186 0 l 186 71 l 397 71 l 397 901 l 186 901 l 186 972 l 678 972 l 678 901 l 467 901 l 467 71 l 678 71 l 678 0 l 186 0 z "},"Ĳ":{"ha":1915,"x_min":186,"x_max":1856,"o":"m 186 0 l 186 71 l 397 71 l 397 901 l 186 901 l 186 972 l 678 972 l 678 901 l 467 901 l 467 71 l 678 71 l 678 0 l 186 0 m 1351 -14 q 1242 2 1292 -14 q 1151 46 1193 18 q 1076 111 1108 74 q 1024 186 1044 149 l 1075 242 q 1128 165 1099 199 q 1193 106 1157 131 q 1269 67 1229 81 q 1353 54 1310 54 q 1494 93 1433 54 q 1590 199 1556 132 q 1625 347 1625 265 l 1625 901 l 1414 901 l 1414 972 l 1856 972 l 1856 901 l 1700 901 l 1700 343 q 1676 205 1700 269 q 1607 90 1653 140 q 1497 13 1561 40 q 1351 -14 1433 -14 z "},"Í":{"ha":865,"x_min":186,"x_max":678,"o":"m 186 0 l 186 71 l 397 71 l 397 901 l 186 901 l 186 972 l 678 972 l 678 901 l 467 901 l 467 71 l 678 71 l 678 0 l 186 0 m 343 1054 l 318 1100 l 529 1236 l 576 1164 l 343 1054 z "},"Ĭ":{"ha":865,"x_min":186,"x_max":678,"o":"m 186 0 l 186 71 l 397 71 l 397 901 l 186 901 l 186 972 l 678 972 l 678 901 l 467 901 l 467 71 l 678 71 l 678 0 l 186 0 m 432 1057 q 342 1078 382 1057 q 274 1137 301 1099 q 235 1226 246 1175 l 294 1233 q 347 1140 308 1167 q 432 1114 385 1114 q 517 1140 479 1114 q 569 1233 556 1167 l 629 1226 q 590 1137 618 1175 q 522 1078 563 1099 q 432 1057 482 1057 z "},"Ǐ":{"ha":865,"x_min":186,"x_max":678,"o":"m 186 0 l 186 71 l 397 71 l 397 901 l 186 901 l 186 972 l 678 972 l 678 901 l 467 901 l 467 71 l 678 71 l 678 0 l 186 0 m 389 1064 l 238 1190 l 276 1225 l 453 1104 l 411 1104 l 588 1225 l 626 1190 l 475 1064 l 389 1064 z "},"Î":{"ha":865,"x_min":186,"x_max":678,"o":"m 186 0 l 186 71 l 397 71 l 397 901 l 186 901 l 186 972 l 678 972 l 678 901 l 467 901 l 467 71 l 678 71 l 678 0 l 186 0 m 263 1063 l 224 1097 l 389 1224 l 475 1224 l 640 1097 l 601 1063 l 411 1181 l 453 1181 l 263 1063 z "},"Ȉ":{"ha":865,"x_min":122,"x_max":678,"o":"m 186 0 l 186 71 l 397 71 l 397 901 l 186 901 l 186 972 l 678 972 l 678 901 l 467 901 l 467 71 l 678 71 l 678 0 l 186 0 m 550 1040 l 336 1181 l 389 1249 l 583 1086 l 550 1040 m 336 1040 l 122 1181 l 175 1249 l 369 1086 l 336 1040 z "},"Ï":{"ha":865,"x_min":186,"x_max":678,"o":"m 186 0 l 186 71 l 397 71 l 397 901 l 186 901 l 186 972 l 678 972 l 678 901 l 467 901 l 467 71 l 678 71 l 678 0 l 186 0 m 571 1082 q 524 1099 540 1082 q 507 1144 507 1115 q 524 1190 507 1172 q 571 1207 540 1207 q 618 1190 601 1207 q 635 1144 635 1174 q 618 1099 635 1117 q 571 1082 601 1082 m 293 1082 q 246 1099 263 1082 q 229 1144 229 1115 q 246 1190 229 1172 q 293 1207 263 1207 q 340 1190 324 1207 q 357 1144 357 1174 q 340 1099 357 1117 q 293 1082 324 1082 z "},"Ḯ":{"ha":865,"x_min":186,"x_max":678,"o":"m 186 0 l 186 71 l 397 71 l 397 901 l 186 901 l 186 972 l 678 972 l 678 901 l 467 901 l 467 71 l 678 71 l 678 0 l 186 0 m 356 1242 l 331 1288 l 542 1424 l 589 1351 l 356 1242 m 293 1082 q 246 1099 263 1082 q 229 1144 229 1115 q 246 1190 229 1172 q 293 1207 263 1207 q 340 1190 324 1207 q 357 1144 357 1174 q 340 1099 357 1117 q 293 1082 324 1082 m 571 1082 q 524 1099 540 1082 q 507 1144 507 1115 q 524 1190 507 1172 q 571 1207 540 1207 q 618 1190 601 1207 q 635 1144 635 1174 q 618 1099 635 1117 q 571 1082 601 1082 z "},"İ":{"ha":865,"x_min":186,"x_max":678,"o":"m 186 0 l 186 71 l 397 71 l 397 901 l 186 901 l 186 972 l 678 972 l 678 901 l 467 901 l 467 71 l 678 71 l 678 0 l 186 0 m 432 1082 q 385 1099 401 1082 q 368 1144 368 1115 q 385 1190 368 1172 q 432 1207 401 1207 q 479 1190 463 1207 q 496 1144 496 1174 q 479 1099 496 1117 q 432 1082 463 1082 z "},"Ị":{"ha":865,"x_min":186,"x_max":678,"o":"m 186 0 l 186 71 l 397 71 l 397 901 l 186 901 l 186 972 l 678 972 l 678 901 l 467 901 l 467 71 l 678 71 l 678 0 l 186 0 m 432 -231 q 384 -213 400 -231 q 368 -168 368 -196 q 383 -124 368 -143 q 432 -106 399 -106 q 480 -123 464 -106 q 496 -168 496 -140 q 481 -212 496 -193 q 432 -231 465 -231 z "},"Ì":{"ha":865,"x_min":186,"x_max":678,"o":"m 186 0 l 186 71 l 397 71 l 397 901 l 186 901 l 186 972 l 678 972 l 678 901 l 467 901 l 467 71 l 678 71 l 678 0 l 186 0 m 524 1054 l 290 1164 l 338 1236 l 549 1100 l 524 1054 z "},"Ỉ":{"ha":865,"x_min":186,"x_max":678,"o":"m 186 0 l 186 71 l 397 71 l 397 901 l 186 901 l 186 972 l 678 972 l 678 901 l 467 901 l 467 71 l 678 71 l 678 0 l 186 0 m 418 1067 q 411 1084 414 1074 q 408 1103 408 1094 q 415 1126 408 1113 q 442 1153 421 1139 q 478 1179 464 1168 q 492 1203 492 1190 q 472 1229 492 1221 q 424 1238 451 1238 q 377 1232 403 1238 q 324 1215 351 1226 l 306 1267 q 371 1288 336 1281 q 435 1296 406 1296 q 527 1269 496 1296 q 558 1208 558 1242 q 541 1162 558 1178 q 504 1133 524 1146 q 479 1115 490 1124 q 468 1092 468 1107 q 468 1088 468 1090 q 469 1079 468 1085 l 418 1067 z "},"Ȋ":{"ha":865,"x_min":186,"x_max":678,"o":"m 186 0 l 186 71 l 397 71 l 397 901 l 186 901 l 186 972 l 678 972 l 678 901 l 467 901 l 467 71 l 678 71 l 678 0 l 186 0 m 294 1057 l 235 1064 q 274 1154 246 1117 q 342 1213 301 1192 q 432 1233 382 1233 q 522 1213 482 1233 q 590 1154 563 1192 q 629 1064 618 1117 l 569 1057 q 517 1150 556 1124 q 432 1176 479 1176 q 347 1150 385 1176 q 294 1057 308 1124 z "},"Ī":{"ha":865,"x_min":186,"x_max":678,"o":"m 186 0 l 186 71 l 397 71 l 397 901 l 186 901 l 186 972 l 678 972 l 678 901 l 467 901 l 467 71 l 678 71 l 678 0 l 186 0 m 235 1113 l 235 1176 l 629 1176 l 629 1113 l 235 1113 z "},"Į":{"ha":865,"x_min":186,"x_max":678,"o":"m 186 0 l 186 71 l 397 71 l 397 901 l 186 901 l 186 972 l 678 972 l 678 901 l 467 901 l 467 71 l 678 71 l 678 0 l 186 0 m 443 -307 q 363 -289 399 -307 q 305 -239 326 -271 q 283 -168 283 -207 q 303 -99 283 -129 q 353 -44 322 -68 q 420 -1 385 -21 q 489 33 456 18 l 525 0 q 437 -46 476 -19 q 374 -101 397 -72 q 350 -165 350 -131 q 377 -224 350 -200 q 446 -247 404 -247 q 502 -233 478 -247 q 542 -203 526 -219 l 588 -236 q 528 -287 563 -267 q 443 -307 494 -307 z "},"Ĩ":{"ha":865,"x_min":186,"x_max":678,"o":"m 186 0 l 186 71 l 397 71 l 397 901 l 186 901 l 186 972 l 678 972 l 678 901 l 467 901 l 467 71 l 678 71 l 678 0 l 186 0 m 529 1082 q 469 1094 499 1082 q 408 1119 440 1106 q 374 1135 392 1126 q 342 1143 357 1143 q 306 1128 321 1143 q 290 1083 290 1113 l 226 1083 q 258 1174 226 1140 q 336 1207 290 1207 q 395 1196 367 1207 q 457 1169 424 1185 q 490 1154 472 1163 q 524 1146 508 1146 q 560 1160 544 1146 q 575 1206 575 1175 l 639 1206 q 624 1140 639 1168 q 585 1097 610 1113 q 529 1082 560 1082 z "},"J":{"ha":1051,"x_min":158,"x_max":990,"o":"m 486 -14 q 377 2 426 -14 q 285 46 328 18 q 211 111 243 74 q 158 186 179 149 l 210 242 q 263 165 233 199 q 328 106 292 131 q 404 67 364 81 q 488 54 444 54 q 629 93 568 54 q 725 199 690 132 q 760 347 760 265 l 760 901 l 549 901 l 549 972 l 990 972 l 990 901 l 835 901 l 835 343 q 811 205 835 269 q 742 90 788 140 q 632 13 696 40 q 486 -14 568 -14 z "},"Ĵ":{"ha":1051,"x_min":158,"x_max":990,"o":"m 486 -14 q 377 2 426 -14 q 285 46 328 18 q 211 111 243 74 q 158 186 179 149 l 210 242 q 263 165 233 199 q 328 106 292 131 q 404 67 364 81 q 488 54 444 54 q 629 93 568 54 q 725 199 690 132 q 760 347 760 265 l 760 901 l 549 901 l 549 972 l 990 972 l 990 901 l 835 901 l 835 343 q 811 205 835 269 q 742 90 788 140 q 632 13 696 40 q 486 -14 568 -14 m 606 1063 l 567 1097 l 732 1224 l 818 1224 l 983 1097 l 944 1063 l 754 1181 l 796 1181 l 606 1063 z "},"K":{"ha":1193,"x_min":215,"x_max":1068,"o":"m 253 279 l 254 371 l 956 972 l 1060 972 l 253 279 m 215 0 l 215 972 l 285 972 l 285 0 l 215 0 m 978 0 l 539 554 l 586 603 l 1068 0 l 978 0 z "},"Ķ":{"ha":1193,"x_min":215,"x_max":1068,"o":"m 253 279 l 254 371 l 956 972 l 1060 972 l 253 279 m 215 0 l 215 972 l 285 972 l 285 0 l 215 0 m 978 0 l 539 554 l 586 603 l 1068 0 l 978 0 m 547 -318 l 518 -285 q 555 -260 540 -271 q 576 -238 569 -249 q 583 -217 583 -228 q 574 -196 583 -201 q 553 -185 564 -190 q 531 -167 540 -179 q 522 -139 522 -156 q 537 -106 522 -119 q 572 -93 551 -93 q 632 -115 610 -93 q 654 -178 654 -137 q 647 -222 654 -201 q 624 -258 639 -242 q 590 -288 610 -274 q 547 -318 571 -303 z "},"L":{"ha":956,"x_min":215,"x_max":869,"o":"m 215 0 l 215 972 l 285 972 l 285 69 l 869 69 l 869 0 l 215 0 z "},"Ǉ":{"ha":2007,"x_min":215,"x_max":1946,"o":"m 215 0 l 215 972 l 285 972 l 285 69 l 869 69 l 869 0 l 215 0 m 1442 -14 q 1333 2 1382 -14 q 1241 46 1283 18 q 1167 111 1199 74 q 1114 186 1135 149 l 1165 242 q 1218 165 1189 199 q 1283 106 1247 131 q 1360 67 1319 81 q 1443 54 1400 54 q 1585 93 1524 54 q 1681 199 1646 132 q 1715 347 1715 265 l 1715 901 l 1504 901 l 1504 972 l 1946 972 l 1946 901 l 1790 901 l 1790 343 q 1767 205 1790 269 q 1697 90 1743 140 q 1588 13 1651 40 q 1442 -14 1524 -14 z "},"Ĺ":{"ha":956,"x_min":136,"x_max":869,"o":"m 215 0 l 215 972 l 285 972 l 285 69 l 869 69 l 869 0 l 215 0 m 161 1054 l 136 1100 l 347 1236 l 394 1164 l 161 1054 z "},"Ľ":{"ha":956,"x_min":215,"x_max":869,"o":"m 215 0 l 215 972 l 285 972 l 285 69 l 869 69 l 869 0 l 215 0 m 558 747 l 531 781 q 566 806 551 794 q 588 828 581 817 q 596 849 596 839 q 586 872 596 867 q 564 882 576 876 q 544 897 553 886 q 535 925 535 908 q 551 960 535 947 q 590 972 567 972 q 645 950 624 972 q 667 888 667 928 q 658 844 667 865 q 636 808 650 824 q 603 777 622 792 q 558 747 583 763 z "},"Ļ":{"ha":956,"x_min":215,"x_max":869,"o":"m 215 0 l 215 972 l 285 972 l 285 69 l 869 69 l 869 0 l 215 0 m 442 -318 l 413 -285 q 449 -260 435 -271 q 471 -238 464 -249 q 478 -217 478 -228 q 468 -196 478 -201 q 447 -185 458 -190 q 426 -167 435 -179 q 417 -139 417 -156 q 431 -106 417 -119 q 467 -93 446 -93 q 526 -115 504 -93 q 549 -178 549 -137 q 541 -222 549 -201 q 519 -258 533 -242 q 485 -288 504 -274 q 442 -318 465 -303 z "},"Ŀ":{"ha":956,"x_min":215,"x_max":869,"o":"m 215 0 l 215 972 l 285 972 l 285 69 l 869 69 l 869 0 l 215 0 m 738 431 q 684 449 701 431 q 667 500 667 467 q 685 549 667 529 q 738 569 703 569 q 790 551 772 569 q 807 500 807 533 q 789 451 807 471 q 738 431 771 431 z "},"Ḷ":{"ha":956,"x_min":215,"x_max":869,"o":"m 215 0 l 215 972 l 285 972 l 285 69 l 869 69 l 869 0 l 215 0 m 482 -231 q 434 -213 450 -231 q 418 -168 418 -196 q 433 -124 418 -143 q 482 -106 449 -106 q 530 -123 514 -106 q 546 -168 546 -140 q 531 -212 546 -193 q 482 -231 515 -231 z "},"ǈ":{"ha":1544,"x_min":215,"x_max":1357,"o":"m 215 0 l 215 972 l 285 972 l 285 69 l 869 69 l 869 0 l 215 0 m 1067 -271 l 1040 -208 q 1166 -172 1117 -203 q 1238 -82 1215 -142 q 1260 63 1260 -22 l 1260 722 l 1329 722 l 1329 35 q 1295 -127 1329 -60 q 1202 -232 1261 -194 q 1067 -271 1143 -269 m 1293 876 q 1246 893 1263 876 q 1229 939 1229 910 q 1246 984 1229 967 q 1293 1001 1263 1001 q 1340 985 1324 1001 q 1357 939 1357 968 q 1340 894 1357 911 q 1293 876 1324 876 z "},"Ḻ":{"ha":956,"x_min":215,"x_max":869,"o":"m 215 0 l 215 972 l 285 972 l 285 69 l 869 69 l 869 0 l 215 0 m 292 -201 l 292 -135 l 672 -135 l 672 -201 l 292 -201 z "},"Ł":{"ha":963,"x_min":15,"x_max":875,"o":"m 38 374 l 15 435 l 606 675 l 628 613 l 38 374 m 221 0 l 221 972 l 290 972 l 290 69 l 875 69 l 875 0 l 221 0 z "},"M":{"ha":1426,"x_min":215,"x_max":1211,"o":"m 215 0 l 215 972 l 283 972 l 729 343 l 697 344 l 1147 972 l 1211 972 l 1211 0 l 1142 0 l 1142 490 q 1142 713 1140 614 q 1154 914 1144 813 l 1172 888 l 739 292 l 681 292 l 256 886 l 272 913 q 283 719 281 818 q 286 490 286 621 l 285 0 l 215 0 z "},"Ṃ":{"ha":1426,"x_min":215,"x_max":1211,"o":"m 215 0 l 215 972 l 283 972 l 729 343 l 697 344 l 1147 972 l 1211 972 l 1211 0 l 1142 0 l 1142 490 q 1142 713 1140 614 q 1154 914 1144 813 l 1172 888 l 739 292 l 681 292 l 256 886 l 272 913 q 283 719 281 818 q 286 490 286 621 l 285 0 l 215 0 m 713 -231 q 665 -213 681 -231 q 649 -168 649 -196 q 664 -124 649 -143 q 713 -106 679 -106 q 760 -123 744 -106 q 776 -168 776 -140 q 761 -212 776 -193 q 713 -231 746 -231 z "},"N":{"ha":1340,"x_min":215,"x_max":1125,"o":"m 215 0 l 215 972 l 286 972 l 1076 81 l 1061 44 q 1060 116 1060 61 q 1059 243 1060 171 q 1058 386 1058 315 q 1057 510 1057 457 q 1056 579 1057 564 l 1056 972 l 1125 972 l 1125 0 l 1050 0 l 263 889 l 274 928 q 275 866 274 910 q 278 765 276 822 q 281 650 279 708 q 284 545 283 592 q 285 478 285 499 l 285 0 l 215 0 z "},"Ǌ":{"ha":2392,"x_min":215,"x_max":2331,"o":"m 215 0 l 215 972 l 286 972 l 1076 81 l 1061 44 q 1060 116 1060 61 q 1059 243 1060 171 q 1058 386 1058 315 q 1057 510 1057 457 q 1056 579 1057 564 l 1056 972 l 1125 972 l 1125 0 l 1050 0 l 263 889 l 274 928 q 275 866 274 910 q 278 765 276 822 q 281 650 279 708 q 284 545 283 592 q 285 478 285 499 l 285 0 l 215 0 m 1826 -14 q 1717 2 1767 -14 q 1626 46 1668 18 q 1551 111 1583 74 q 1499 186 1519 149 l 1550 242 q 1603 165 1574 199 q 1668 106 1632 131 q 1744 67 1704 81 q 1828 54 1785 54 q 1969 93 1908 54 q 2065 199 2031 132 q 2100 347 2100 265 l 2100 901 l 1889 901 l 1889 972 l 2331 972 l 2331 901 l 2175 901 l 2175 343 q 2151 205 2175 269 q 2082 90 2128 140 q 1972 13 2036 40 q 1826 -14 1908 -14 z "},"Ń":{"ha":1340,"x_min":215,"x_max":1125,"o":"m 215 0 l 215 972 l 286 972 l 1076 81 l 1061 44 q 1060 116 1060 61 q 1059 243 1060 171 q 1058 386 1058 315 q 1057 510 1057 457 q 1056 579 1057 564 l 1056 972 l 1125 972 l 1125 0 l 1050 0 l 263 889 l 274 928 q 275 866 274 910 q 278 765 276 822 q 281 650 279 708 q 284 545 283 592 q 285 478 285 499 l 285 0 l 215 0 m 581 1054 l 556 1100 l 767 1236 l 814 1164 l 581 1054 z "},"Ň":{"ha":1340,"x_min":215,"x_max":1125,"o":"m 215 0 l 215 972 l 286 972 l 1076 81 l 1061 44 q 1060 116 1060 61 q 1059 243 1060 171 q 1058 386 1058 315 q 1057 510 1057 457 q 1056 579 1057 564 l 1056 972 l 1125 972 l 1125 0 l 1050 0 l 263 889 l 274 928 q 275 866 274 910 q 278 765 276 822 q 281 650 279 708 q 284 545 283 592 q 285 478 285 499 l 285 0 l 215 0 m 628 1064 l 476 1190 l 515 1225 l 692 1104 l 650 1104 l 826 1225 l 865 1190 l 714 1064 l 628 1064 z "},"Ņ":{"ha":1340,"x_min":215,"x_max":1125,"o":"m 215 0 l 215 972 l 286 972 l 1076 81 l 1061 44 q 1060 116 1060 61 q 1059 243 1060 171 q 1058 386 1058 315 q 1057 510 1057 457 q 1056 579 1057 564 l 1056 972 l 1125 972 l 1125 0 l 1050 0 l 263 889 l 274 928 q 275 866 274 910 q 278 765 276 822 q 281 650 279 708 q 284 545 283 592 q 285 478 285 499 l 285 0 l 215 0 m 632 -318 l 603 -285 q 640 -260 625 -271 q 661 -238 654 -249 q 668 -217 668 -228 q 658 -196 668 -201 q 638 -185 649 -190 q 616 -167 625 -179 q 607 -139 607 -156 q 622 -106 607 -119 q 657 -93 636 -93 q 717 -115 694 -93 q 739 -178 739 -137 q 731 -222 739 -201 q 709 -258 724 -242 q 675 -288 694 -274 q 632 -318 656 -303 z "},"Ṅ":{"ha":1340,"x_min":215,"x_max":1125,"o":"m 215 0 l 215 972 l 286 972 l 1076 81 l 1061 44 q 1060 116 1060 61 q 1059 243 1060 171 q 1058 386 1058 315 q 1057 510 1057 457 q 1056 579 1057 564 l 1056 972 l 1125 972 l 1125 0 l 1050 0 l 263 889 l 274 928 q 275 866 274 910 q 278 765 276 822 q 281 650 279 708 q 284 545 283 592 q 285 478 285 499 l 285 0 l 215 0 m 671 1082 q 624 1099 640 1082 q 607 1144 607 1115 q 624 1190 607 1172 q 671 1207 640 1207 q 718 1190 701 1207 q 735 1144 735 1174 q 718 1099 735 1117 q 671 1082 701 1082 z "},"Ṇ":{"ha":1340,"x_min":215,"x_max":1125,"o":"m 215 0 l 215 972 l 286 972 l 1076 81 l 1061 44 q 1060 116 1060 61 q 1059 243 1060 171 q 1058 386 1058 315 q 1057 510 1057 457 q 1056 579 1057 564 l 1056 972 l 1125 972 l 1125 0 l 1050 0 l 263 889 l 274 928 q 275 866 274 910 q 278 765 276 822 q 281 650 279 708 q 284 545 283 592 q 285 478 285 499 l 285 0 l 215 0 m 671 -231 q 623 -213 639 -231 q 607 -168 607 -196 q 622 -124 607 -143 q 671 -106 638 -106 q 719 -123 703 -106 q 735 -168 735 -140 q 719 -212 735 -193 q 671 -231 704 -231 z "},"Ɲ":{"ha":1354,"x_min":13,"x_max":1139,"o":"m 40 -271 l 13 -204 q 178 -131 126 -199 q 229 63 229 -64 l 229 972 l 299 972 l 1089 86 l 1068 44 q 1065 182 1067 100 q 1063 347 1064 264 q 1063 495 1063 431 q 1063 579 1063 560 l 1063 972 l 1139 972 l 1139 0 l 1064 0 l 276 885 l 292 928 q 294 866 293 904 q 297 780 296 828 q 300 679 299 732 q 302 574 301 626 q 303 478 303 522 l 303 35 q 268 -127 303 -60 q 174 -232 233 -194 q 40 -271 114 -269 z "},"ǋ":{"ha":1931,"x_min":215,"x_max":1742,"o":"m 215 0 l 215 972 l 286 972 l 1076 81 l 1061 44 q 1060 116 1060 61 q 1059 243 1060 171 q 1058 386 1058 315 q 1057 510 1057 457 q 1056 579 1057 564 l 1056 972 l 1125 972 l 1125 0 l 1050 0 l 263 889 l 274 928 q 275 866 274 910 q 278 765 276 822 q 281 650 279 708 q 284 545 283 592 q 285 478 285 499 l 285 0 l 215 0 m 1451 -271 l 1425 -208 q 1551 -172 1501 -203 q 1622 -82 1600 -142 q 1644 63 1644 -22 l 1644 722 l 1714 722 l 1714 35 q 1680 -127 1714 -60 q 1587 -232 1646 -194 q 1451 -271 1528 -269 m 1678 876 q 1631 893 1647 876 q 1614 939 1614 910 q 1631 984 1614 967 q 1678 1001 1647 1001 q 1725 985 1708 1001 q 1742 939 1742 968 q 1725 894 1742 911 q 1678 876 1708 876 z "},"Ṉ":{"ha":1340,"x_min":215,"x_max":1125,"o":"m 215 0 l 215 972 l 286 972 l 1076 81 l 1061 44 q 1060 116 1060 61 q 1059 243 1060 171 q 1058 386 1058 315 q 1057 510 1057 457 q 1056 579 1057 564 l 1056 972 l 1125 972 l 1125 0 l 1050 0 l 263 889 l 274 928 q 275 866 274 910 q 278 765 276 822 q 281 650 279 708 q 284 545 283 592 q 285 478 285 499 l 285 0 l 215 0 m 481 -201 l 481 -135 l 861 -135 l 861 -201 l 481 -201 z "},"Ñ":{"ha":1340,"x_min":215,"x_max":1125,"o":"m 215 0 l 215 972 l 286 972 l 1076 81 l 1061 44 q 1060 116 1060 61 q 1059 243 1060 171 q 1058 386 1058 315 q 1057 510 1057 457 q 1056 579 1057 564 l 1056 972 l 1125 972 l 1125 0 l 1050 0 l 263 889 l 274 928 q 275 866 274 910 q 278 765 276 822 q 281 650 279 708 q 284 545 283 592 q 285 478 285 499 l 285 0 l 215 0 m 768 1082 q 708 1094 738 1082 q 647 1119 679 1106 q 613 1135 631 1126 q 581 1143 596 1143 q 544 1128 560 1143 q 529 1083 529 1113 l 465 1083 q 497 1174 465 1140 q 575 1207 529 1207 q 634 1196 606 1207 q 696 1169 663 1185 q 729 1154 711 1163 q 763 1146 747 1146 q 799 1160 783 1146 q 814 1206 814 1175 l 878 1206 q 863 1140 878 1168 q 824 1097 849 1113 q 768 1082 799 1082 z "},"Ŋ":{"ha":1340,"x_min":215,"x_max":1125,"o":"m 858 -271 l 831 -207 q 929 -193 886 -207 q 1001 -153 972 -179 q 1042 -87 1029 -126 q 1056 0 1056 -47 l 1056 43 l 1076 -26 l 260 896 l 275 904 q 277 853 275 889 q 279 774 279 818 q 281 688 279 731 q 283 609 282 644 q 285 558 283 574 l 285 0 l 215 0 l 215 972 l 288 972 l 1082 78 l 1061 68 q 1058 199 1058 124 q 1057 352 1058 275 q 1056 492 1056 429 q 1056 579 1056 554 l 1056 972 l 1125 972 l 1125 7 q 1092 -133 1125 -71 q 999 -233 1058 -196 q 858 -271 939 -271 z "},"O":{"ha":1342,"x_min":132,"x_max":1210,"o":"m 669 -14 q 453 24 551 -14 q 282 128 354 63 q 171 284 210 193 q 132 482 132 375 q 171 679 132 589 q 282 836 210 769 q 453 941 354 903 q 669 979 551 979 q 888 942 789 979 q 1059 838 988 906 q 1170 680 1131 771 q 1210 482 1210 589 q 1170 283 1210 374 q 1059 126 1131 192 q 888 23 988 60 q 669 -14 789 -14 m 671 56 q 858 88 772 56 q 1006 178 944 119 q 1101 313 1067 236 q 1136 482 1136 390 q 1101 651 1136 572 q 1006 788 1067 731 q 858 877 944 844 q 671 910 771 910 q 483 877 568 910 q 335 788 397 844 q 240 653 274 732 q 206 482 206 574 q 240 313 206 390 q 335 177 274 235 q 483 88 397 119 q 671 56 568 56 z "},"Ó":{"ha":1342,"x_min":132,"x_max":1210,"o":"m 669 -14 q 453 24 551 -14 q 282 128 354 63 q 171 284 210 193 q 132 482 132 375 q 171 679 132 589 q 282 836 210 769 q 453 941 354 903 q 669 979 551 979 q 888 942 789 979 q 1059 838 988 906 q 1170 680 1131 771 q 1210 482 1210 589 q 1170 283 1210 374 q 1059 126 1131 192 q 888 23 988 60 q 669 -14 789 -14 m 671 56 q 858 88 772 56 q 1006 178 944 119 q 1101 313 1067 236 q 1136 482 1136 390 q 1101 651 1136 572 q 1006 788 1067 731 q 858 877 944 844 q 671 910 771 910 q 483 877 568 910 q 335 788 397 844 q 240 653 274 732 q 206 482 206 574 q 240 313 206 390 q 335 177 274 235 q 483 88 397 119 q 671 56 568 56 m 582 1054 l 557 1100 l 768 1236 l 815 1164 l 582 1054 z "},"Ŏ":{"ha":1342,"x_min":132,"x_max":1210,"o":"m 669 -14 q 453 24 551 -14 q 282 128 354 63 q 171 284 210 193 q 132 482 132 375 q 171 679 132 589 q 282 836 210 769 q 453 941 354 903 q 669 979 551 979 q 888 942 789 979 q 1059 838 988 906 q 1170 680 1131 771 q 1210 482 1210 589 q 1170 283 1210 374 q 1059 126 1131 192 q 888 23 988 60 q 669 -14 789 -14 m 671 56 q 858 88 772 56 q 1006 178 944 119 q 1101 313 1067 236 q 1136 482 1136 390 q 1101 651 1136 572 q 1006 788 1067 731 q 858 877 944 844 q 671 910 771 910 q 483 877 568 910 q 335 788 397 844 q 240 653 274 732 q 206 482 206 574 q 240 313 206 390 q 335 177 274 235 q 483 88 397 119 q 671 56 568 56 m 672 1057 q 582 1078 622 1057 q 514 1137 542 1099 q 475 1226 486 1175 l 535 1233 q 587 1140 549 1167 q 672 1114 625 1114 q 758 1140 719 1114 q 810 1233 796 1167 l 869 1226 q 831 1137 858 1175 q 763 1078 803 1099 q 672 1057 722 1057 z "},"Ǒ":{"ha":1342,"x_min":132,"x_max":1210,"o":"m 669 -14 q 453 24 551 -14 q 282 128 354 63 q 171 284 210 193 q 132 482 132 375 q 171 679 132 589 q 282 836 210 769 q 453 941 354 903 q 669 979 551 979 q 888 942 789 979 q 1059 838 988 906 q 1170 680 1131 771 q 1210 482 1210 589 q 1170 283 1210 374 q 1059 126 1131 192 q 888 23 988 60 q 669 -14 789 -14 m 671 56 q 858 88 772 56 q 1006 178 944 119 q 1101 313 1067 236 q 1136 482 1136 390 q 1101 651 1136 572 q 1006 788 1067 731 q 858 877 944 844 q 671 910 771 910 q 483 877 568 910 q 335 788 397 844 q 240 653 274 732 q 206 482 206 574 q 240 313 206 390 q 335 177 274 235 q 483 88 397 119 q 671 56 568 56 m 629 1064 l 478 1190 l 517 1225 l 693 1104 l 651 1104 l 828 1225 l 867 1190 l 715 1064 l 629 1064 z "},"Ô":{"ha":1342,"x_min":132,"x_max":1210,"o":"m 669 -14 q 453 24 551 -14 q 282 128 354 63 q 171 284 210 193 q 132 482 132 375 q 171 679 132 589 q 282 836 210 769 q 453 941 354 903 q 669 979 551 979 q 888 942 789 979 q 1059 838 988 906 q 1170 680 1131 771 q 1210 482 1210 589 q 1170 283 1210 374 q 1059 126 1131 192 q 888 23 988 60 q 669 -14 789 -14 m 671 56 q 858 88 772 56 q 1006 178 944 119 q 1101 313 1067 236 q 1136 482 1136 390 q 1101 651 1136 572 q 1006 788 1067 731 q 858 877 944 844 q 671 910 771 910 q 483 877 568 910 q 335 788 397 844 q 240 653 274 732 q 206 482 206 574 q 240 313 206 390 q 335 177 274 235 q 483 88 397 119 q 671 56 568 56 m 503 1063 l 464 1097 l 629 1224 l 715 1224 l 881 1097 l 842 1063 l 651 1181 l 693 1181 l 503 1063 z "},"Ố":{"ha":1342,"x_min":132,"x_max":1210,"o":"m 669 -14 q 453 24 551 -14 q 282 128 354 63 q 171 284 210 193 q 132 482 132 375 q 171 679 132 589 q 282 836 210 769 q 453 941 354 903 q 669 979 551 979 q 888 942 789 979 q 1059 838 988 906 q 1170 680 1131 771 q 1210 482 1210 589 q 1170 283 1210 374 q 1059 126 1131 192 q 888 23 988 60 q 669 -14 789 -14 m 671 56 q 858 88 772 56 q 1006 178 944 119 q 1101 313 1067 236 q 1136 482 1136 390 q 1101 651 1136 572 q 1006 788 1067 731 q 858 877 944 844 q 671 910 771 910 q 483 877 568 910 q 335 788 397 844 q 240 653 274 732 q 206 482 206 574 q 240 313 206 390 q 335 177 274 235 q 483 88 397 119 q 671 56 568 56 m 503 1063 l 464 1097 l 629 1224 l 715 1224 l 881 1097 l 842 1063 l 651 1181 l 693 1181 l 503 1063 m 864 1210 l 821 1238 l 928 1414 l 1006 1364 l 864 1210 z "},"Ộ":{"ha":1342,"x_min":132,"x_max":1210,"o":"m 669 -14 q 453 24 551 -14 q 282 128 354 63 q 171 284 210 193 q 132 482 132 375 q 171 679 132 589 q 282 836 210 769 q 453 941 354 903 q 669 979 551 979 q 888 942 789 979 q 1059 838 988 906 q 1170 680 1131 771 q 1210 482 1210 589 q 1170 283 1210 374 q 1059 126 1131 192 q 888 23 988 60 q 669 -14 789 -14 m 671 56 q 858 88 772 56 q 1006 178 944 119 q 1101 313 1067 236 q 1136 482 1136 390 q 1101 651 1136 572 q 1006 788 1067 731 q 858 877 944 844 q 671 910 771 910 q 483 877 568 910 q 335 788 397 844 q 240 653 274 732 q 206 482 206 574 q 240 313 206 390 q 335 177 274 235 q 483 88 397 119 q 671 56 568 56 m 672 -231 q 624 -213 640 -231 q 608 -168 608 -196 q 624 -124 608 -143 q 672 -106 639 -106 q 720 -123 704 -106 q 736 -168 736 -140 q 721 -212 736 -193 q 672 -231 706 -231 m 503 1063 l 464 1097 l 629 1224 l 715 1224 l 881 1097 l 842 1063 l 651 1181 l 693 1181 l 503 1063 z "},"Ồ":{"ha":1342,"x_min":132,"x_max":1210,"o":"m 669 -14 q 453 24 551 -14 q 282 128 354 63 q 171 284 210 193 q 132 482 132 375 q 171 679 132 589 q 282 836 210 769 q 453 941 354 903 q 669 979 551 979 q 888 942 789 979 q 1059 838 988 906 q 1170 680 1131 771 q 1210 482 1210 589 q 1170 283 1210 374 q 1059 126 1131 192 q 888 23 988 60 q 669 -14 789 -14 m 671 56 q 858 88 772 56 q 1006 178 944 119 q 1101 313 1067 236 q 1136 482 1136 390 q 1101 651 1136 572 q 1006 788 1067 731 q 858 877 944 844 q 671 910 771 910 q 483 877 568 910 q 335 788 397 844 q 240 653 274 732 q 206 482 206 574 q 240 313 206 390 q 335 177 274 235 q 483 88 397 119 q 671 56 568 56 m 503 1063 l 464 1097 l 629 1238 l 715 1238 l 881 1097 l 842 1063 l 651 1194 l 693 1194 l 503 1063 m 893 1210 l 751 1364 l 829 1414 l 936 1238 l 893 1210 z "},"Ổ":{"ha":1342,"x_min":132,"x_max":1210,"o":"m 669 -14 q 453 24 551 -14 q 282 128 354 63 q 171 284 210 193 q 132 482 132 375 q 171 679 132 589 q 282 836 210 769 q 453 941 354 903 q 669 979 551 979 q 888 942 789 979 q 1059 838 988 906 q 1170 680 1131 771 q 1210 482 1210 589 q 1170 283 1210 374 q 1059 126 1131 192 q 888 23 988 60 q 669 -14 789 -14 m 671 56 q 858 88 772 56 q 1006 178 944 119 q 1101 313 1067 236 q 1136 482 1136 390 q 1101 651 1136 572 q 1006 788 1067 731 q 858 877 944 844 q 671 910 771 910 q 483 877 568 910 q 335 788 397 844 q 240 653 274 732 q 206 482 206 574 q 240 313 206 390 q 335 177 274 235 q 483 88 397 119 q 671 56 568 56 m 503 1063 l 464 1097 l 629 1224 l 715 1224 l 881 1097 l 842 1063 l 651 1181 l 693 1181 l 503 1063 m 865 1228 q 858 1242 861 1235 q 856 1257 856 1250 q 866 1277 856 1268 q 901 1303 876 1286 q 930 1326 921 1315 q 939 1346 939 1336 q 921 1369 939 1361 q 879 1378 903 1378 q 832 1372 856 1378 q 785 1356 808 1367 l 767 1407 q 826 1428 794 1421 q 886 1436 857 1436 q 976 1412 947 1436 q 1006 1356 1006 1388 q 992 1315 1006 1332 q 954 1282 978 1297 q 928 1263 940 1272 q 915 1247 915 1254 q 915 1244 915 1246 q 917 1240 915 1243 l 865 1228 z "},"Ỗ":{"ha":1342,"x_min":132,"x_max":1210,"o":"m 669 -14 q 453 24 551 -14 q 282 128 354 63 q 171 284 210 193 q 132 482 132 375 q 171 679 132 589 q 282 836 210 769 q 453 941 354 903 q 669 979 551 979 q 888 942 789 979 q 1059 838 988 906 q 1170 680 1131 771 q 1210 482 1210 589 q 1170 283 1210 374 q 1059 126 1131 192 q 888 23 988 60 q 669 -14 789 -14 m 671 56 q 858 88 772 56 q 1006 178 944 119 q 1101 313 1067 236 q 1136 482 1136 390 q 1101 651 1136 572 q 1006 788 1067 731 q 858 877 944 844 q 671 910 771 910 q 483 877 568 910 q 335 788 397 844 q 240 653 274 732 q 206 482 206 574 q 240 313 206 390 q 335 177 274 235 q 483 88 397 119 q 671 56 568 56 m 503 1063 l 464 1097 l 629 1224 l 715 1224 l 881 1097 l 842 1063 l 651 1181 l 693 1181 l 503 1063 m 769 1319 q 714 1331 739 1319 q 665 1351 689 1342 q 621 1372 643 1363 q 578 1381 599 1381 q 549 1369 563 1381 q 535 1328 535 1357 l 471 1328 q 502 1410 471 1378 q 576 1442 533 1442 q 628 1432 606 1442 q 674 1411 650 1422 q 719 1391 696 1401 q 764 1381 743 1381 q 797 1394 783 1381 q 811 1433 811 1407 l 875 1433 q 860 1370 875 1396 q 822 1332 846 1344 q 769 1319 799 1319 z "},"Ȍ":{"ha":1342,"x_min":132,"x_max":1210,"o":"m 669 -14 q 453 24 551 -14 q 282 128 354 63 q 171 284 210 193 q 132 482 132 375 q 171 679 132 589 q 282 836 210 769 q 453 941 354 903 q 669 979 551 979 q 888 942 789 979 q 1059 838 988 906 q 1170 680 1131 771 q 1210 482 1210 589 q 1170 283 1210 374 q 1059 126 1131 192 q 888 23 988 60 q 669 -14 789 -14 m 671 56 q 858 88 772 56 q 1006 178 944 119 q 1101 313 1067 236 q 1136 482 1136 390 q 1101 651 1136 572 q 1006 788 1067 731 q 858 877 944 844 q 671 910 771 910 q 483 877 568 910 q 335 788 397 844 q 240 653 274 732 q 206 482 206 574 q 240 313 206 390 q 335 177 274 235 q 483 88 397 119 q 671 56 568 56 m 789 1040 l 575 1181 l 628 1249 l 822 1086 l 789 1040 m 575 1040 l 361 1181 l 414 1249 l 608 1086 l 575 1040 z "},"Ö":{"ha":1342,"x_min":132,"x_max":1210,"o":"m 669 -14 q 453 24 551 -14 q 282 128 354 63 q 171 284 210 193 q 132 482 132 375 q 171 679 132 589 q 282 836 210 769 q 453 941 354 903 q 669 979 551 979 q 888 942 789 979 q 1059 838 988 906 q 1170 680 1131 771 q 1210 482 1210 589 q 1170 283 1210 374 q 1059 126 1131 192 q 888 23 988 60 q 669 -14 789 -14 m 671 56 q 858 88 772 56 q 1006 178 944 119 q 1101 313 1067 236 q 1136 482 1136 390 q 1101 651 1136 572 q 1006 788 1067 731 q 858 877 944 844 q 671 910 771 910 q 483 877 568 910 q 335 788 397 844 q 240 653 274 732 q 206 482 206 574 q 240 313 206 390 q 335 177 274 235 q 483 88 397 119 q 671 56 568 56 m 811 1082 q 764 1099 781 1082 q 747 1144 747 1115 q 764 1190 747 1172 q 811 1207 781 1207 q 858 1190 842 1207 q 875 1144 875 1174 q 858 1099 875 1117 q 811 1082 842 1082 m 533 1082 q 486 1099 503 1082 q 469 1144 469 1115 q 486 1190 469 1172 q 533 1207 503 1207 q 581 1190 564 1207 q 597 1144 597 1174 q 581 1099 597 1117 q 533 1082 564 1082 z "},"Ȫ":{"ha":1342,"x_min":132,"x_max":1210,"o":"m 669 -14 q 453 24 551 -14 q 282 128 354 63 q 171 284 210 193 q 132 482 132 375 q 171 679 132 589 q 282 836 210 769 q 453 941 354 903 q 669 979 551 979 q 888 942 789 979 q 1059 838 988 906 q 1170 680 1131 771 q 1210 482 1210 589 q 1170 283 1210 374 q 1059 126 1131 192 q 888 23 988 60 q 669 -14 789 -14 m 671 56 q 858 88 772 56 q 1006 178 944 119 q 1101 313 1067 236 q 1136 482 1136 390 q 1101 651 1136 572 q 1006 788 1067 731 q 858 877 944 844 q 671 910 771 910 q 483 877 568 910 q 335 788 397 844 q 240 653 274 732 q 206 482 206 574 q 240 313 206 390 q 335 177 274 235 q 483 88 397 119 q 671 56 568 56 m 811 1082 q 764 1099 781 1082 q 747 1144 747 1115 q 764 1190 747 1172 q 811 1207 781 1207 q 858 1190 842 1207 q 875 1144 875 1174 q 858 1099 875 1117 q 811 1082 842 1082 m 533 1082 q 486 1099 503 1082 q 469 1144 469 1115 q 486 1190 469 1172 q 533 1207 503 1207 q 581 1190 564 1207 q 597 1144 597 1174 q 581 1099 597 1117 q 533 1082 564 1082 m 475 1300 l 475 1364 l 869 1364 l 869 1300 l 475 1300 z "},"Ȱ":{"ha":1342,"x_min":132,"x_max":1210,"o":"m 669 -14 q 453 24 551 -14 q 282 128 354 63 q 171 284 210 193 q 132 482 132 375 q 171 679 132 589 q 282 836 210 769 q 453 941 354 903 q 669 979 551 979 q 888 942 789 979 q 1059 838 988 906 q 1170 680 1131 771 q 1210 482 1210 589 q 1170 283 1210 374 q 1059 126 1131 192 q 888 23 988 60 q 669 -14 789 -14 m 671 56 q 858 88 772 56 q 1006 178 944 119 q 1101 313 1067 236 q 1136 482 1136 390 q 1101 651 1136 572 q 1006 788 1067 731 q 858 877 944 844 q 671 910 771 910 q 483 877 568 910 q 335 788 397 844 q 240 653 274 732 q 206 482 206 574 q 240 313 206 390 q 335 177 274 235 q 483 88 397 119 q 671 56 568 56 m 672 1082 q 625 1099 642 1082 q 608 1144 608 1115 q 625 1190 608 1172 q 672 1207 642 1207 q 719 1190 703 1207 q 736 1144 736 1174 q 719 1099 736 1117 q 672 1082 703 1082 m 475 1300 l 475 1364 l 869 1364 l 869 1300 l 475 1300 z "},"Ọ":{"ha":1342,"x_min":132,"x_max":1210,"o":"m 669 -14 q 453 24 551 -14 q 282 128 354 63 q 171 284 210 193 q 132 482 132 375 q 171 679 132 589 q 282 836 210 769 q 453 941 354 903 q 669 979 551 979 q 888 942 789 979 q 1059 838 988 906 q 1170 680 1131 771 q 1210 482 1210 589 q 1170 283 1210 374 q 1059 126 1131 192 q 888 23 988 60 q 669 -14 789 -14 m 671 56 q 858 88 772 56 q 1006 178 944 119 q 1101 313 1067 236 q 1136 482 1136 390 q 1101 651 1136 572 q 1006 788 1067 731 q 858 877 944 844 q 671 910 771 910 q 483 877 568 910 q 335 788 397 844 q 240 653 274 732 q 206 482 206 574 q 240 313 206 390 q 335 177 274 235 q 483 88 397 119 q 671 56 568 56 m 672 -231 q 624 -213 640 -231 q 608 -168 608 -196 q 624 -124 608 -143 q 672 -106 639 -106 q 720 -123 704 -106 q 736 -168 736 -140 q 721 -212 736 -193 q 672 -231 706 -231 z "},"Ò":{"ha":1342,"x_min":132,"x_max":1210,"o":"m 669 -14 q 453 24 551 -14 q 282 128 354 63 q 171 284 210 193 q 132 482 132 375 q 171 679 132 589 q 282 836 210 769 q 453 941 354 903 q 669 979 551 979 q 888 942 789 979 q 1059 838 988 906 q 1170 680 1131 771 q 1210 482 1210 589 q 1170 283 1210 374 q 1059 126 1131 192 q 888 23 988 60 q 669 -14 789 -14 m 671 56 q 858 88 772 56 q 1006 178 944 119 q 1101 313 1067 236 q 1136 482 1136 390 q 1101 651 1136 572 q 1006 788 1067 731 q 858 877 944 844 q 671 910 771 910 q 483 877 568 910 q 335 788 397 844 q 240 653 274 732 q 206 482 206 574 q 240 313 206 390 q 335 177 274 235 q 483 88 397 119 q 671 56 568 56 m 763 1054 l 529 1164 l 576 1236 l 788 1100 l 763 1054 z "},"Ỏ":{"ha":1342,"x_min":132,"x_max":1210,"o":"m 669 -14 q 453 24 551 -14 q 282 128 354 63 q 171 284 210 193 q 132 482 132 375 q 171 679 132 589 q 282 836 210 769 q 453 941 354 903 q 669 979 551 979 q 888 942 789 979 q 1059 838 988 906 q 1170 680 1131 771 q 1210 482 1210 589 q 1170 283 1210 374 q 1059 126 1131 192 q 888 23 988 60 q 669 -14 789 -14 m 671 56 q 858 88 772 56 q 1006 178 944 119 q 1101 313 1067 236 q 1136 482 1136 390 q 1101 651 1136 572 q 1006 788 1067 731 q 858 877 944 844 q 671 910 771 910 q 483 877 568 910 q 335 788 397 844 q 240 653 274 732 q 206 482 206 574 q 240 313 206 390 q 335 177 274 235 q 483 88 397 119 q 671 56 568 56 m 658 1067 q 651 1084 654 1074 q 649 1103 649 1094 q 655 1126 649 1113 q 682 1153 661 1139 q 718 1179 704 1168 q 732 1203 732 1190 q 712 1229 732 1221 q 664 1238 692 1238 q 617 1232 643 1238 q 564 1215 592 1226 l 546 1267 q 611 1288 576 1281 q 675 1296 646 1296 q 767 1269 736 1296 q 799 1208 799 1242 q 781 1162 799 1178 q 744 1133 764 1146 q 719 1115 731 1124 q 708 1092 708 1107 q 708 1088 708 1090 q 710 1079 708 1085 l 658 1067 z "},"Ơ":{"ha":1342,"x_min":132,"x_max":1210,"o":"m 671 -14 q 453 24 551 -14 q 282 128 354 63 q 171 284 210 193 q 132 482 132 375 q 171 679 132 589 q 282 836 210 769 q 453 941 354 903 q 671 979 551 979 q 711 978 689 979 q 754 974 733 976 q 819 966 790 969 q 878 963 849 963 q 993 981 949 963 q 1057 1035 1038 999 q 1076 1124 1076 1071 l 1143 1124 q 1128 1038 1143 1075 q 1082 974 1113 1000 q 1008 932 1051 947 q 903 914 964 917 l 896 939 q 1063 836 993 903 q 1172 679 1133 769 q 1210 482 1210 589 q 1170 283 1210 374 q 1059 126 1131 192 q 888 24 988 61 q 671 -14 789 -14 m 671 56 q 858 88 772 56 q 1006 178 944 119 q 1101 313 1067 236 q 1136 482 1136 390 q 1101 651 1136 572 q 1002 788 1065 731 q 853 877 939 844 q 671 910 768 910 q 483 877 568 910 q 335 788 397 844 q 240 653 274 732 q 206 482 206 574 q 240 313 206 390 q 335 177 274 235 q 483 88 397 119 q 671 56 568 56 z "},"Ớ":{"ha":1342,"x_min":132,"x_max":1210,"o":"m 671 -14 q 453 24 551 -14 q 282 128 354 63 q 171 284 210 193 q 132 482 132 375 q 171 679 132 589 q 282 836 210 769 q 453 941 354 903 q 671 979 551 979 q 711 978 689 979 q 754 974 733 976 q 819 966 790 969 q 878 963 849 963 q 993 981 949 963 q 1057 1035 1038 999 q 1076 1124 1076 1071 l 1143 1124 q 1128 1038 1143 1075 q 1082 974 1113 1000 q 1008 932 1051 947 q 903 914 964 917 l 896 939 q 1063 836 993 903 q 1172 679 1133 769 q 1210 482 1210 589 q 1170 283 1210 374 q 1059 126 1131 192 q 888 24 988 61 q 671 -14 789 -14 m 671 56 q 858 88 772 56 q 1006 178 944 119 q 1101 313 1067 236 q 1136 482 1136 390 q 1101 651 1136 572 q 1002 788 1065 731 q 853 877 939 844 q 671 910 768 910 q 483 877 568 910 q 335 788 397 844 q 240 653 274 732 q 206 482 206 574 q 240 313 206 390 q 335 177 274 235 q 483 88 397 119 q 671 56 568 56 m 582 1054 l 557 1100 l 768 1236 l 815 1164 l 582 1054 z "},"Ợ":{"ha":1342,"x_min":132,"x_max":1210,"o":"m 671 -14 q 453 24 551 -14 q 282 128 354 63 q 171 284 210 193 q 132 482 132 375 q 171 679 132 589 q 282 836 210 769 q 453 941 354 903 q 671 979 551 979 q 711 978 689 979 q 754 974 733 976 q 819 966 790 969 q 878 963 849 963 q 993 981 949 963 q 1057 1035 1038 999 q 1076 1124 1076 1071 l 1143 1124 q 1128 1038 1143 1075 q 1082 974 1113 1000 q 1008 932 1051 947 q 903 914 964 917 l 896 939 q 1063 836 993 903 q 1172 679 1133 769 q 1210 482 1210 589 q 1170 283 1210 374 q 1059 126 1131 192 q 888 24 988 61 q 671 -14 789 -14 m 671 56 q 858 88 772 56 q 1006 178 944 119 q 1101 313 1067 236 q 1136 482 1136 390 q 1101 651 1136 572 q 1002 788 1065 731 q 853 877 939 844 q 671 910 768 910 q 483 877 568 910 q 335 788 397 844 q 240 653 274 732 q 206 482 206 574 q 240 313 206 390 q 335 177 274 235 q 483 88 397 119 q 671 56 568 56 m 672 -231 q 624 -213 640 -231 q 608 -168 608 -196 q 624 -124 608 -143 q 672 -106 639 -106 q 720 -123 704 -106 q 736 -168 736 -140 q 721 -212 736 -193 q 672 -231 706 -231 z "},"Ờ":{"ha":1342,"x_min":132,"x_max":1210,"o":"m 671 -14 q 453 24 551 -14 q 282 128 354 63 q 171 284 210 193 q 132 482 132 375 q 171 679 132 589 q 282 836 210 769 q 453 941 354 903 q 671 979 551 979 q 711 978 689 979 q 754 974 733 976 q 819 966 790 969 q 878 963 849 963 q 993 981 949 963 q 1057 1035 1038 999 q 1076 1124 1076 1071 l 1143 1124 q 1128 1038 1143 1075 q 1082 974 1113 1000 q 1008 932 1051 947 q 903 914 964 917 l 896 939 q 1063 836 993 903 q 1172 679 1133 769 q 1210 482 1210 589 q 1170 283 1210 374 q 1059 126 1131 192 q 888 24 988 61 q 671 -14 789 -14 m 671 56 q 858 88 772 56 q 1006 178 944 119 q 1101 313 1067 236 q 1136 482 1136 390 q 1101 651 1136 572 q 1002 788 1065 731 q 853 877 939 844 q 671 910 768 910 q 483 877 568 910 q 335 788 397 844 q 240 653 274 732 q 206 482 206 574 q 240 313 206 390 q 335 177 274 235 q 483 88 397 119 q 671 56 568 56 m 763 1054 l 529 1164 l 576 1236 l 788 1100 l 763 1054 z "},"Ở":{"ha":1342,"x_min":132,"x_max":1210,"o":"m 671 -14 q 453 24 551 -14 q 282 128 354 63 q 171 284 210 193 q 132 482 132 375 q 171 679 132 589 q 282 836 210 769 q 453 941 354 903 q 671 979 551 979 q 711 978 689 979 q 754 974 733 976 q 819 966 790 969 q 878 963 849 963 q 993 981 949 963 q 1057 1035 1038 999 q 1076 1124 1076 1071 l 1143 1124 q 1128 1038 1143 1075 q 1082 974 1113 1000 q 1008 932 1051 947 q 903 914 964 917 l 896 939 q 1063 836 993 903 q 1172 679 1133 769 q 1210 482 1210 589 q 1170 283 1210 374 q 1059 126 1131 192 q 888 24 988 61 q 671 -14 789 -14 m 671 56 q 858 88 772 56 q 1006 178 944 119 q 1101 313 1067 236 q 1136 482 1136 390 q 1101 651 1136 572 q 1002 788 1065 731 q 853 877 939 844 q 671 910 768 910 q 483 877 568 910 q 335 788 397 844 q 240 653 274 732 q 206 482 206 574 q 240 313 206 390 q 335 177 274 235 q 483 88 397 119 q 671 56 568 56 m 658 1067 q 651 1084 654 1074 q 649 1103 649 1094 q 655 1126 649 1113 q 682 1153 661 1139 q 718 1179 704 1168 q 732 1203 732 1190 q 712 1229 732 1221 q 664 1238 692 1238 q 617 1232 643 1238 q 564 1215 592 1226 l 546 1267 q 611 1288 576 1281 q 675 1296 646 1296 q 767 1269 736 1296 q 799 1208 799 1242 q 781 1162 799 1178 q 744 1133 764 1146 q 719 1115 731 1124 q 708 1092 708 1107 q 708 1088 708 1090 q 710 1079 708 1085 l 658 1067 z "},"Ỡ":{"ha":1342,"x_min":132,"x_max":1210,"o":"m 671 -14 q 453 24 551 -14 q 282 128 354 63 q 171 284 210 193 q 132 482 132 375 q 171 679 132 589 q 282 836 210 769 q 453 941 354 903 q 671 979 551 979 q 711 978 689 979 q 754 974 733 976 q 819 966 790 969 q 878 963 849 963 q 993 981 949 963 q 1057 1035 1038 999 q 1076 1124 1076 1071 l 1143 1124 q 1128 1038 1143 1075 q 1082 974 1113 1000 q 1008 932 1051 947 q 903 914 964 917 l 896 939 q 1063 836 993 903 q 1172 679 1133 769 q 1210 482 1210 589 q 1170 283 1210 374 q 1059 126 1131 192 q 888 24 988 61 q 671 -14 789 -14 m 671 56 q 858 88 772 56 q 1006 178 944 119 q 1101 313 1067 236 q 1136 482 1136 390 q 1101 651 1136 572 q 1002 788 1065 731 q 853 877 939 844 q 671 910 768 910 q 483 877 568 910 q 335 788 397 844 q 240 653 274 732 q 206 482 206 574 q 240 313 206 390 q 335 177 274 235 q 483 88 397 119 q 671 56 568 56 m 769 1082 q 710 1094 739 1082 q 649 1119 681 1106 q 615 1135 632 1126 q 582 1143 597 1143 q 546 1128 561 1143 q 531 1083 531 1113 l 467 1083 q 499 1174 467 1140 q 576 1207 531 1207 q 635 1196 607 1207 q 697 1169 664 1185 q 731 1154 713 1163 q 764 1146 749 1146 q 800 1160 785 1146 q 815 1206 815 1175 l 879 1206 q 865 1140 879 1168 q 825 1097 850 1113 q 769 1082 800 1082 z "},"Ő":{"ha":1342,"x_min":132,"x_max":1210,"o":"m 669 -14 q 453 24 551 -14 q 282 128 354 63 q 171 284 210 193 q 132 482 132 375 q 171 679 132 589 q 282 836 210 769 q 453 941 354 903 q 669 979 551 979 q 888 942 789 979 q 1059 838 988 906 q 1170 680 1131 771 q 1210 482 1210 589 q 1170 283 1210 374 q 1059 126 1131 192 q 888 23 988 60 q 669 -14 789 -14 m 671 56 q 858 88 772 56 q 1006 178 944 119 q 1101 313 1067 236 q 1136 482 1136 390 q 1101 651 1136 572 q 1006 788 1067 731 q 858 877 944 844 q 671 910 771 910 q 483 877 568 910 q 335 788 397 844 q 240 653 274 732 q 206 482 206 574 q 240 313 206 390 q 335 177 274 235 q 483 88 397 119 q 671 56 568 56 m 563 1051 l 538 1097 l 747 1239 l 788 1172 l 563 1051 m 771 1051 l 746 1097 l 956 1239 l 996 1172 l 771 1051 z "},"Ȏ":{"ha":1342,"x_min":132,"x_max":1210,"o":"m 669 -14 q 453 24 551 -14 q 282 128 354 63 q 171 284 210 193 q 132 482 132 375 q 171 679 132 589 q 282 836 210 769 q 453 941 354 903 q 669 979 551 979 q 888 942 789 979 q 1059 838 988 906 q 1170 680 1131 771 q 1210 482 1210 589 q 1170 283 1210 374 q 1059 126 1131 192 q 888 23 988 60 q 669 -14 789 -14 m 671 56 q 858 88 772 56 q 1006 178 944 119 q 1101 313 1067 236 q 1136 482 1136 390 q 1101 651 1136 572 q 1006 788 1067 731 q 858 877 944 844 q 671 910 771 910 q 483 877 568 910 q 335 788 397 844 q 240 653 274 732 q 206 482 206 574 q 240 313 206 390 q 335 177 274 235 q 483 88 397 119 q 671 56 568 56 m 535 1057 l 475 1064 q 514 1154 486 1117 q 582 1213 542 1192 q 672 1233 622 1233 q 763 1213 722 1233 q 831 1154 803 1192 q 869 1064 858 1117 l 810 1057 q 758 1150 796 1124 q 672 1176 719 1176 q 587 1150 625 1176 q 535 1057 549 1124 z "},"Ō":{"ha":1342,"x_min":132,"x_max":1210,"o":"m 669 -14 q 453 24 551 -14 q 282 128 354 63 q 171 284 210 193 q 132 482 132 375 q 171 679 132 589 q 282 836 210 769 q 453 941 354 903 q 669 979 551 979 q 888 942 789 979 q 1059 838 988 906 q 1170 680 1131 771 q 1210 482 1210 589 q 1170 283 1210 374 q 1059 126 1131 192 q 888 23 988 60 q 669 -14 789 -14 m 671 56 q 858 88 772 56 q 1006 178 944 119 q 1101 313 1067 236 q 1136 482 1136 390 q 1101 651 1136 572 q 1006 788 1067 731 q 858 877 944 844 q 671 910 771 910 q 483 877 568 910 q 335 788 397 844 q 240 653 274 732 q 206 482 206 574 q 240 313 206 390 q 335 177 274 235 q 483 88 397 119 q 671 56 568 56 m 475 1113 l 475 1176 l 869 1176 l 869 1113 l 475 1113 z "},"Ṓ":{"ha":1342,"x_min":132,"x_max":1210,"o":"m 669 -14 q 453 24 551 -14 q 282 128 354 63 q 171 284 210 193 q 132 482 132 375 q 171 679 132 589 q 282 836 210 769 q 453 941 354 903 q 669 979 551 979 q 888 942 789 979 q 1059 838 988 906 q 1170 680 1131 771 q 1210 482 1210 589 q 1170 283 1210 374 q 1059 126 1131 192 q 888 23 988 60 q 669 -14 789 -14 m 671 56 q 858 88 772 56 q 1006 178 944 119 q 1101 313 1067 236 q 1136 482 1136 390 q 1101 651 1136 572 q 1006 788 1067 731 q 858 877 944 844 q 671 910 771 910 q 483 877 568 910 q 335 788 397 844 q 240 653 274 732 q 206 482 206 574 q 240 313 206 390 q 335 177 274 235 q 483 88 397 119 q 671 56 568 56 m 475 1113 l 475 1176 l 869 1176 l 869 1113 l 475 1113 m 582 1242 l 557 1288 l 768 1424 l 815 1351 l 582 1242 z "},"Ṑ":{"ha":1342,"x_min":132,"x_max":1210,"o":"m 669 -14 q 453 24 551 -14 q 282 128 354 63 q 171 284 210 193 q 132 482 132 375 q 171 679 132 589 q 282 836 210 769 q 453 941 354 903 q 669 979 551 979 q 888 942 789 979 q 1059 838 988 906 q 1170 680 1131 771 q 1210 482 1210 589 q 1170 283 1210 374 q 1059 126 1131 192 q 888 23 988 60 q 669 -14 789 -14 m 671 56 q 858 88 772 56 q 1006 178 944 119 q 1101 313 1067 236 q 1136 482 1136 390 q 1101 651 1136 572 q 1006 788 1067 731 q 858 877 944 844 q 671 910 771 910 q 483 877 568 910 q 335 788 397 844 q 240 653 274 732 q 206 482 206 574 q 240 313 206 390 q 335 177 274 235 q 483 88 397 119 q 671 56 568 56 m 475 1113 l 475 1176 l 869 1176 l 869 1113 l 475 1113 m 763 1242 l 529 1351 l 576 1424 l 788 1288 l 763 1242 z "},"Ǫ":{"ha":1342,"x_min":132,"x_max":1210,"o":"m 853 -307 q 739 -265 785 -307 q 693 -157 693 -222 q 713 -77 693 -112 q 768 -10 733 -42 q 850 52 803 22 q 953 113 897 82 l 988 75 q 902 24 943 50 q 828 -28 861 -1 q 778 -86 796 -56 q 760 -151 760 -117 q 788 -222 760 -197 q 856 -247 815 -247 q 910 -235 886 -247 q 951 -203 935 -222 l 997 -236 q 936 -288 971 -269 q 853 -307 901 -307 m 671 -14 q 453 24 551 -14 q 282 128 354 63 q 171 284 210 193 q 132 482 132 375 q 171 679 132 589 q 282 836 210 769 q 453 941 354 903 q 671 979 551 979 q 888 942 789 979 q 1059 838 988 904 q 1170 680 1131 771 q 1210 482 1210 589 q 1170 283 1210 374 q 1059 126 1131 192 q 888 24 988 61 q 671 -14 789 -14 m 671 56 q 858 88 772 56 q 1006 178 944 119 q 1101 313 1067 236 q 1136 482 1136 390 q 1101 651 1136 572 q 1006 788 1067 731 q 858 877 944 844 q 671 910 772 910 q 483 877 568 910 q 335 788 397 844 q 240 653 274 732 q 206 482 206 574 q 240 313 206 390 q 335 177 274 235 q 483 88 397 119 q 671 56 568 56 z "},"Ø":{"ha":1353,"x_min":135,"x_max":1214,"o":"m 201 -43 l 156 8 l 1146 1004 l 1193 953 l 201 -43 m 674 -14 q 456 24 554 -14 q 285 128 358 63 q 174 284 213 193 q 135 482 135 375 q 174 679 135 589 q 285 836 213 769 q 456 941 358 903 q 674 979 554 979 q 890 942 792 979 q 1061 838 989 906 q 1174 680 1133 771 q 1214 482 1214 589 q 1174 283 1214 375 q 1061 126 1133 192 q 890 23 989 60 q 674 -14 792 -14 m 674 56 q 860 88 775 56 q 1009 178 946 119 q 1106 313 1072 236 q 1140 482 1140 390 q 1106 651 1140 572 q 1009 788 1072 731 q 860 877 946 844 q 674 910 775 910 q 486 877 572 910 q 338 788 400 844 q 242 653 276 732 q 208 482 208 574 q 242 313 208 390 q 338 177 276 235 q 486 88 400 119 q 674 56 572 56 z "},"Ǿ":{"ha":1353,"x_min":135,"x_max":1214,"o":"m 201 -43 l 156 8 l 1146 1004 l 1193 953 l 201 -43 m 674 -14 q 456 24 554 -14 q 285 128 358 63 q 174 284 213 193 q 135 482 135 375 q 174 679 135 589 q 285 836 213 769 q 456 941 358 903 q 674 979 554 979 q 890 942 792 979 q 1061 838 989 906 q 1174 680 1133 771 q 1214 482 1214 589 q 1174 283 1214 375 q 1061 126 1133 192 q 890 23 989 60 q 674 -14 792 -14 m 674 56 q 860 88 775 56 q 1009 178 946 119 q 1106 313 1072 236 q 1140 482 1140 390 q 1106 651 1140 572 q 1009 788 1072 731 q 860 877 946 844 q 674 910 775 910 q 486 877 572 910 q 338 788 400 844 q 242 653 276 732 q 208 482 208 574 q 242 313 208 390 q 338 177 276 235 q 486 88 400 119 q 674 56 572 56 m 588 1054 l 563 1100 l 774 1236 l 821 1164 l 588 1054 z "},"Õ":{"ha":1342,"x_min":132,"x_max":1210,"o":"m 669 -14 q 453 24 551 -14 q 282 128 354 63 q 171 284 210 193 q 132 482 132 375 q 171 679 132 589 q 282 836 210 769 q 453 941 354 903 q 669 979 551 979 q 888 942 789 979 q 1059 838 988 906 q 1170 680 1131 771 q 1210 482 1210 589 q 1170 283 1210 374 q 1059 126 1131 192 q 888 23 988 60 q 669 -14 789 -14 m 671 56 q 858 88 772 56 q 1006 178 944 119 q 1101 313 1067 236 q 1136 482 1136 390 q 1101 651 1136 572 q 1006 788 1067 731 q 858 877 944 844 q 671 910 771 910 q 483 877 568 910 q 335 788 397 844 q 240 653 274 732 q 206 482 206 574 q 240 313 206 390 q 335 177 274 235 q 483 88 397 119 q 671 56 568 56 m 769 1082 q 710 1094 739 1082 q 649 1119 681 1106 q 615 1135 632 1126 q 582 1143 597 1143 q 546 1128 561 1143 q 531 1083 531 1113 l 467 1083 q 499 1174 467 1140 q 576 1207 531 1207 q 635 1196 607 1207 q 697 1169 664 1185 q 731 1154 713 1163 q 764 1146 749 1146 q 800 1160 785 1146 q 815 1206 815 1175 l 879 1206 q 865 1140 879 1168 q 825 1097 850 1113 q 769 1082 800 1082 z "},"Ṍ":{"ha":1342,"x_min":132,"x_max":1210,"o":"m 669 -14 q 453 24 551 -14 q 282 128 354 63 q 171 284 210 193 q 132 482 132 375 q 171 679 132 589 q 282 836 210 769 q 453 941 354 903 q 669 979 551 979 q 888 942 789 979 q 1059 838 988 906 q 1170 680 1131 771 q 1210 482 1210 589 q 1170 283 1210 374 q 1059 126 1131 192 q 888 23 988 60 q 669 -14 789 -14 m 671 56 q 858 88 772 56 q 1006 178 944 119 q 1101 313 1067 236 q 1136 482 1136 390 q 1101 651 1136 572 q 1006 788 1067 731 q 858 877 944 844 q 671 910 771 910 q 483 877 568 910 q 335 788 397 844 q 240 653 274 732 q 206 482 206 574 q 240 313 206 390 q 335 177 274 235 q 483 88 397 119 q 671 56 568 56 m 769 1082 q 710 1094 739 1082 q 649 1119 681 1106 q 615 1135 632 1126 q 582 1143 597 1143 q 546 1128 561 1143 q 531 1083 531 1113 l 467 1083 q 499 1174 467 1140 q 576 1207 531 1207 q 635 1196 607 1207 q 697 1169 664 1185 q 731 1154 713 1163 q 764 1146 749 1146 q 800 1160 785 1146 q 815 1206 815 1175 l 879 1206 q 865 1140 879 1168 q 825 1097 850 1113 q 769 1082 800 1082 m 582 1242 l 557 1288 l 768 1424 l 815 1351 l 582 1242 z "},"Ṏ":{"ha":1342,"x_min":132,"x_max":1210,"o":"m 669 -14 q 453 24 551 -14 q 282 128 354 63 q 171 284 210 193 q 132 482 132 375 q 171 679 132 589 q 282 836 210 769 q 453 941 354 903 q 669 979 551 979 q 888 942 789 979 q 1059 838 988 906 q 1170 680 1131 771 q 1210 482 1210 589 q 1170 283 1210 374 q 1059 126 1131 192 q 888 23 988 60 q 669 -14 789 -14 m 671 56 q 858 88 772 56 q 1006 178 944 119 q 1101 313 1067 236 q 1136 482 1136 390 q 1101 651 1136 572 q 1006 788 1067 731 q 858 877 944 844 q 671 910 771 910 q 483 877 568 910 q 335 788 397 844 q 240 653 274 732 q 206 482 206 574 q 240 313 206 390 q 335 177 274 235 q 483 88 397 119 q 671 56 568 56 m 769 1082 q 710 1094 739 1082 q 649 1119 681 1106 q 615 1135 632 1126 q 582 1143 597 1143 q 546 1128 561 1143 q 531 1083 531 1113 l 467 1083 q 499 1174 467 1140 q 576 1207 531 1207 q 635 1196 607 1207 q 697 1169 664 1185 q 731 1154 713 1163 q 764 1146 749 1146 q 800 1160 785 1146 q 815 1206 815 1175 l 879 1206 q 865 1140 879 1168 q 825 1097 850 1113 q 769 1082 800 1082 m 811 1269 q 764 1286 781 1269 q 747 1332 747 1303 q 764 1377 747 1360 q 811 1394 781 1394 q 858 1378 842 1394 q 875 1332 875 1361 q 858 1287 875 1304 q 811 1269 842 1269 m 533 1269 q 486 1286 503 1269 q 469 1332 469 1303 q 486 1377 469 1360 q 533 1394 503 1394 q 581 1378 564 1394 q 597 1332 597 1361 q 581 1287 597 1304 q 533 1269 564 1269 z "},"Ȭ":{"ha":1342,"x_min":132,"x_max":1210,"o":"m 669 -14 q 453 24 551 -14 q 282 128 354 63 q 171 284 210 193 q 132 482 132 375 q 171 679 132 589 q 282 836 210 769 q 453 941 354 903 q 669 979 551 979 q 888 942 789 979 q 1059 838 988 906 q 1170 680 1131 771 q 1210 482 1210 589 q 1170 283 1210 374 q 1059 126 1131 192 q 888 23 988 60 q 669 -14 789 -14 m 671 56 q 858 88 772 56 q 1006 178 944 119 q 1101 313 1067 236 q 1136 482 1136 390 q 1101 651 1136 572 q 1006 788 1067 731 q 858 877 944 844 q 671 910 771 910 q 483 877 568 910 q 335 788 397 844 q 240 653 274 732 q 206 482 206 574 q 240 313 206 390 q 335 177 274 235 q 483 88 397 119 q 671 56 568 56 m 769 1082 q 710 1094 739 1082 q 649 1119 681 1106 q 615 1135 632 1126 q 582 1143 597 1143 q 546 1128 561 1143 q 531 1083 531 1113 l 467 1083 q 499 1174 467 1140 q 576 1207 531 1207 q 635 1196 607 1207 q 697 1169 664 1185 q 731 1154 713 1163 q 764 1146 749 1146 q 800 1160 785 1146 q 815 1206 815 1175 l 879 1206 q 865 1140 879 1168 q 825 1097 850 1113 q 769 1082 800 1082 m 475 1300 l 475 1364 l 869 1364 l 869 1300 l 475 1300 z "},"Œ":{"ha":1747,"x_min":132,"x_max":1585,"o":"m 639 0 q 435 37 528 0 q 274 138 342 74 q 169 291 207 201 q 132 486 132 381 q 169 681 132 592 q 274 834 207 769 q 435 935 342 899 q 639 972 529 972 l 1585 972 l 1585 903 l 979 903 l 979 536 l 1506 536 l 1506 467 l 979 467 l 979 69 l 1579 69 l 1579 0 l 639 0 m 206 486 q 238 320 206 394 q 329 188 271 246 q 467 100 388 131 q 643 69 547 69 l 910 69 l 910 903 l 643 903 q 467 872 547 903 q 328 784 386 842 q 238 651 271 726 q 206 486 206 576 z "},"P":{"ha":1097,"x_min":215,"x_max":957,"o":"m 215 0 l 215 972 l 678 972 q 823 936 760 972 q 922 838 886 900 q 957 692 957 775 q 921 533 957 601 q 821 424 885 464 q 671 385 757 385 l 285 385 l 285 0 l 215 0 m 285 454 l 676 454 q 785 485 739 454 q 857 569 832 515 q 882 694 882 624 q 857 803 882 756 q 785 876 832 850 q 676 903 739 903 l 285 903 l 285 454 z "},"Þ":{"ha":1078,"x_min":215,"x_max":939,"o":"m 215 0 l 215 972 l 285 972 l 285 768 l 644 768 q 798 733 732 768 q 901 639 864 699 q 939 497 939 579 q 902 356 939 417 q 799 259 865 294 q 643 224 733 224 l 285 224 l 285 0 l 215 0 m 285 299 l 653 299 q 766 323 719 299 q 838 392 813 347 q 863 497 863 438 q 837 598 863 554 q 765 667 811 642 q 653 693 718 693 l 285 693 l 285 299 z "},"Q":{"ha":1342,"x_min":132,"x_max":1210,"o":"m 1057 -133 l 713 321 l 771 351 l 1117 -100 l 1057 -133 m 669 -14 q 453 24 551 -14 q 282 128 354 63 q 171 284 210 193 q 132 482 132 375 q 171 679 132 589 q 282 836 210 769 q 453 941 354 903 q 669 979 551 979 q 888 942 789 979 q 1059 838 988 906 q 1170 680 1131 771 q 1210 482 1210 589 q 1170 283 1210 374 q 1059 126 1131 192 q 888 23 988 60 q 669 -14 789 -14 m 671 56 q 858 88 772 56 q 1006 178 944 119 q 1101 313 1067 236 q 1136 482 1136 390 q 1101 651 1136 572 q 1006 788 1067 731 q 858 877 944 844 q 671 910 771 910 q 483 877 568 910 q 335 788 397 844 q 240 653 274 732 q 206 482 206 574 q 240 313 206 390 q 335 177 274 235 q 483 88 397 119 q 671 56 568 56 z "},"R":{"ha":1117,"x_min":215,"x_max":1003,"o":"m 215 0 l 215 972 l 651 972 q 806 933 738 972 q 915 830 874 894 q 956 683 956 765 q 915 531 956 596 q 805 431 875 467 q 646 396 735 396 l 285 396 l 285 0 l 215 0 m 921 0 l 631 418 l 692 453 l 1003 0 l 921 0 m 285 465 l 643 465 q 767 493 714 465 q 850 570 819 521 q 881 681 881 619 q 849 794 881 744 q 762 874 817 844 q 638 903 707 903 l 285 903 l 285 465 z "},"Ŕ":{"ha":1117,"x_min":215,"x_max":1003,"o":"m 215 0 l 215 972 l 651 972 q 806 933 738 972 q 915 830 874 894 q 956 683 956 765 q 915 531 956 596 q 805 431 875 467 q 646 396 735 396 l 285 396 l 285 0 l 215 0 m 921 0 l 631 418 l 692 453 l 1003 0 l 921 0 m 285 465 l 643 465 q 767 493 714 465 q 850 570 819 521 q 881 681 881 619 q 849 794 881 744 q 762 874 817 844 q 638 903 707 903 l 285 903 l 285 465 m 449 1051 l 424 1097 l 635 1233 l 682 1161 l 449 1051 z "},"Ř":{"ha":1117,"x_min":215,"x_max":1003,"o":"m 215 0 l 215 972 l 651 972 q 806 933 738 972 q 915 830 874 894 q 956 683 956 765 q 915 531 956 596 q 805 431 875 467 q 646 396 735 396 l 285 396 l 285 0 l 215 0 m 921 0 l 631 418 l 692 453 l 1003 0 l 921 0 m 285 465 l 643 465 q 767 493 714 465 q 850 570 819 521 q 881 681 881 619 q 849 794 881 744 q 762 874 817 844 q 638 903 707 903 l 285 903 l 285 465 m 494 1061 l 343 1188 l 382 1222 l 558 1101 l 517 1101 l 693 1222 l 732 1188 l 581 1061 l 494 1061 z "},"Ŗ":{"ha":1117,"x_min":215,"x_max":1003,"o":"m 215 0 l 215 972 l 651 972 q 806 933 738 972 q 915 830 874 894 q 956 683 956 765 q 915 531 956 596 q 805 431 875 467 q 646 396 735 396 l 285 396 l 285 0 l 215 0 m 921 0 l 631 418 l 692 453 l 1003 0 l 921 0 m 285 465 l 643 465 q 767 493 714 465 q 850 570 819 521 q 881 681 881 619 q 849 794 881 744 q 762 874 817 844 q 638 903 707 903 l 285 903 l 285 465 m 513 -318 l 483 -285 q 520 -260 506 -271 q 542 -238 535 -249 q 549 -217 549 -228 q 539 -196 549 -201 q 518 -185 529 -190 q 497 -167 506 -179 q 488 -139 488 -156 q 502 -106 488 -119 q 538 -93 517 -93 q 597 -115 575 -93 q 619 -178 619 -137 q 612 -222 619 -201 q 590 -258 604 -242 q 556 -288 575 -274 q 513 -318 536 -303 z "},"Ȑ":{"ha":1117,"x_min":215,"x_max":1003,"o":"m 215 0 l 215 972 l 651 972 q 806 933 738 972 q 915 830 874 894 q 956 683 956 765 q 915 531 956 596 q 805 431 875 467 q 646 396 735 396 l 285 396 l 285 0 l 215 0 m 921 0 l 631 418 l 692 453 l 1003 0 l 921 0 m 285 465 l 643 465 q 767 493 714 465 q 850 570 819 521 q 881 681 881 619 q 849 794 881 744 q 762 874 817 844 q 638 903 707 903 l 285 903 l 285 465 m 656 1038 l 442 1178 l 494 1246 l 689 1083 l 656 1038 m 442 1038 l 228 1178 l 281 1246 l 475 1083 l 442 1038 z "},"Ṛ":{"ha":1117,"x_min":215,"x_max":1003,"o":"m 215 0 l 215 972 l 651 972 q 806 933 738 972 q 915 830 874 894 q 956 683 956 765 q 915 531 956 596 q 805 431 875 467 q 646 396 735 396 l 285 396 l 285 0 l 215 0 m 921 0 l 631 418 l 692 453 l 1003 0 l 921 0 m 285 465 l 643 465 q 767 493 714 465 q 850 570 819 521 q 881 681 881 619 q 849 794 881 744 q 762 874 817 844 q 638 903 707 903 l 285 903 l 285 465 m 551 -231 q 503 -213 519 -231 q 488 -168 488 -196 q 503 -124 488 -143 q 551 -106 518 -106 q 599 -123 583 -106 q 615 -168 615 -140 q 600 -212 615 -193 q 551 -231 585 -231 z "},"Ȓ":{"ha":1117,"x_min":215,"x_max":1003,"o":"m 215 0 l 215 972 l 651 972 q 806 933 738 972 q 915 830 874 894 q 956 683 956 765 q 915 531 956 596 q 805 431 875 467 q 646 396 735 396 l 285 396 l 285 0 l 215 0 m 921 0 l 631 418 l 692 453 l 1003 0 l 921 0 m 285 465 l 643 465 q 767 493 714 465 q 850 570 819 521 q 881 681 881 619 q 849 794 881 744 q 762 874 817 844 q 638 903 707 903 l 285 903 l 285 465 m 400 1054 l 340 1061 q 379 1151 351 1114 q 447 1210 407 1189 q 538 1231 488 1231 q 628 1210 588 1231 q 696 1151 668 1189 q 735 1061 724 1114 l 675 1054 q 623 1147 661 1121 q 538 1174 585 1174 q 452 1147 490 1174 q 400 1054 414 1121 z "},"Ṟ":{"ha":1117,"x_min":215,"x_max":1003,"o":"m 215 0 l 215 972 l 651 972 q 806 933 738 972 q 915 830 874 894 q 956 683 956 765 q 915 531 956 596 q 805 431 875 467 q 646 396 735 396 l 285 396 l 285 0 l 215 0 m 921 0 l 631 418 l 692 453 l 1003 0 l 921 0 m 285 465 l 643 465 q 767 493 714 465 q 850 570 819 521 q 881 681 881 619 q 849 794 881 744 q 762 874 817 844 q 638 903 707 903 l 285 903 l 285 465 m 361 -201 l 361 -135 l 742 -135 l 742 -201 l 361 -201 z "},"S":{"ha":1065,"x_min":136,"x_max":935,"o":"m 540 -14 q 385 6 460 -14 q 248 67 311 26 q 136 169 185 108 l 181 225 q 346 95 254 135 q 540 56 438 56 q 707 82 635 56 q 822 156 779 108 q 863 265 864 204 q 842 339 863 310 q 788 388 821 368 q 712 420 754 407 q 624 442 669 433 q 539 460 579 451 q 402 492 467 475 q 288 535 338 508 q 210 605 238 563 q 182 714 182 647 q 208 826 182 776 q 284 910 235 875 q 398 962 333 944 q 539 979 463 979 q 690 958 624 979 q 808 899 756 938 q 901 806 860 860 l 853 754 q 767 837 815 801 q 663 891 719 872 q 539 910 607 910 q 394 886 458 910 q 292 819 331 863 q 254 718 254 776 q 278 639 254 671 q 347 587 303 607 q 449 553 390 567 q 578 525 507 540 q 708 499 644 515 q 823 454 771 482 q 905 382 875 426 q 935 264 935 338 q 886 122 935 185 q 749 22 838 58 q 540 -14 660 -14 z "},"Ś":{"ha":1065,"x_min":136,"x_max":935,"o":"m 540 -14 q 385 6 460 -14 q 248 67 311 26 q 136 169 185 108 l 181 225 q 346 95 254 135 q 540 56 438 56 q 707 82 635 56 q 822 156 779 108 q 863 265 864 204 q 842 339 863 310 q 788 388 821 368 q 712 420 754 407 q 624 442 669 433 q 539 460 579 451 q 402 492 467 475 q 288 535 338 508 q 210 605 238 563 q 182 714 182 647 q 208 826 182 776 q 284 910 235 875 q 398 962 333 944 q 539 979 463 979 q 690 958 624 979 q 808 899 756 938 q 901 806 860 860 l 853 754 q 767 837 815 801 q 663 891 719 872 q 539 910 607 910 q 394 886 458 910 q 292 819 331 863 q 254 718 254 776 q 278 639 254 671 q 347 587 303 607 q 449 553 390 567 q 578 525 507 540 q 708 499 644 515 q 823 454 771 482 q 905 382 875 426 q 935 264 935 338 q 886 122 935 185 q 749 22 838 58 q 540 -14 660 -14 m 463 1054 l 438 1100 l 649 1236 l 696 1164 l 463 1054 z "},"Ṥ":{"ha":1065,"x_min":136,"x_max":935,"o":"m 540 -14 q 385 6 460 -14 q 248 67 311 26 q 136 169 185 108 l 181 225 q 346 95 254 135 q 540 56 438 56 q 707 82 635 56 q 822 156 779 108 q 863 265 864 204 q 842 339 863 310 q 788 388 821 368 q 712 420 754 407 q 624 442 669 433 q 539 460 579 451 q 402 492 467 475 q 288 535 338 508 q 210 605 238 563 q 182 714 182 647 q 208 826 182 776 q 284 910 235 875 q 398 962 333 944 q 539 979 463 979 q 690 958 624 979 q 808 899 756 938 q 901 806 860 860 l 853 754 q 767 837 815 801 q 663 891 719 872 q 539 910 607 910 q 394 886 458 910 q 292 819 331 863 q 254 718 254 776 q 278 639 254 671 q 347 587 303 607 q 449 553 390 567 q 578 525 507 540 q 708 499 644 515 q 823 454 771 482 q 905 382 875 426 q 935 264 935 338 q 886 122 935 185 q 749 22 838 58 q 540 -14 660 -14 m 603 1051 l 560 1079 l 668 1254 l 731 1211 l 603 1051 m 449 1056 q 401 1072 418 1056 q 385 1118 385 1089 q 401 1163 385 1146 q 449 1181 418 1181 q 496 1164 479 1181 q 513 1118 513 1147 q 496 1073 513 1090 q 449 1056 479 1056 z "},"Š":{"ha":1065,"x_min":136,"x_max":935,"o":"m 540 -14 q 385 6 460 -14 q 248 67 311 26 q 136 169 185 108 l 181 225 q 346 95 254 135 q 540 56 438 56 q 707 82 635 56 q 822 156 779 108 q 863 265 864 204 q 842 339 863 310 q 788 388 821 368 q 712 420 754 407 q 624 442 669 433 q 539 460 579 451 q 402 492 467 475 q 288 535 338 508 q 210 605 238 563 q 182 714 182 647 q 208 826 182 776 q 284 910 235 875 q 398 962 333 944 q 539 979 463 979 q 690 958 624 979 q 808 899 756 938 q 901 806 860 860 l 853 754 q 767 837 815 801 q 663 891 719 872 q 539 910 607 910 q 394 886 458 910 q 292 819 331 863 q 254 718 254 776 q 278 639 254 671 q 347 587 303 607 q 449 553 390 567 q 578 525 507 540 q 708 499 644 515 q 823 454 771 482 q 905 382 875 426 q 935 264 935 338 q 886 122 935 185 q 749 22 838 58 q 540 -14 660 -14 m 508 1064 l 357 1190 l 396 1225 l 572 1104 l 531 1104 l 707 1225 l 746 1190 l 594 1064 l 508 1064 z "},"Ṧ":{"ha":1065,"x_min":136,"x_max":935,"o":"m 540 -14 q 385 6 460 -14 q 248 67 311 26 q 136 169 185 108 l 181 225 q 346 95 254 135 q 540 56 438 56 q 707 82 635 56 q 822 156 779 108 q 863 265 864 204 q 842 339 863 310 q 788 388 821 368 q 712 420 754 407 q 624 442 669 433 q 539 460 579 451 q 402 492 467 475 q 288 535 338 508 q 210 605 238 563 q 182 714 182 647 q 208 826 182 776 q 284 910 235 875 q 398 962 333 944 q 539 979 463 979 q 690 958 624 979 q 808 899 756 938 q 901 806 860 860 l 853 754 q 767 837 815 801 q 663 891 719 872 q 539 910 607 910 q 394 886 458 910 q 292 819 331 863 q 254 718 254 776 q 278 639 254 671 q 347 587 303 607 q 449 553 390 567 q 578 525 507 540 q 708 499 644 515 q 823 454 771 482 q 905 382 875 426 q 935 264 935 338 q 886 122 935 185 q 749 22 838 58 q 540 -14 660 -14 m 508 1064 l 357 1190 l 396 1225 l 572 1104 l 531 1104 l 707 1225 l 746 1190 l 594 1064 l 508 1064 m 551 1269 q 504 1286 521 1269 q 488 1332 488 1303 q 504 1377 488 1360 q 551 1394 521 1394 q 599 1378 582 1394 q 615 1332 615 1361 q 599 1287 615 1304 q 551 1269 582 1269 z "},"Ş":{"ha":1065,"x_min":136,"x_max":935,"o":"m 540 -14 q 385 6 460 -14 q 248 67 311 26 q 136 169 185 108 l 181 225 q 346 95 254 135 q 540 56 438 56 q 707 82 635 56 q 822 156 779 108 q 863 265 864 204 q 842 339 863 310 q 788 388 821 368 q 712 420 754 407 q 624 442 669 433 q 539 460 579 451 q 402 492 467 475 q 288 535 338 508 q 210 605 238 563 q 182 714 182 647 q 208 826 182 776 q 284 910 235 875 q 398 962 333 944 q 539 979 463 979 q 690 958 624 979 q 808 899 756 938 q 901 806 860 860 l 853 754 q 767 837 815 801 q 663 891 719 872 q 539 910 607 910 q 394 886 458 910 q 292 819 331 863 q 254 718 254 776 q 278 639 254 671 q 347 587 303 607 q 449 553 390 567 q 578 525 507 540 q 708 499 644 515 q 823 454 771 482 q 905 382 875 426 q 935 264 935 338 q 886 122 935 185 q 749 22 838 58 q 540 -14 660 -14 m 463 -319 l 451 -274 q 535 -262 497 -269 q 597 -239 574 -256 q 619 -199 619 -222 q 601 -161 619 -176 q 551 -140 582 -146 q 488 -133 521 -133 l 472 -111 l 554 8 l 615 8 l 553 -82 q 647 -117 610 -92 q 685 -187 685 -143 q 664 -252 685 -226 q 610 -293 643 -278 q 538 -315 576 -308 q 463 -319 499 -321 z "},"Ŝ":{"ha":1065,"x_min":136,"x_max":935,"o":"m 540 -14 q 385 6 460 -14 q 248 67 311 26 q 136 169 185 108 l 181 225 q 346 95 254 135 q 540 56 438 56 q 707 82 635 56 q 822 156 779 108 q 863 265 864 204 q 842 339 863 310 q 788 388 821 368 q 712 420 754 407 q 624 442 669 433 q 539 460 579 451 q 402 492 467 475 q 288 535 338 508 q 210 605 238 563 q 182 714 182 647 q 208 826 182 776 q 284 910 235 875 q 398 962 333 944 q 539 979 463 979 q 690 958 624 979 q 808 899 756 938 q 901 806 860 860 l 853 754 q 767 837 815 801 q 663 891 719 872 q 539 910 607 910 q 394 886 458 910 q 292 819 331 863 q 254 718 254 776 q 278 639 254 671 q 347 587 303 607 q 449 553 390 567 q 578 525 507 540 q 708 499 644 515 q 823 454 771 482 q 905 382 875 426 q 935 264 935 338 q 886 122 935 185 q 749 22 838 58 q 540 -14 660 -14 m 382 1063 l 343 1097 l 508 1224 l 594 1224 l 760 1097 l 721 1063 l 531 1181 l 572 1181 l 382 1063 z "},"Ș":{"ha":1065,"x_min":136,"x_max":935,"o":"m 540 -14 q 385 6 460 -14 q 248 67 311 26 q 136 169 185 108 l 181 225 q 346 95 254 135 q 540 56 438 56 q 707 82 635 56 q 822 156 779 108 q 863 265 864 204 q 842 339 863 310 q 788 388 821 368 q 712 420 754 407 q 624 442 669 433 q 539 460 579 451 q 402 492 467 475 q 288 535 338 508 q 210 605 238 563 q 182 714 182 647 q 208 826 182 776 q 284 910 235 875 q 398 962 333 944 q 539 979 463 979 q 690 958 624 979 q 808 899 756 938 q 901 806 860 860 l 853 754 q 767 837 815 801 q 663 891 719 872 q 539 910 607 910 q 394 886 458 910 q 292 819 331 863 q 254 718 254 776 q 278 639 254 671 q 347 587 303 607 q 449 553 390 567 q 578 525 507 540 q 708 499 644 515 q 823 454 771 482 q 905 382 875 426 q 935 264 935 338 q 886 122 935 185 q 749 22 838 58 q 540 -14 660 -14 m 539 -318 l 510 -285 q 547 -260 532 -271 q 568 -238 561 -249 q 575 -217 575 -228 q 565 -196 575 -201 q 544 -185 556 -190 q 523 -167 532 -179 q 514 -139 514 -156 q 528 -106 514 -119 q 564 -93 543 -93 q 624 -115 601 -93 q 646 -178 646 -137 q 638 -222 646 -201 q 616 -258 631 -242 q 582 -288 601 -274 q 539 -318 563 -303 z "},"Ṡ":{"ha":1065,"x_min":136,"x_max":935,"o":"m 540 -14 q 385 6 460 -14 q 248 67 311 26 q 136 169 185 108 l 181 225 q 346 95 254 135 q 540 56 438 56 q 707 82 635 56 q 822 156 779 108 q 863 265 864 204 q 842 339 863 310 q 788 388 821 368 q 712 420 754 407 q 624 442 669 433 q 539 460 579 451 q 402 492 467 475 q 288 535 338 508 q 210 605 238 563 q 182 714 182 647 q 208 826 182 776 q 284 910 235 875 q 398 962 333 944 q 539 979 463 979 q 690 958 624 979 q 808 899 756 938 q 901 806 860 860 l 853 754 q 767 837 815 801 q 663 891 719 872 q 539 910 607 910 q 394 886 458 910 q 292 819 331 863 q 254 718 254 776 q 278 639 254 671 q 347 587 303 607 q 449 553 390 567 q 578 525 507 540 q 708 499 644 515 q 823 454 771 482 q 905 382 875 426 q 935 264 935 338 q 886 122 935 185 q 749 22 838 58 q 540 -14 660 -14 m 551 1082 q 504 1099 521 1082 q 488 1144 488 1115 q 504 1190 488 1172 q 551 1207 521 1207 q 599 1190 582 1207 q 615 1144 615 1174 q 599 1099 615 1117 q 551 1082 582 1082 z "},"Ṣ":{"ha":1065,"x_min":136,"x_max":935,"o":"m 540 -14 q 385 6 460 -14 q 248 67 311 26 q 136 169 185 108 l 181 225 q 346 95 254 135 q 540 56 438 56 q 707 82 635 56 q 822 156 779 108 q 863 265 864 204 q 842 339 863 310 q 788 388 821 368 q 712 420 754 407 q 624 442 669 433 q 539 460 579 451 q 402 492 467 475 q 288 535 338 508 q 210 605 238 563 q 182 714 182 647 q 208 826 182 776 q 284 910 235 875 q 398 962 333 944 q 539 979 463 979 q 690 958 624 979 q 808 899 756 938 q 901 806 860 860 l 853 754 q 767 837 815 801 q 663 891 719 872 q 539 910 607 910 q 394 886 458 910 q 292 819 331 863 q 254 718 254 776 q 278 639 254 671 q 347 587 303 607 q 449 553 390 567 q 578 525 507 540 q 708 499 644 515 q 823 454 771 482 q 905 382 875 426 q 935 264 935 338 q 886 122 935 185 q 749 22 838 58 q 540 -14 660 -14 m 579 -231 q 531 -213 547 -231 q 515 -168 515 -196 q 531 -124 515 -143 q 579 -106 546 -106 q 627 -123 611 -106 q 643 -168 643 -140 q 628 -212 643 -193 q 579 -231 613 -231 z "},"Ṩ":{"ha":1065,"x_min":136,"x_max":935,"o":"m 540 -14 q 385 6 460 -14 q 248 67 311 26 q 136 169 185 108 l 181 225 q 346 95 254 135 q 540 56 438 56 q 707 82 635 56 q 822 156 779 108 q 863 265 864 204 q 842 339 863 310 q 788 388 821 368 q 712 420 754 407 q 624 442 669 433 q 539 460 579 451 q 402 492 467 475 q 288 535 338 508 q 210 605 238 563 q 182 714 182 647 q 208 826 182 776 q 284 910 235 875 q 398 962 333 944 q 539 979 463 979 q 690 958 624 979 q 808 899 756 938 q 901 806 860 860 l 853 754 q 767 837 815 801 q 663 891 719 872 q 539 910 607 910 q 394 886 458 910 q 292 819 331 863 q 254 718 254 776 q 278 639 254 671 q 347 587 303 607 q 449 553 390 567 q 578 525 507 540 q 708 499 644 515 q 823 454 771 482 q 905 382 875 426 q 935 264 935 338 q 886 122 935 185 q 749 22 838 58 q 540 -14 660 -14 m 579 -231 q 531 -213 547 -231 q 515 -168 515 -196 q 531 -124 515 -143 q 579 -106 546 -106 q 627 -123 611 -106 q 643 -168 643 -140 q 628 -212 643 -193 q 579 -231 613 -231 m 551 1082 q 504 1099 521 1082 q 488 1144 488 1115 q 504 1190 488 1172 q 551 1207 521 1207 q 599 1190 582 1207 q 615 1144 615 1174 q 599 1099 615 1117 q 551 1082 582 1082 z "},"ẞ":{"ha":1293,"x_min":215,"x_max":1163,"o":"m 844 -14 q 719 1 779 -14 q 606 43 658 15 q 513 108 554 71 l 558 168 q 692 84 619 113 q 844 56 765 56 q 1023 108 956 56 q 1090 251 1090 160 q 1058 348 1090 310 q 965 417 1025 386 q 822 482 904 449 q 735 528 774 499 q 674 597 696 557 q 651 683 651 636 q 675 767 651 729 q 740 833 699 806 q 840 878 782 861 q 968 899 897 894 l 969 865 q 849 903 906 894 q 719 911 793 911 q 539 882 621 910 q 401 797 457 854 q 316 656 346 740 q 285 457 286 572 l 285 0 l 215 0 l 215 456 q 273 749 215 632 q 446 922 331 865 q 731 979 561 979 q 877 965 806 979 q 1044 917 949 951 l 1053 856 q 869 819 942 840 q 762 765 797 797 q 726 682 726 732 q 742 626 726 651 q 792 578 757 600 q 883 535 826 556 q 1028 465 965 503 q 1127 376 1092 428 q 1163 246 1163 324 q 1122 110 1163 169 q 1010 19 1082 51 q 844 -14 939 -14 z "},"Ə":{"ha":1232,"x_min":132,"x_max":1100,"o":"m 607 -14 q 424 22 510 -14 q 272 123 338 58 q 169 276 206 188 q 132 472 132 365 l 132 519 l 1054 519 l 1054 450 l 207 450 q 241 297 208 368 q 329 172 274 225 q 456 87 385 118 q 608 56 528 56 q 767 88 692 56 q 900 180 843 121 q 992 316 957 239 q 1026 485 1026 393 q 992 658 1026 581 q 897 792 957 736 q 759 879 838 849 q 593 910 681 910 q 474 895 531 910 q 367 851 417 881 q 276 781 317 822 l 228 829 q 331 911 274 878 q 454 962 388 944 q 594 979 521 979 q 793 942 701 979 q 955 838 885 904 q 1063 681 1025 772 q 1100 481 1100 589 q 1063 287 1100 376 q 957 130 1025 197 q 799 24 889 63 q 607 -14 710 -14 z "},"T":{"ha":928,"x_min":85,"x_max":843,"o":"m 425 0 l 425 903 l 85 903 l 85 972 l 843 972 l 843 903 l 494 903 l 494 0 l 425 0 z "},"Ŧ":{"ha":928,"x_min":85,"x_max":843,"o":"m 224 458 l 224 517 l 706 517 l 706 458 l 224 458 m 425 0 l 425 903 l 85 903 l 85 972 l 843 972 l 843 903 l 494 903 l 494 0 l 425 0 z "},"Ť":{"ha":928,"x_min":85,"x_max":843,"o":"m 425 0 l 425 903 l 85 903 l 85 972 l 843 972 l 843 903 l 494 903 l 494 0 l 425 0 m 422 1064 l 271 1190 l 310 1225 l 486 1104 l 444 1104 l 621 1225 l 660 1190 l 508 1064 l 422 1064 z "},"Ţ":{"ha":928,"x_min":85,"x_max":843,"o":"m 425 0 l 425 903 l 85 903 l 85 972 l 843 972 l 843 903 l 494 903 l 494 0 l 425 0 m 342 -319 l 331 -274 q 415 -262 376 -269 q 476 -239 453 -256 q 499 -199 499 -222 q 480 -161 499 -176 q 431 -140 461 -146 q 367 -133 400 -133 l 351 -111 l 433 8 l 494 8 l 432 -82 q 526 -117 489 -92 q 564 -187 564 -143 q 543 -252 564 -226 q 489 -293 522 -278 q 417 -315 456 -308 q 342 -319 378 -321 z "},"Ț":{"ha":928,"x_min":85,"x_max":843,"o":"m 425 0 l 425 903 l 85 903 l 85 972 l 843 972 l 843 903 l 494 903 l 494 0 l 425 0 m 419 -318 l 390 -285 q 427 -260 413 -271 q 449 -238 442 -249 q 456 -217 456 -228 q 446 -196 456 -201 q 425 -185 436 -190 q 403 -167 413 -179 q 394 -139 394 -156 q 409 -106 394 -119 q 444 -93 424 -93 q 504 -115 482 -93 q 526 -178 526 -137 q 519 -222 526 -201 q 497 -258 511 -242 q 463 -288 482 -274 q 419 -318 443 -303 z "},"Ṭ":{"ha":928,"x_min":85,"x_max":843,"o":"m 425 0 l 425 903 l 85 903 l 85 972 l 843 972 l 843 903 l 494 903 l 494 0 l 425 0 m 458 -231 q 410 -213 426 -231 q 394 -168 394 -196 q 410 -124 394 -143 q 458 -106 425 -106 q 506 -123 490 -106 q 522 -168 522 -140 q 507 -212 522 -193 q 458 -231 492 -231 z "},"Ṯ":{"ha":928,"x_min":85,"x_max":843,"o":"m 425 0 l 425 903 l 85 903 l 85 972 l 843 972 l 843 903 l 494 903 l 494 0 l 425 0 m 268 -201 l 268 -135 l 649 -135 l 649 -201 l 268 -201 z "},"U":{"ha":1282,"x_min":214,"x_max":1068,"o":"m 638 -10 q 415 46 511 -10 q 267 201 319 101 q 214 425 214 300 l 214 972 l 283 972 l 283 432 q 329 238 283 322 q 456 108 375 154 q 638 61 536 61 q 826 108 744 61 q 954 238 908 154 q 1000 432 1000 322 l 1000 972 l 1068 972 l 1068 424 q 1015 200 1068 299 q 864 46 961 101 q 638 -10 767 -10 z "},"Ú":{"ha":1282,"x_min":214,"x_max":1068,"o":"m 638 -10 q 415 46 511 -10 q 267 201 319 101 q 214 425 214 300 l 214 972 l 283 972 l 283 432 q 329 238 283 322 q 456 108 375 154 q 638 61 536 61 q 826 108 744 61 q 954 238 908 154 q 1000 432 1000 322 l 1000 972 l 1068 972 l 1068 424 q 1015 200 1068 299 q 864 46 961 101 q 638 -10 767 -10 m 553 1054 l 528 1100 l 739 1236 l 786 1164 l 553 1054 z "},"Ŭ":{"ha":1282,"x_min":214,"x_max":1068,"o":"m 638 -10 q 415 46 511 -10 q 267 201 319 101 q 214 425 214 300 l 214 972 l 283 972 l 283 432 q 329 238 283 322 q 456 108 375 154 q 638 61 536 61 q 826 108 744 61 q 954 238 908 154 q 1000 432 1000 322 l 1000 972 l 1068 972 l 1068 424 q 1015 200 1068 299 q 864 46 961 101 q 638 -10 767 -10 m 642 1057 q 551 1078 592 1057 q 483 1137 511 1099 q 444 1226 456 1175 l 504 1233 q 556 1140 518 1167 q 642 1114 594 1114 q 727 1140 689 1114 q 779 1233 765 1167 l 839 1226 q 800 1137 828 1175 q 732 1078 772 1099 q 642 1057 692 1057 z "},"Ǔ":{"ha":1282,"x_min":214,"x_max":1068,"o":"m 638 -10 q 415 46 511 -10 q 267 201 319 101 q 214 425 214 300 l 214 972 l 283 972 l 283 432 q 329 238 283 322 q 456 108 375 154 q 638 61 536 61 q 826 108 744 61 q 954 238 908 154 q 1000 432 1000 322 l 1000 972 l 1068 972 l 1068 424 q 1015 200 1068 299 q 864 46 961 101 q 638 -10 767 -10 m 599 1064 l 447 1190 l 486 1225 l 663 1104 l 621 1104 l 797 1225 l 836 1190 l 685 1064 l 599 1064 z "},"Û":{"ha":1282,"x_min":214,"x_max":1068,"o":"m 638 -10 q 415 46 511 -10 q 267 201 319 101 q 214 425 214 300 l 214 972 l 283 972 l 283 432 q 329 238 283 322 q 456 108 375 154 q 638 61 536 61 q 826 108 744 61 q 954 238 908 154 q 1000 432 1000 322 l 1000 972 l 1068 972 l 1068 424 q 1015 200 1068 299 q 864 46 961 101 q 638 -10 767 -10 m 472 1063 l 433 1097 l 599 1224 l 685 1224 l 850 1097 l 811 1063 l 621 1181 l 663 1181 l 472 1063 z "},"Ȕ":{"ha":1282,"x_min":214,"x_max":1068,"o":"m 638 -10 q 415 46 511 -10 q 267 201 319 101 q 214 425 214 300 l 214 972 l 283 972 l 283 432 q 329 238 283 322 q 456 108 375 154 q 638 61 536 61 q 826 108 744 61 q 954 238 908 154 q 1000 432 1000 322 l 1000 972 l 1068 972 l 1068 424 q 1015 200 1068 299 q 864 46 961 101 q 638 -10 767 -10 m 760 1040 l 546 1181 l 599 1249 l 793 1086 l 760 1040 m 546 1040 l 332 1181 l 385 1249 l 579 1086 l 546 1040 z "},"Ü":{"ha":1282,"x_min":214,"x_max":1068,"o":"m 638 -10 q 415 46 511 -10 q 267 201 319 101 q 214 425 214 300 l 214 972 l 283 972 l 283 432 q 329 238 283 322 q 456 108 375 154 q 638 61 536 61 q 826 108 744 61 q 954 238 908 154 q 1000 432 1000 322 l 1000 972 l 1068 972 l 1068 424 q 1015 200 1068 299 q 864 46 961 101 q 638 -10 767 -10 m 781 1082 q 733 1099 750 1082 q 717 1144 717 1115 q 733 1190 717 1172 q 781 1207 750 1207 q 828 1190 811 1207 q 844 1144 844 1174 q 828 1099 844 1117 q 781 1082 811 1082 m 503 1082 q 456 1099 472 1082 q 439 1144 439 1115 q 456 1190 439 1172 q 503 1207 472 1207 q 550 1190 533 1207 q 567 1144 567 1174 q 550 1099 567 1117 q 503 1082 533 1082 z "},"Ụ":{"ha":1282,"x_min":214,"x_max":1068,"o":"m 638 -10 q 415 46 511 -10 q 267 201 319 101 q 214 425 214 300 l 214 972 l 283 972 l 283 432 q 329 238 283 322 q 456 108 375 154 q 638 61 536 61 q 826 108 744 61 q 954 238 908 154 q 1000 432 1000 322 l 1000 972 l 1068 972 l 1068 424 q 1015 200 1068 299 q 864 46 961 101 q 638 -10 767 -10 m 642 -231 q 594 -213 610 -231 q 578 -168 578 -196 q 593 -124 578 -143 q 642 -106 608 -106 q 690 -123 674 -106 q 706 -168 706 -140 q 690 -212 706 -193 q 642 -231 675 -231 z "},"Ù":{"ha":1282,"x_min":214,"x_max":1068,"o":"m 638 -10 q 415 46 511 -10 q 267 201 319 101 q 214 425 214 300 l 214 972 l 283 972 l 283 432 q 329 238 283 322 q 456 108 375 154 q 638 61 536 61 q 826 108 744 61 q 954 238 908 154 q 1000 432 1000 322 l 1000 972 l 1068 972 l 1068 424 q 1015 200 1068 299 q 864 46 961 101 q 638 -10 767 -10 m 733 1054 l 500 1164 l 547 1236 l 758 1100 l 733 1054 z "},"Ủ":{"ha":1282,"x_min":214,"x_max":1068,"o":"m 638 -10 q 415 46 511 -10 q 267 201 319 101 q 214 425 214 300 l 214 972 l 283 972 l 283 432 q 329 238 283 322 q 456 108 375 154 q 638 61 536 61 q 826 108 744 61 q 954 238 908 154 q 1000 432 1000 322 l 1000 972 l 1068 972 l 1068 424 q 1015 200 1068 299 q 864 46 961 101 q 638 -10 767 -10 m 628 1067 q 621 1084 624 1074 q 618 1103 618 1094 q 624 1126 618 1113 q 651 1153 631 1139 q 688 1179 674 1168 q 701 1203 701 1190 q 681 1229 701 1221 q 633 1238 661 1238 q 587 1232 613 1238 q 533 1215 561 1226 l 515 1267 q 581 1288 546 1281 q 644 1296 615 1296 q 737 1269 706 1296 q 768 1208 768 1242 q 751 1162 768 1178 q 714 1133 733 1146 q 689 1115 700 1124 q 678 1092 678 1107 q 678 1088 678 1090 q 679 1079 678 1085 l 628 1067 z "},"Ư":{"ha":1246,"x_min":214,"x_max":1228,"o":"m 638 -10 q 415 46 511 -10 q 267 201 319 101 q 214 425 214 300 l 214 972 l 283 972 l 283 432 q 329 238 283 322 q 456 108 375 154 q 638 61 536 61 q 826 108 744 61 q 954 238 908 154 q 1000 432 1000 322 l 1000 972 l 1008 972 q 1124 1012 1088 972 q 1161 1125 1161 1051 l 1228 1125 q 1202 1021 1228 1064 q 1130 953 1176 978 q 1019 926 1083 929 l 1068 963 l 1068 424 q 1015 200 1068 299 q 864 46 961 101 q 638 -10 767 -10 z "},"Ứ":{"ha":1246,"x_min":214,"x_max":1228,"o":"m 638 -10 q 415 46 511 -10 q 267 201 319 101 q 214 425 214 300 l 214 972 l 283 972 l 283 432 q 329 238 283 322 q 456 108 375 154 q 638 61 536 61 q 826 108 744 61 q 954 238 908 154 q 1000 432 1000 322 l 1000 972 l 1008 972 q 1124 1012 1088 972 q 1161 1125 1161 1051 l 1228 1125 q 1202 1021 1228 1064 q 1130 953 1176 978 q 1019 926 1083 929 l 1068 963 l 1068 424 q 1015 200 1068 299 q 864 46 961 101 q 638 -10 767 -10 m 553 1054 l 528 1100 l 739 1236 l 786 1164 l 553 1054 z "},"Ự":{"ha":1246,"x_min":214,"x_max":1228,"o":"m 638 -10 q 415 46 511 -10 q 267 201 319 101 q 214 425 214 300 l 214 972 l 283 972 l 283 432 q 329 238 283 322 q 456 108 375 154 q 638 61 536 61 q 826 108 744 61 q 954 238 908 154 q 1000 432 1000 322 l 1000 972 l 1008 972 q 1124 1012 1088 972 q 1161 1125 1161 1051 l 1228 1125 q 1202 1021 1228 1064 q 1130 953 1176 978 q 1019 926 1083 929 l 1068 963 l 1068 424 q 1015 200 1068 299 q 864 46 961 101 q 638 -10 767 -10 m 642 -231 q 594 -213 610 -231 q 578 -168 578 -196 q 593 -124 578 -143 q 642 -106 608 -106 q 690 -123 674 -106 q 706 -168 706 -140 q 690 -212 706 -193 q 642 -231 675 -231 z "},"Ừ":{"ha":1246,"x_min":214,"x_max":1228,"o":"m 638 -10 q 415 46 511 -10 q 267 201 319 101 q 214 425 214 300 l 214 972 l 283 972 l 283 432 q 329 238 283 322 q 456 108 375 154 q 638 61 536 61 q 826 108 744 61 q 954 238 908 154 q 1000 432 1000 322 l 1000 972 l 1008 972 q 1124 1012 1088 972 q 1161 1125 1161 1051 l 1228 1125 q 1202 1021 1228 1064 q 1130 953 1176 978 q 1019 926 1083 929 l 1068 963 l 1068 424 q 1015 200 1068 299 q 864 46 961 101 q 638 -10 767 -10 m 733 1054 l 500 1164 l 547 1236 l 758 1100 l 733 1054 z "},"Ử":{"ha":1246,"x_min":214,"x_max":1228,"o":"m 638 -10 q 415 46 511 -10 q 267 201 319 101 q 214 425 214 300 l 214 972 l 283 972 l 283 432 q 329 238 283 322 q 456 108 375 154 q 638 61 536 61 q 826 108 744 61 q 954 238 908 154 q 1000 432 1000 322 l 1000 972 l 1008 972 q 1124 1012 1088 972 q 1161 1125 1161 1051 l 1228 1125 q 1202 1021 1228 1064 q 1130 953 1176 978 q 1019 926 1083 929 l 1068 963 l 1068 424 q 1015 200 1068 299 q 864 46 961 101 q 638 -10 767 -10 m 628 1067 q 621 1084 624 1074 q 618 1103 618 1094 q 624 1126 618 1113 q 651 1153 631 1139 q 688 1179 674 1168 q 701 1203 701 1190 q 681 1229 701 1221 q 633 1238 661 1238 q 587 1232 613 1238 q 533 1215 561 1226 l 515 1267 q 581 1288 546 1281 q 644 1296 615 1296 q 737 1269 706 1296 q 768 1208 768 1242 q 751 1162 768 1178 q 714 1133 733 1146 q 689 1115 700 1124 q 678 1092 678 1107 q 678 1088 678 1090 q 679 1079 678 1085 l 628 1067 z "},"Ữ":{"ha":1246,"x_min":214,"x_max":1228,"o":"m 638 -10 q 415 46 511 -10 q 267 201 319 101 q 214 425 214 300 l 214 972 l 283 972 l 283 432 q 329 238 283 322 q 456 108 375 154 q 638 61 536 61 q 826 108 744 61 q 954 238 908 154 q 1000 432 1000 322 l 1000 972 l 1008 972 q 1124 1012 1088 972 q 1161 1125 1161 1051 l 1228 1125 q 1202 1021 1228 1064 q 1130 953 1176 978 q 1019 926 1083 929 l 1068 963 l 1068 424 q 1015 200 1068 299 q 864 46 961 101 q 638 -10 767 -10 m 739 1082 q 679 1094 708 1082 q 618 1119 650 1106 q 584 1135 601 1126 q 551 1143 567 1143 q 515 1128 531 1143 q 500 1083 500 1113 l 436 1083 q 468 1174 436 1140 q 546 1207 500 1207 q 605 1196 576 1207 q 667 1169 633 1185 q 700 1154 682 1163 q 733 1146 718 1146 q 769 1160 754 1146 q 785 1206 785 1175 l 849 1206 q 834 1140 849 1168 q 794 1097 819 1113 q 739 1082 769 1082 z "},"Ű":{"ha":1282,"x_min":214,"x_max":1068,"o":"m 638 -10 q 415 46 511 -10 q 267 201 319 101 q 214 425 214 300 l 214 972 l 283 972 l 283 432 q 329 238 283 322 q 456 108 375 154 q 638 61 536 61 q 826 108 744 61 q 954 238 908 154 q 1000 432 1000 322 l 1000 972 l 1068 972 l 1068 424 q 1015 200 1068 299 q 864 46 961 101 q 638 -10 767 -10 m 533 1051 l 508 1097 l 718 1239 l 758 1172 l 533 1051 m 742 1051 l 717 1097 l 926 1239 l 967 1172 l 742 1051 z "},"Ȗ":{"ha":1282,"x_min":214,"x_max":1068,"o":"m 638 -10 q 415 46 511 -10 q 267 201 319 101 q 214 425 214 300 l 214 972 l 283 972 l 283 432 q 329 238 283 322 q 456 108 375 154 q 638 61 536 61 q 826 108 744 61 q 954 238 908 154 q 1000 432 1000 322 l 1000 972 l 1068 972 l 1068 424 q 1015 200 1068 299 q 864 46 961 101 q 638 -10 767 -10 m 504 1057 l 444 1064 q 483 1154 456 1117 q 551 1213 511 1192 q 642 1233 592 1233 q 732 1213 692 1233 q 800 1154 772 1192 q 839 1064 828 1117 l 779 1057 q 727 1150 765 1124 q 642 1176 689 1176 q 556 1150 594 1176 q 504 1057 518 1124 z "},"Ū":{"ha":1282,"x_min":214,"x_max":1068,"o":"m 638 -10 q 415 46 511 -10 q 267 201 319 101 q 214 425 214 300 l 214 972 l 283 972 l 283 432 q 329 238 283 322 q 456 108 375 154 q 638 61 536 61 q 826 108 744 61 q 954 238 908 154 q 1000 432 1000 322 l 1000 972 l 1068 972 l 1068 424 q 1015 200 1068 299 q 864 46 961 101 q 638 -10 767 -10 m 444 1113 l 444 1176 l 839 1176 l 839 1113 l 444 1113 z "},"Ṻ":{"ha":1282,"x_min":214,"x_max":1068,"o":"m 638 -10 q 415 46 511 -10 q 267 201 319 101 q 214 425 214 300 l 214 972 l 283 972 l 283 432 q 329 238 283 322 q 456 108 375 154 q 638 61 536 61 q 826 108 744 61 q 954 238 908 154 q 1000 432 1000 322 l 1000 972 l 1068 972 l 1068 424 q 1015 200 1068 299 q 864 46 961 101 q 638 -10 767 -10 m 444 1113 l 444 1176 l 839 1176 l 839 1113 l 444 1113 m 781 1269 q 733 1286 750 1269 q 717 1332 717 1303 q 733 1377 717 1360 q 781 1394 750 1394 q 828 1378 811 1394 q 844 1332 844 1361 q 828 1287 844 1304 q 781 1269 811 1269 m 503 1269 q 456 1286 472 1269 q 439 1332 439 1303 q 456 1377 439 1360 q 503 1394 472 1394 q 550 1378 533 1394 q 567 1332 567 1361 q 550 1287 567 1304 q 503 1269 533 1269 z "},"Ų":{"ha":1282,"x_min":214,"x_max":1068,"o":"m 790 -307 q 676 -265 722 -307 q 631 -157 631 -222 q 649 -77 631 -112 q 702 -10 668 -42 q 781 52 736 22 q 878 113 825 82 l 910 79 q 827 27 865 54 q 759 -27 789 0 q 713 -85 729 -54 q 697 -150 697 -115 q 725 -222 697 -196 q 793 -247 753 -247 q 848 -235 824 -247 q 889 -203 872 -222 l 935 -236 q 872 -288 906 -269 q 790 -307 839 -307 m 638 -10 q 415 46 511 -10 q 267 200 319 101 q 214 425 214 299 l 214 972 l 283 972 l 283 432 q 329 238 283 322 q 456 108 375 154 q 638 61 536 61 q 826 108 744 61 q 954 238 908 154 q 1000 432 1000 322 l 1000 972 l 1068 972 l 1068 424 q 1015 199 1068 297 q 864 46 961 101 q 638 -10 767 -10 z "},"Ů":{"ha":1282,"x_min":214,"x_max":1068,"o":"m 638 -10 q 415 46 511 -10 q 267 201 319 101 q 214 425 214 300 l 214 972 l 283 972 l 283 432 q 329 238 283 322 q 456 108 375 154 q 638 61 536 61 q 826 108 744 61 q 954 238 908 154 q 1000 432 1000 322 l 1000 972 l 1068 972 l 1068 424 q 1015 200 1068 299 q 864 46 961 101 q 638 -10 767 -10 m 640 1017 q 565 1037 600 1017 q 510 1090 531 1057 q 489 1163 489 1124 q 510 1236 489 1203 q 565 1290 531 1269 q 640 1310 600 1310 q 715 1290 681 1310 q 772 1236 750 1269 q 793 1163 793 1203 q 772 1090 793 1124 q 715 1037 750 1057 q 640 1017 681 1017 m 640 1071 q 709 1098 681 1071 q 738 1163 738 1125 q 709 1230 738 1204 q 640 1256 681 1256 q 572 1229 599 1256 q 544 1163 544 1203 q 573 1098 544 1125 q 640 1071 601 1071 z "},"Ũ":{"ha":1282,"x_min":214,"x_max":1068,"o":"m 638 -10 q 415 46 511 -10 q 267 201 319 101 q 214 425 214 300 l 214 972 l 283 972 l 283 432 q 329 238 283 322 q 456 108 375 154 q 638 61 536 61 q 826 108 744 61 q 954 238 908 154 q 1000 432 1000 322 l 1000 972 l 1068 972 l 1068 424 q 1015 200 1068 299 q 864 46 961 101 q 638 -10 767 -10 m 739 1082 q 679 1094 708 1082 q 618 1119 650 1106 q 584 1135 601 1126 q 551 1143 567 1143 q 515 1128 531 1143 q 500 1083 500 1113 l 436 1083 q 468 1174 436 1140 q 546 1207 500 1207 q 605 1196 576 1207 q 667 1169 633 1185 q 700 1154 682 1163 q 733 1146 718 1146 q 769 1160 754 1146 q 785 1206 785 1175 l 849 1206 q 834 1140 849 1168 q 794 1097 819 1113 q 739 1082 769 1082 z "},"Ṹ":{"ha":1282,"x_min":214,"x_max":1068,"o":"m 638 -10 q 415 46 511 -10 q 267 201 319 101 q 214 425 214 300 l 214 972 l 283 972 l 283 432 q 329 238 283 322 q 456 108 375 154 q 638 61 536 61 q 826 108 744 61 q 954 238 908 154 q 1000 432 1000 322 l 1000 972 l 1068 972 l 1068 424 q 1015 200 1068 299 q 864 46 961 101 q 638 -10 767 -10 m 739 1082 q 679 1094 708 1082 q 618 1119 650 1106 q 584 1135 601 1126 q 551 1143 567 1143 q 515 1128 531 1143 q 500 1083 500 1113 l 436 1083 q 468 1174 436 1140 q 546 1207 500 1207 q 605 1196 576 1207 q 667 1169 633 1185 q 700 1154 682 1163 q 733 1146 718 1146 q 769 1160 754 1146 q 785 1206 785 1175 l 849 1206 q 834 1140 849 1168 q 794 1097 819 1113 q 739 1082 769 1082 m 553 1242 l 528 1288 l 739 1424 l 786 1351 l 553 1242 z "},"V":{"ha":1114,"x_min":89,"x_max":1026,"o":"m 504 0 l 89 972 l 167 974 l 443 333 q 480 246 463 286 q 512 169 497 206 q 540 95 526 133 q 569 10 554 57 l 533 10 q 581 137 560 83 q 621 239 601 190 q 665 343 640 288 l 951 974 l 1026 972 l 593 0 l 504 0 z "},"W":{"ha":1493,"x_min":89,"x_max":1406,"o":"m 397 0 l 89 972 l 167 972 l 368 321 q 392 242 382 275 q 412 182 403 210 q 428 124 421 154 q 446 47 435 93 l 438 47 q 466 138 453 100 q 498 219 479 176 q 543 329 517 263 l 700 708 l 772 708 l 963 258 q 1001 167 985 207 q 1030 98 1018 128 q 1042 47 1042 68 l 1028 47 q 1043 105 1035 76 q 1059 161 1051 133 q 1076 217 1067 189 q 1094 274 1085 246 q 1113 332 1103 303 l 1331 972 l 1406 972 l 1072 0 l 996 0 l 718 658 l 754 657 l 479 0 l 397 0 z "},"Ẃ":{"ha":1493,"x_min":89,"x_max":1406,"o":"m 397 0 l 89 972 l 167 972 l 368 321 q 392 242 382 275 q 412 182 403 210 q 428 124 421 154 q 446 47 435 93 l 438 47 q 466 138 453 100 q 498 219 479 176 q 543 329 517 263 l 700 708 l 772 708 l 963 258 q 1001 167 985 207 q 1030 98 1018 128 q 1042 47 1042 68 l 1028 47 q 1043 105 1035 76 q 1059 161 1051 133 q 1076 217 1067 189 q 1094 274 1085 246 q 1113 332 1103 303 l 1331 972 l 1406 972 l 1072 0 l 996 0 l 718 658 l 754 657 l 479 0 l 397 0 m 658 1054 l 633 1100 l 844 1236 l 892 1164 l 658 1054 z "},"Ŵ":{"ha":1493,"x_min":89,"x_max":1406,"o":"m 397 0 l 89 972 l 167 972 l 368 321 q 392 242 382 275 q 412 182 403 210 q 428 124 421 154 q 446 47 435 93 l 438 47 q 466 138 453 100 q 498 219 479 176 q 543 329 517 263 l 700 708 l 772 708 l 963 258 q 1001 167 985 207 q 1030 98 1018 128 q 1042 47 1042 68 l 1028 47 q 1043 105 1035 76 q 1059 161 1051 133 q 1076 217 1067 189 q 1094 274 1085 246 q 1113 332 1103 303 l 1331 972 l 1406 972 l 1072 0 l 996 0 l 718 658 l 754 657 l 479 0 l 397 0 m 576 1063 l 538 1097 l 703 1224 l 789 1224 l 954 1097 l 915 1063 l 725 1181 l 767 1181 l 576 1063 z "},"Ẅ":{"ha":1493,"x_min":89,"x_max":1406,"o":"m 397 0 l 89 972 l 167 972 l 368 321 q 392 242 382 275 q 412 182 403 210 q 428 124 421 154 q 446 47 435 93 l 438 47 q 466 138 453 100 q 498 219 479 176 q 543 329 517 263 l 700 708 l 772 708 l 963 258 q 1001 167 985 207 q 1030 98 1018 128 q 1042 47 1042 68 l 1028 47 q 1043 105 1035 76 q 1059 161 1051 133 q 1076 217 1067 189 q 1094 274 1085 246 q 1113 332 1103 303 l 1331 972 l 1406 972 l 1072 0 l 996 0 l 718 658 l 754 657 l 479 0 l 397 0 m 885 1082 q 838 1099 854 1082 q 821 1144 821 1115 q 838 1190 821 1172 q 885 1207 854 1207 q 932 1190 915 1207 q 949 1144 949 1174 q 932 1099 949 1117 q 885 1082 915 1082 m 607 1082 q 560 1099 576 1082 q 543 1144 543 1115 q 560 1190 543 1172 q 607 1207 576 1207 q 654 1190 638 1207 q 671 1144 671 1174 q 654 1099 671 1117 q 607 1082 638 1082 z "},"Ẁ":{"ha":1493,"x_min":89,"x_max":1406,"o":"m 397 0 l 89 972 l 167 972 l 368 321 q 392 242 382 275 q 412 182 403 210 q 428 124 421 154 q 446 47 435 93 l 438 47 q 466 138 453 100 q 498 219 479 176 q 543 329 517 263 l 700 708 l 772 708 l 963 258 q 1001 167 985 207 q 1030 98 1018 128 q 1042 47 1042 68 l 1028 47 q 1043 105 1035 76 q 1059 161 1051 133 q 1076 217 1067 189 q 1094 274 1085 246 q 1113 332 1103 303 l 1331 972 l 1406 972 l 1072 0 l 996 0 l 718 658 l 754 657 l 479 0 l 397 0 m 839 1054 l 606 1164 l 653 1236 l 864 1100 l 839 1054 z "},"X":{"ha":1079,"x_min":88,"x_max":992,"o":"m 903 0 l 508 478 l 96 972 l 185 972 l 540 546 l 992 0 l 903 0 m 88 0 l 504 521 l 547 469 l 171 0 l 88 0 m 563 469 l 526 521 l 892 972 l 975 972 l 563 469 z "},"Y":{"ha":1110,"x_min":89,"x_max":1021,"o":"m 535 0 l 535 443 l 547 376 l 89 972 l 181 972 l 581 449 l 558 447 l 936 972 l 1021 972 l 585 371 l 603 454 l 603 0 l 535 0 z "},"Ý":{"ha":1110,"x_min":89,"x_max":1021,"o":"m 535 0 l 535 443 l 547 376 l 89 972 l 181 972 l 581 449 l 558 447 l 936 972 l 1021 972 l 585 371 l 603 454 l 603 0 l 535 0 m 465 1054 l 440 1100 l 651 1236 l 699 1164 l 465 1054 z "},"Ŷ":{"ha":1110,"x_min":89,"x_max":1021,"o":"m 535 0 l 535 443 l 547 376 l 89 972 l 181 972 l 581 449 l 558 447 l 936 972 l 1021 972 l 585 371 l 603 454 l 603 0 l 535 0 m 386 1063 l 347 1097 l 513 1224 l 599 1224 l 764 1097 l 725 1063 l 535 1181 l 576 1181 l 386 1063 z "},"Ÿ":{"ha":1110,"x_min":89,"x_max":1021,"o":"m 535 0 l 535 443 l 547 376 l 89 972 l 181 972 l 581 449 l 558 447 l 936 972 l 1021 972 l 585 371 l 603 454 l 603 0 l 535 0 m 694 1082 q 647 1099 664 1082 q 631 1144 631 1115 q 647 1190 631 1172 q 694 1207 664 1207 q 742 1190 725 1207 q 758 1144 758 1174 q 742 1099 758 1117 q 694 1082 725 1082 m 417 1082 q 369 1099 386 1082 q 353 1144 353 1115 q 369 1190 353 1172 q 417 1207 386 1207 q 464 1190 447 1207 q 481 1144 481 1174 q 464 1099 481 1117 q 417 1082 447 1082 z "},"Ẏ":{"ha":1110,"x_min":89,"x_max":1021,"o":"m 535 0 l 535 443 l 547 376 l 89 972 l 181 972 l 581 449 l 558 447 l 936 972 l 1021 972 l 585 371 l 603 454 l 603 0 l 535 0 m 556 1082 q 508 1099 525 1082 q 492 1144 492 1115 q 508 1190 492 1172 q 556 1207 525 1207 q 603 1190 586 1207 q 619 1144 619 1174 q 603 1099 619 1117 q 556 1082 586 1082 z "},"Ỵ":{"ha":1110,"x_min":89,"x_max":1021,"o":"m 535 0 l 535 443 l 547 376 l 89 972 l 181 972 l 581 449 l 558 447 l 936 972 l 1021 972 l 585 371 l 603 454 l 603 0 l 535 0 m 556 -231 q 508 -213 524 -231 q 492 -168 492 -196 q 507 -124 492 -143 q 556 -106 522 -106 q 603 -123 588 -106 q 619 -168 619 -140 q 604 -212 619 -193 q 556 -231 589 -231 z "},"Ỳ":{"ha":1110,"x_min":89,"x_max":1021,"o":"m 535 0 l 535 443 l 547 376 l 89 972 l 181 972 l 581 449 l 558 447 l 936 972 l 1021 972 l 585 371 l 603 454 l 603 0 l 535 0 m 647 1054 l 414 1164 l 461 1236 l 672 1100 l 647 1054 z "},"Ỷ":{"ha":1110,"x_min":89,"x_max":1021,"o":"m 535 0 l 535 443 l 547 376 l 89 972 l 181 972 l 581 449 l 558 447 l 936 972 l 1021 972 l 585 371 l 603 454 l 603 0 l 535 0 m 542 1067 q 535 1084 538 1074 q 532 1103 532 1094 q 538 1126 532 1113 q 565 1153 544 1139 q 601 1179 588 1168 q 615 1203 615 1190 q 595 1229 615 1221 q 547 1238 575 1238 q 501 1232 526 1238 q 447 1215 475 1226 l 429 1267 q 494 1288 460 1281 q 558 1296 529 1296 q 651 1269 619 1296 q 682 1208 682 1242 q 665 1162 682 1178 q 628 1133 647 1146 q 603 1115 614 1124 q 592 1092 592 1107 q 592 1088 592 1090 q 593 1079 592 1085 l 542 1067 z "},"Ȳ":{"ha":1110,"x_min":89,"x_max":1021,"o":"m 535 0 l 535 443 l 547 376 l 89 972 l 181 972 l 581 449 l 558 447 l 936 972 l 1021 972 l 585 371 l 603 454 l 603 0 l 535 0 m 358 1113 l 358 1176 l 753 1176 l 753 1113 l 358 1113 z "},"Ỹ":{"ha":1110,"x_min":89,"x_max":1021,"o":"m 535 0 l 535 443 l 547 376 l 89 972 l 181 972 l 581 449 l 558 447 l 936 972 l 1021 972 l 585 371 l 603 454 l 603 0 l 535 0 m 653 1082 q 593 1094 622 1082 q 532 1119 564 1106 q 498 1135 515 1126 q 465 1143 481 1143 q 429 1128 444 1143 q 414 1083 414 1113 l 350 1083 q 382 1174 350 1140 q 460 1207 414 1207 q 519 1196 490 1207 q 581 1169 547 1185 q 614 1154 596 1163 q 647 1146 632 1146 q 683 1160 668 1146 q 699 1206 699 1175 l 763 1206 q 748 1140 763 1168 q 708 1097 733 1113 q 653 1082 683 1082 z "},"Z":{"ha":1060,"x_min":114,"x_max":951,"o":"m 114 0 l 114 58 l 864 936 l 883 903 l 150 903 l 150 972 l 936 972 l 936 915 l 189 36 l 167 69 l 951 69 l 951 0 l 114 0 z "},"Ź":{"ha":1060,"x_min":114,"x_max":951,"o":"m 114 0 l 114 58 l 864 936 l 883 903 l 150 903 l 150 972 l 936 972 l 936 915 l 189 36 l 167 69 l 951 69 l 951 0 l 114 0 m 439 1054 l 414 1100 l 625 1236 l 672 1164 l 439 1054 z "},"Ž":{"ha":1060,"x_min":114,"x_max":951,"o":"m 114 0 l 114 58 l 864 936 l 883 903 l 150 903 l 150 972 l 936 972 l 936 915 l 189 36 l 167 69 l 951 69 l 951 0 l 114 0 m 486 1064 l 335 1190 l 374 1225 l 550 1104 l 508 1104 l 685 1225 l 724 1190 l 572 1064 l 486 1064 z "},"Ż":{"ha":1060,"x_min":114,"x_max":951,"o":"m 114 0 l 114 58 l 864 936 l 883 903 l 150 903 l 150 972 l 936 972 l 936 915 l 189 36 l 167 69 l 951 69 l 951 0 l 114 0 m 529 1082 q 482 1099 499 1082 q 465 1144 465 1115 q 482 1190 465 1172 q 529 1207 499 1207 q 576 1190 560 1207 q 593 1144 593 1174 q 576 1099 593 1117 q 529 1082 560 1082 z "},"Ẓ":{"ha":1060,"x_min":114,"x_max":951,"o":"m 114 0 l 114 58 l 864 936 l 883 903 l 150 903 l 150 972 l 936 972 l 936 915 l 189 36 l 167 69 l 951 69 l 951 0 l 114 0 m 529 -231 q 481 -213 497 -231 q 465 -168 465 -196 q 481 -124 465 -143 q 529 -106 496 -106 q 577 -123 561 -106 q 593 -168 593 -140 q 578 -212 593 -193 q 529 -231 563 -231 z "},"a":{"ha":1117,"x_min":108,"x_max":917,"o":"m 511 -14 q 298 34 389 -14 q 158 166 207 82 q 108 360 108 250 q 161 556 108 469 q 304 691 214 642 q 510 740 394 740 q 643 720 581 740 q 754 666 706 700 q 834 590 803 632 q 874 504 865 547 l 842 518 l 849 722 l 917 722 l 917 0 l 846 0 l 846 196 l 871 226 q 831 135 864 178 q 751 58 799 92 q 641 5 703 24 q 511 -14 579 -14 m 518 56 q 690 96 615 56 q 808 204 764 136 q 851 361 851 272 q 809 519 851 450 q 691 630 767 589 q 518 671 615 671 q 344 630 419 671 q 224 519 268 589 q 181 361 181 450 q 222 206 181 275 q 340 96 264 136 q 518 56 415 56 z "},"á":{"ha":1117,"x_min":108,"x_max":917,"o":"m 511 -14 q 298 34 389 -14 q 158 166 207 82 q 108 360 108 250 q 161 556 108 469 q 304 691 214 642 q 510 740 394 740 q 643 720 581 740 q 754 666 706 700 q 834 590 803 632 q 874 504 865 547 l 842 518 l 849 722 l 917 722 l 917 0 l 846 0 l 846 196 l 871 226 q 831 135 864 178 q 751 58 799 92 q 641 5 703 24 q 511 -14 579 -14 m 518 56 q 690 96 615 56 q 808 204 764 136 q 851 361 851 272 q 809 519 851 450 q 691 630 767 589 q 518 671 615 671 q 344 630 419 671 q 224 519 268 589 q 181 361 181 450 q 222 206 181 275 q 340 96 264 136 q 518 56 415 56 m 469 824 l 440 867 l 638 1026 l 683 964 l 469 824 z "},"ă":{"ha":1117,"x_min":108,"x_max":917,"o":"m 511 -14 q 298 34 389 -14 q 158 166 207 82 q 108 360 108 250 q 161 556 108 469 q 304 691 214 642 q 510 740 394 740 q 643 720 581 740 q 754 666 706 700 q 834 590 803 632 q 874 504 865 547 l 842 518 l 849 722 l 917 722 l 917 0 l 846 0 l 846 196 l 871 226 q 831 135 864 178 q 751 58 799 92 q 641 5 703 24 q 511 -14 579 -14 m 518 56 q 690 96 615 56 q 808 204 764 136 q 851 361 851 272 q 809 519 851 450 q 691 630 767 589 q 518 671 615 671 q 344 630 419 671 q 224 519 268 589 q 181 361 181 450 q 222 206 181 275 q 340 96 264 136 q 518 56 415 56 m 546 828 q 418 877 471 828 q 349 1011 365 926 l 408 1018 q 460 920 422 956 q 546 885 499 885 q 631 920 593 885 q 683 1018 669 956 l 743 1011 q 674 877 726 926 q 546 828 621 828 z "},"ắ":{"ha":1117,"x_min":108,"x_max":917,"o":"m 511 -14 q 298 34 389 -14 q 158 166 207 82 q 108 360 108 250 q 161 556 108 469 q 304 691 214 642 q 510 740 394 740 q 643 720 581 740 q 754 666 706 700 q 834 590 803 632 q 874 504 865 547 l 842 518 l 849 722 l 917 722 l 917 0 l 846 0 l 846 196 l 871 226 q 831 135 864 178 q 751 58 799 92 q 641 5 703 24 q 511 -14 579 -14 m 518 56 q 690 96 615 56 q 808 204 764 136 q 851 361 851 272 q 809 519 851 450 q 691 630 767 589 q 518 671 615 671 q 344 630 419 671 q 224 519 268 589 q 181 361 181 450 q 222 206 181 275 q 340 96 264 136 q 518 56 415 56 m 546 828 q 418 869 471 828 q 349 983 365 911 l 408 990 q 460 913 422 942 q 546 885 499 885 q 631 913 593 885 q 683 990 669 942 l 743 983 q 674 869 726 911 q 546 828 621 828 m 547 1029 l 504 1057 l 599 1238 l 675 1189 l 547 1029 z "},"ặ":{"ha":1117,"x_min":108,"x_max":917,"o":"m 511 -14 q 298 34 389 -14 q 158 166 207 82 q 108 360 108 250 q 161 556 108 469 q 304 691 214 642 q 510 740 394 740 q 643 720 581 740 q 754 666 706 700 q 834 590 803 632 q 874 504 865 547 l 842 518 l 849 722 l 917 722 l 917 0 l 846 0 l 846 196 l 871 226 q 831 135 864 178 q 751 58 799 92 q 641 5 703 24 q 511 -14 579 -14 m 518 56 q 690 96 615 56 q 808 204 764 136 q 851 361 851 272 q 809 519 851 450 q 691 630 767 589 q 518 671 615 671 q 344 630 419 671 q 224 519 268 589 q 181 361 181 450 q 222 206 181 275 q 340 96 264 136 q 518 56 415 56 m 540 -231 q 492 -213 508 -231 q 476 -168 476 -196 q 492 -124 476 -143 q 540 -106 507 -106 q 588 -123 572 -106 q 604 -168 604 -140 q 589 -212 604 -193 q 540 -231 574 -231 m 546 828 q 418 877 471 828 q 349 1011 365 926 l 408 1018 q 460 920 422 956 q 546 885 499 885 q 631 920 593 885 q 683 1018 669 956 l 743 1011 q 674 877 726 926 q 546 828 621 828 z "},"ằ":{"ha":1117,"x_min":108,"x_max":917,"o":"m 511 -14 q 298 34 389 -14 q 158 166 207 82 q 108 360 108 250 q 161 556 108 469 q 304 691 214 642 q 510 740 394 740 q 643 720 581 740 q 754 666 706 700 q 834 590 803 632 q 874 504 865 547 l 842 518 l 849 722 l 917 722 l 917 0 l 846 0 l 846 196 l 871 226 q 831 135 864 178 q 751 58 799 92 q 641 5 703 24 q 511 -14 579 -14 m 518 56 q 690 96 615 56 q 808 204 764 136 q 851 361 851 272 q 809 519 851 450 q 691 630 767 589 q 518 671 615 671 q 344 630 419 671 q 224 519 268 589 q 181 361 181 450 q 222 206 181 275 q 340 96 264 136 q 518 56 415 56 m 546 828 q 418 869 471 828 q 349 983 365 911 l 408 990 q 460 913 422 942 q 546 885 499 885 q 631 913 593 885 q 683 990 669 942 l 743 983 q 674 869 726 911 q 546 828 621 828 m 554 1029 l 426 1189 l 504 1239 l 597 1057 l 554 1029 z "},"ẳ":{"ha":1117,"x_min":108,"x_max":917,"o":"m 511 -14 q 298 34 389 -14 q 158 166 207 82 q 108 360 108 250 q 161 556 108 469 q 304 691 214 642 q 510 740 394 740 q 643 720 581 740 q 754 666 706 700 q 834 590 803 632 q 874 504 865 547 l 842 518 l 849 722 l 917 722 l 917 0 l 846 0 l 846 196 l 871 226 q 831 135 864 178 q 751 58 799 92 q 641 5 703 24 q 511 -14 579 -14 m 518 56 q 690 96 615 56 q 808 204 764 136 q 851 361 851 272 q 809 519 851 450 q 691 630 767 589 q 518 671 615 671 q 344 630 419 671 q 224 519 268 589 q 181 361 181 450 q 222 206 181 275 q 340 96 264 136 q 518 56 415 56 m 546 828 q 418 869 471 828 q 349 983 365 911 l 408 990 q 460 913 422 942 q 546 885 499 885 q 631 913 593 885 q 683 990 669 942 l 743 983 q 674 869 726 911 q 546 828 621 828 m 521 1014 q 514 1031 517 1021 q 511 1050 511 1042 q 517 1073 511 1060 q 544 1100 524 1086 q 581 1126 567 1115 q 594 1150 594 1138 q 574 1176 594 1168 q 526 1185 554 1185 q 480 1179 506 1185 q 426 1163 454 1174 l 408 1214 q 474 1235 439 1228 q 538 1243 508 1243 q 630 1216 599 1243 q 661 1156 661 1189 q 644 1109 661 1125 q 607 1081 626 1093 q 582 1063 593 1071 q 571 1039 571 1054 q 571 1035 571 1038 q 572 1026 571 1032 l 521 1014 z "},"ẵ":{"ha":1117,"x_min":108,"x_max":917,"o":"m 511 -14 q 298 34 389 -14 q 158 166 207 82 q 108 360 108 250 q 161 556 108 469 q 304 691 214 642 q 510 740 394 740 q 643 720 581 740 q 754 666 706 700 q 834 590 803 632 q 874 504 865 547 l 842 518 l 849 722 l 917 722 l 917 0 l 846 0 l 846 196 l 871 226 q 831 135 864 178 q 751 58 799 92 q 641 5 703 24 q 511 -14 579 -14 m 518 56 q 690 96 615 56 q 808 204 764 136 q 851 361 851 272 q 809 519 851 450 q 691 630 767 589 q 518 671 615 671 q 344 630 419 671 q 224 519 268 589 q 181 361 181 450 q 222 206 181 275 q 340 96 264 136 q 518 56 415 56 m 544 828 q 417 869 469 828 q 347 983 364 911 l 407 990 q 459 913 421 942 q 544 885 497 885 q 630 913 592 885 q 682 990 668 942 l 742 983 q 672 869 725 911 q 544 828 619 828 m 639 1107 q 587 1119 611 1107 q 539 1143 563 1131 q 503 1162 521 1153 q 463 1171 486 1171 q 422 1158 440 1171 q 399 1119 404 1144 l 342 1125 q 383 1201 349 1171 q 463 1231 418 1231 q 513 1220 492 1231 q 553 1199 533 1210 q 593 1177 574 1188 q 635 1167 613 1167 q 672 1182 657 1167 q 690 1218 688 1197 l 750 1213 q 731 1160 746 1183 q 692 1122 715 1136 q 639 1107 669 1107 z "},"ǎ":{"ha":1117,"x_min":108,"x_max":917,"o":"m 511 -14 q 298 34 389 -14 q 158 166 207 82 q 108 360 108 250 q 161 556 108 469 q 304 691 214 642 q 510 740 394 740 q 643 720 581 740 q 754 666 706 700 q 834 590 803 632 q 874 504 865 547 l 842 518 l 849 722 l 917 722 l 917 0 l 846 0 l 846 196 l 871 226 q 831 135 864 178 q 751 58 799 92 q 641 5 703 24 q 511 -14 579 -14 m 518 56 q 690 96 615 56 q 808 204 764 136 q 851 361 851 272 q 809 519 851 450 q 691 630 767 589 q 518 671 615 671 q 344 630 419 671 q 224 519 268 589 q 181 361 181 450 q 222 206 181 275 q 340 96 264 136 q 518 56 415 56 m 503 835 l 351 975 l 390 1010 l 567 875 l 525 875 l 701 1010 l 740 975 l 589 835 l 503 835 z "},"â":{"ha":1117,"x_min":108,"x_max":917,"o":"m 511 -14 q 298 34 389 -14 q 158 166 207 82 q 108 360 108 250 q 161 556 108 469 q 304 691 214 642 q 510 740 394 740 q 643 720 581 740 q 754 666 706 700 q 834 590 803 632 q 874 504 865 547 l 842 518 l 849 722 l 917 722 l 917 0 l 846 0 l 846 196 l 871 226 q 831 135 864 178 q 751 58 799 92 q 641 5 703 24 q 511 -14 579 -14 m 518 56 q 690 96 615 56 q 808 204 764 136 q 851 361 851 272 q 809 519 851 450 q 691 630 767 589 q 518 671 615 671 q 344 630 419 671 q 224 519 268 589 q 181 361 181 450 q 222 206 181 275 q 340 96 264 136 q 518 56 415 56 m 390 838 l 351 872 l 503 1013 l 589 1013 l 740 872 l 701 838 l 525 972 l 567 972 l 390 838 z "},"ấ":{"ha":1117,"x_min":108,"x_max":917,"o":"m 511 -14 q 298 34 389 -14 q 158 166 207 82 q 108 360 108 250 q 161 556 108 469 q 304 691 214 642 q 510 740 394 740 q 643 720 581 740 q 754 666 706 700 q 834 590 803 632 q 874 504 865 547 l 842 518 l 849 722 l 917 722 l 917 0 l 846 0 l 846 196 l 871 226 q 831 135 864 178 q 751 58 799 92 q 641 5 703 24 q 511 -14 579 -14 m 518 56 q 690 96 615 56 q 808 204 764 136 q 851 361 851 272 q 809 519 851 450 q 691 630 767 589 q 518 671 615 671 q 344 630 419 671 q 224 519 268 589 q 181 361 181 450 q 222 206 181 275 q 340 96 264 136 q 518 56 415 56 m 392 838 l 353 872 l 504 1013 l 590 1013 l 742 872 l 703 838 l 526 972 l 568 972 l 392 838 m 753 1001 l 710 1029 l 804 1210 l 881 1161 l 753 1001 z "},"ậ":{"ha":1117,"x_min":108,"x_max":917,"o":"m 511 -14 q 298 34 389 -14 q 158 166 207 82 q 108 360 108 250 q 161 556 108 469 q 304 691 214 642 q 510 740 394 740 q 643 720 581 740 q 754 666 706 700 q 834 590 803 632 q 874 504 865 547 l 842 518 l 849 722 l 917 722 l 917 0 l 846 0 l 846 196 l 871 226 q 831 135 864 178 q 751 58 799 92 q 641 5 703 24 q 511 -14 579 -14 m 518 56 q 690 96 615 56 q 808 204 764 136 q 851 361 851 272 q 809 519 851 450 q 691 630 767 589 q 518 671 615 671 q 344 630 419 671 q 224 519 268 589 q 181 361 181 450 q 222 206 181 275 q 340 96 264 136 q 518 56 415 56 m 540 -231 q 492 -213 508 -231 q 476 -168 476 -196 q 492 -124 476 -143 q 540 -106 507 -106 q 588 -123 572 -106 q 604 -168 604 -140 q 589 -212 604 -193 q 540 -231 574 -231 m 390 838 l 351 872 l 503 1013 l 589 1013 l 740 872 l 701 838 l 525 972 l 567 972 l 390 838 z "},"ầ":{"ha":1117,"x_min":108,"x_max":917,"o":"m 511 -14 q 298 34 389 -14 q 158 166 207 82 q 108 360 108 250 q 161 556 108 469 q 304 691 214 642 q 510 740 394 740 q 643 720 581 740 q 754 666 706 700 q 834 590 803 632 q 874 504 865 547 l 842 518 l 849 722 l 917 722 l 917 0 l 846 0 l 846 196 l 871 226 q 831 135 864 178 q 751 58 799 92 q 641 5 703 24 q 511 -14 579 -14 m 518 56 q 690 96 615 56 q 808 204 764 136 q 851 361 851 272 q 809 519 851 450 q 691 630 767 589 q 518 671 615 671 q 344 630 419 671 q 224 519 268 589 q 181 361 181 450 q 222 206 181 275 q 340 96 264 136 q 518 56 415 56 m 390 838 l 351 872 l 503 1013 l 589 1013 l 740 872 l 701 838 l 525 972 l 567 972 l 390 838 m 725 1001 l 597 1161 l 675 1211 l 768 1029 l 725 1001 z "},"ẩ":{"ha":1117,"x_min":108,"x_max":917,"o":"m 511 -14 q 298 34 389 -14 q 158 166 207 82 q 108 360 108 250 q 161 556 108 469 q 304 691 214 642 q 510 740 394 740 q 643 720 581 740 q 754 666 706 700 q 834 590 803 632 q 874 504 865 547 l 842 518 l 849 722 l 917 722 l 917 0 l 846 0 l 846 196 l 871 226 q 831 135 864 178 q 751 58 799 92 q 641 5 703 24 q 511 -14 579 -14 m 518 56 q 690 96 615 56 q 808 204 764 136 q 851 361 851 272 q 809 519 851 450 q 691 630 767 589 q 518 671 615 671 q 344 630 419 671 q 224 519 268 589 q 181 361 181 450 q 222 206 181 275 q 340 96 264 136 q 518 56 415 56 m 390 838 l 351 872 l 503 1013 l 589 1013 l 740 872 l 701 838 l 525 972 l 567 972 l 390 838 m 685 1000 q 678 1017 681 1007 q 675 1036 675 1028 q 681 1059 675 1046 q 708 1086 688 1072 q 744 1113 731 1101 q 758 1136 758 1124 q 738 1163 758 1154 q 690 1171 718 1171 q 644 1165 669 1171 q 590 1149 618 1160 l 572 1200 q 638 1222 603 1214 q 701 1229 672 1229 q 794 1202 763 1229 q 825 1142 825 1175 q 808 1095 825 1111 q 771 1067 790 1079 q 746 1049 757 1057 q 735 1025 735 1040 q 735 1021 735 1024 q 736 1013 735 1018 l 685 1000 z "},"ẫ":{"ha":1117,"x_min":108,"x_max":917,"o":"m 511 -14 q 298 34 389 -14 q 158 166 207 82 q 108 360 108 250 q 161 556 108 469 q 304 691 214 642 q 510 740 394 740 q 643 720 581 740 q 754 666 706 700 q 834 590 803 632 q 874 504 865 547 l 842 518 l 849 722 l 917 722 l 917 0 l 846 0 l 846 196 l 871 226 q 831 135 864 178 q 751 58 799 92 q 641 5 703 24 q 511 -14 579 -14 m 518 56 q 690 96 615 56 q 808 204 764 136 q 851 361 851 272 q 809 519 851 450 q 691 630 767 589 q 518 671 615 671 q 344 630 419 671 q 224 519 268 589 q 181 361 181 450 q 222 206 181 275 q 340 96 264 136 q 518 56 415 56 m 389 838 l 350 872 l 501 1013 l 588 1013 l 739 872 l 700 838 l 524 972 l 565 972 l 389 838 m 639 1107 q 587 1119 611 1107 q 539 1143 563 1131 q 503 1162 521 1153 q 463 1171 486 1171 q 422 1158 440 1171 q 399 1119 404 1144 l 342 1125 q 383 1201 349 1171 q 463 1231 418 1231 q 513 1220 492 1231 q 553 1199 533 1210 q 593 1177 574 1188 q 635 1167 613 1167 q 672 1182 657 1167 q 690 1218 688 1197 l 750 1213 q 731 1160 746 1183 q 692 1122 715 1136 q 639 1107 669 1107 z "},"ȁ":{"ha":1117,"x_min":108,"x_max":917,"o":"m 511 -14 q 298 34 389 -14 q 158 166 207 82 q 108 360 108 250 q 161 556 108 469 q 304 691 214 642 q 510 740 394 740 q 643 720 581 740 q 754 666 706 700 q 834 590 803 632 q 874 504 865 547 l 842 518 l 849 722 l 917 722 l 917 0 l 846 0 l 846 196 l 871 226 q 831 135 864 178 q 751 58 799 92 q 641 5 703 24 q 511 -14 579 -14 m 518 56 q 690 96 615 56 q 808 204 764 136 q 851 361 851 272 q 809 519 851 450 q 691 630 767 589 q 518 671 615 671 q 344 630 419 671 q 224 519 268 589 q 181 361 181 450 q 222 206 181 275 q 340 96 264 136 q 518 56 415 56 m 646 824 l 432 964 l 478 1026 l 675 867 l 646 824 m 438 824 l 224 964 l 269 1026 l 467 867 l 438 824 z "},"ä":{"ha":1117,"x_min":108,"x_max":917,"o":"m 511 -14 q 298 34 389 -14 q 158 166 207 82 q 108 360 108 250 q 161 556 108 469 q 304 691 214 642 q 510 740 394 740 q 643 720 581 740 q 754 666 706 700 q 834 590 803 632 q 874 504 865 547 l 842 518 l 849 722 l 917 722 l 917 0 l 846 0 l 846 196 l 871 226 q 831 135 864 178 q 751 58 799 92 q 641 5 703 24 q 511 -14 579 -14 m 518 56 q 690 96 615 56 q 808 204 764 136 q 851 361 851 272 q 809 519 851 450 q 691 630 767 589 q 518 671 615 671 q 344 630 419 671 q 224 519 268 589 q 181 361 181 450 q 222 206 181 275 q 340 96 264 136 q 518 56 415 56 m 678 864 q 631 881 647 864 q 614 926 614 897 q 631 972 614 954 q 678 989 647 989 q 725 972 708 989 q 742 926 742 956 q 725 881 742 899 q 678 864 708 864 m 413 863 q 365 879 382 863 q 349 925 349 896 q 365 970 349 953 q 413 988 382 988 q 460 971 443 988 q 476 925 476 954 q 460 880 476 897 q 413 863 443 863 z "},"ạ":{"ha":1117,"x_min":108,"x_max":917,"o":"m 511 -14 q 298 34 389 -14 q 158 166 207 82 q 108 360 108 250 q 161 556 108 469 q 304 691 214 642 q 510 740 394 740 q 643 720 581 740 q 754 666 706 700 q 834 590 803 632 q 874 504 865 547 l 842 518 l 849 722 l 917 722 l 917 0 l 846 0 l 846 196 l 871 226 q 831 135 864 178 q 751 58 799 92 q 641 5 703 24 q 511 -14 579 -14 m 518 56 q 690 96 615 56 q 808 204 764 136 q 851 361 851 272 q 809 519 851 450 q 691 630 767 589 q 518 671 615 671 q 344 630 419 671 q 224 519 268 589 q 181 361 181 450 q 222 206 181 275 q 340 96 264 136 q 518 56 415 56 m 540 -231 q 492 -213 508 -231 q 476 -168 476 -196 q 492 -124 476 -143 q 540 -106 507 -106 q 588 -123 572 -106 q 604 -168 604 -140 q 589 -212 604 -193 q 540 -231 574 -231 z "},"à":{"ha":1117,"x_min":108,"x_max":917,"o":"m 511 -14 q 298 34 389 -14 q 158 166 207 82 q 108 360 108 250 q 161 556 108 469 q 304 691 214 642 q 510 740 394 740 q 643 720 581 740 q 754 666 706 700 q 834 590 803 632 q 874 504 865 547 l 842 518 l 849 722 l 917 722 l 917 0 l 846 0 l 846 196 l 871 226 q 831 135 864 178 q 751 58 799 92 q 641 5 703 24 q 511 -14 579 -14 m 518 56 q 690 96 615 56 q 808 204 764 136 q 851 361 851 272 q 809 519 851 450 q 691 630 767 589 q 518 671 615 671 q 344 630 419 671 q 224 519 268 589 q 181 361 181 450 q 222 206 181 275 q 340 96 264 136 q 518 56 415 56 m 608 824 l 394 964 l 440 1026 l 638 867 l 608 824 z "},"ả":{"ha":1117,"x_min":108,"x_max":917,"o":"m 511 -14 q 298 34 389 -14 q 158 166 207 82 q 108 360 108 250 q 161 556 108 469 q 304 691 214 642 q 510 740 394 740 q 643 720 581 740 q 754 666 706 700 q 834 590 803 632 q 874 504 865 547 l 842 518 l 849 722 l 917 722 l 917 0 l 846 0 l 846 196 l 871 226 q 831 135 864 178 q 751 58 799 92 q 641 5 703 24 q 511 -14 579 -14 m 518 56 q 690 96 615 56 q 808 204 764 136 q 851 361 851 272 q 809 519 851 450 q 691 630 767 589 q 518 671 615 671 q 344 630 419 671 q 224 519 268 589 q 181 361 181 450 q 222 206 181 275 q 340 96 264 136 q 518 56 415 56 m 532 833 q 525 851 528 840 q 522 869 522 861 q 528 892 522 879 q 556 919 535 906 q 592 946 578 935 q 606 969 606 957 q 585 996 606 988 q 538 1004 565 1004 q 491 999 517 1004 q 438 982 465 993 l 419 1033 q 485 1055 450 1047 q 549 1063 519 1063 q 641 1035 610 1063 q 672 975 672 1008 q 655 928 672 944 q 618 900 638 913 q 593 882 604 890 q 582 858 582 874 q 582 854 582 857 q 583 846 582 851 l 532 833 z "},"ȃ":{"ha":1117,"x_min":108,"x_max":917,"o":"m 511 -14 q 298 34 389 -14 q 158 166 207 82 q 108 360 108 250 q 161 556 108 469 q 304 691 214 642 q 510 740 394 740 q 643 720 581 740 q 754 666 706 700 q 834 590 803 632 q 874 504 865 547 l 842 518 l 849 722 l 917 722 l 917 0 l 846 0 l 846 196 l 871 226 q 831 135 864 178 q 751 58 799 92 q 641 5 703 24 q 511 -14 579 -14 m 518 56 q 690 96 615 56 q 808 204 764 136 q 851 361 851 272 q 809 519 851 450 q 691 630 767 589 q 518 671 615 671 q 344 630 419 671 q 224 519 268 589 q 181 361 181 450 q 222 206 181 275 q 340 96 264 136 q 518 56 415 56 m 408 842 l 349 849 q 418 983 365 933 q 546 1032 471 1032 q 674 983 621 1032 q 743 849 726 933 l 683 842 q 631 940 669 904 q 546 975 593 975 q 460 940 499 975 q 408 842 422 904 z "},"ā":{"ha":1117,"x_min":108,"x_max":917,"o":"m 511 -14 q 298 34 389 -14 q 158 166 207 82 q 108 360 108 250 q 161 556 108 469 q 304 691 214 642 q 510 740 394 740 q 643 720 581 740 q 754 666 706 700 q 834 590 803 632 q 874 504 865 547 l 842 518 l 849 722 l 917 722 l 917 0 l 846 0 l 846 196 l 871 226 q 831 135 864 178 q 751 58 799 92 q 641 5 703 24 q 511 -14 579 -14 m 518 56 q 690 96 615 56 q 808 204 764 136 q 851 361 851 272 q 809 519 851 450 q 691 630 767 589 q 518 671 615 671 q 344 630 419 671 q 224 519 268 589 q 181 361 181 450 q 222 206 181 275 q 340 96 264 136 q 518 56 415 56 m 353 894 l 353 954 l 739 954 l 739 894 l 353 894 z "},"ą":{"ha":1117,"x_min":108,"x_max":956,"o":"m 511 -14 q 298 34 389 -14 q 158 166 207 82 q 108 360 108 250 q 161 556 108 469 q 304 691 214 642 q 510 740 394 740 q 643 720 581 740 q 754 666 706 700 q 834 590 803 632 q 874 504 865 547 l 842 518 l 849 722 l 917 722 l 917 0 l 846 0 l 846 196 l 871 226 q 831 135 864 178 q 751 58 799 92 q 641 5 703 24 q 511 -14 579 -14 m 518 56 q 690 96 615 56 q 808 204 764 136 q 851 361 851 272 q 809 519 851 450 q 691 630 767 589 q 518 671 615 671 q 344 630 419 671 q 224 519 268 589 q 181 361 181 450 q 222 206 181 275 q 340 96 264 136 q 518 56 415 56 m 813 -306 q 747 -291 776 -306 q 701 -249 718 -276 q 685 -185 685 -222 q 701 -111 685 -144 q 744 -51 718 -78 q 806 -2 771 -25 q 879 40 840 21 l 917 0 q 829 -50 867 -22 q 770 -109 792 -78 q 749 -175 749 -140 q 768 -226 749 -206 q 819 -247 788 -247 q 867 -235 846 -247 q 910 -197 889 -224 l 956 -231 q 919 -270 939 -253 q 872 -297 899 -287 q 813 -306 846 -306 z "},"å":{"ha":1117,"x_min":108,"x_max":917,"o":"m 511 -14 q 298 34 389 -14 q 158 166 207 82 q 108 360 108 250 q 161 556 108 469 q 304 691 214 642 q 510 740 394 740 q 643 720 581 740 q 754 666 706 700 q 834 590 803 632 q 874 504 865 547 l 842 518 l 849 722 l 917 722 l 917 0 l 846 0 l 846 196 l 871 226 q 831 135 864 178 q 751 58 799 92 q 641 5 703 24 q 511 -14 579 -14 m 518 56 q 690 96 615 56 q 808 204 764 136 q 851 361 851 272 q 809 519 851 450 q 691 630 767 589 q 518 671 615 671 q 344 630 419 671 q 224 519 268 589 q 181 361 181 450 q 222 206 181 275 q 340 96 264 136 q 518 56 415 56 m 544 813 q 474 832 507 813 q 420 883 440 851 q 400 951 400 915 q 420 1022 400 990 q 473 1072 440 1053 q 544 1092 506 1092 q 617 1072 583 1092 q 670 1022 650 1053 q 690 951 690 990 q 670 883 690 915 q 617 832 650 851 q 544 813 583 813 m 544 867 q 608 892 582 867 q 635 951 635 917 q 608 1014 635 990 q 544 1038 582 1038 q 481 1013 506 1038 q 456 951 456 989 q 482 892 456 917 q 544 867 508 867 z "},"ǻ":{"ha":1117,"x_min":108,"x_max":917,"o":"m 511 -14 q 298 34 389 -14 q 158 166 207 82 q 108 360 108 250 q 161 556 108 469 q 304 691 214 642 q 510 740 394 740 q 643 720 581 740 q 754 666 706 700 q 834 590 803 632 q 874 504 865 547 l 842 518 l 849 722 l 917 722 l 917 0 l 846 0 l 846 196 l 871 226 q 831 135 864 178 q 751 58 799 92 q 641 5 703 24 q 511 -14 579 -14 m 518 56 q 690 96 615 56 q 808 204 764 136 q 851 361 851 272 q 809 519 851 450 q 691 630 767 589 q 518 671 615 671 q 344 630 419 671 q 224 519 268 589 q 181 361 181 450 q 222 206 181 275 q 340 96 264 136 q 518 56 415 56 m 544 813 q 474 832 507 813 q 420 883 440 851 q 400 951 400 915 q 420 1022 400 990 q 473 1072 440 1053 q 544 1092 506 1092 q 617 1072 583 1092 q 670 1022 650 1053 q 690 951 690 990 q 670 883 690 915 q 617 832 650 851 q 544 813 583 813 m 544 867 q 608 892 582 867 q 635 951 635 917 q 608 1014 635 990 q 544 1038 582 1038 q 481 1013 506 1038 q 456 951 456 989 q 482 892 456 917 q 544 867 508 867 m 468 1118 l 439 1161 l 636 1321 l 682 1258 l 468 1118 z "},"ã":{"ha":1117,"x_min":108,"x_max":917,"o":"m 511 -14 q 298 34 389 -14 q 158 166 207 82 q 108 360 108 250 q 161 556 108 469 q 304 691 214 642 q 510 740 394 740 q 643 720 581 740 q 754 666 706 700 q 834 590 803 632 q 874 504 865 547 l 842 518 l 849 722 l 917 722 l 917 0 l 846 0 l 846 196 l 871 226 q 831 135 864 178 q 751 58 799 92 q 641 5 703 24 q 511 -14 579 -14 m 518 56 q 690 96 615 56 q 808 204 764 136 q 851 361 851 272 q 809 519 851 450 q 691 630 767 589 q 518 671 615 671 q 344 630 419 671 q 224 519 268 589 q 181 361 181 450 q 222 206 181 275 q 340 96 264 136 q 518 56 415 56 m 636 850 q 582 863 607 850 q 524 910 557 876 q 497 931 510 924 q 468 938 485 938 q 420 917 439 938 q 396 858 401 897 l 339 864 q 383 960 346 922 q 475 997 419 997 q 524 986 501 997 q 579 943 546 975 q 606 919 593 929 q 639 910 619 910 q 676 929 661 910 q 694 975 692 949 l 754 969 q 735 909 750 936 q 694 866 719 882 q 636 850 669 850 z "},"æ":{"ha":1589,"x_min":108,"x_max":1468,"o":"m 408 -14 q 249 13 317 -14 q 145 90 182 40 q 108 207 108 139 q 137 314 108 272 q 216 378 165 356 q 336 412 267 401 q 486 422 406 422 l 1429 422 l 1399 394 l 1399 426 q 1365 540 1400 485 q 1266 633 1331 596 q 1108 671 1201 671 q 941 638 1015 671 q 822 538 867 604 q 778 367 778 471 q 821 200 778 269 q 945 93 864 131 q 1139 56 1026 56 q 1275 74 1210 56 q 1417 146 1340 92 l 1449 90 q 1360 38 1408 61 q 1254 0 1313 14 q 1128 -14 1196 -14 q 905 33 1000 -14 q 757 165 810 81 q 704 363 704 250 q 734 528 704 458 q 819 646 764 599 q 949 716 875 693 q 1110 739 1024 739 q 1301 696 1221 739 q 1424 575 1381 653 q 1468 393 1468 497 l 1467 357 l 468 357 q 360 350 411 357 q 269 326 310 343 q 205 283 228 310 q 182 211 182 256 q 210 127 182 163 q 291 74 238 92 q 414 56 344 56 q 547 79 482 56 q 663 142 613 103 q 742 225 713 181 l 785 174 q 692 78 751 121 q 558 11 632 36 q 408 -14 485 -14 m 704 401 l 704 490 q 689 565 704 532 q 642 622 674 599 q 565 657 610 644 q 460 669 519 669 q 306 640 379 669 q 165 554 233 611 l 119 606 q 228 678 172 650 q 341 722 283 707 q 463 738 399 738 q 579 724 524 738 q 676 683 635 711 q 741 613 717 656 q 765 511 765 571 l 765 401 l 704 401 z "},"ǽ":{"ha":1589,"x_min":108,"x_max":1468,"o":"m 408 -14 q 249 13 317 -14 q 145 90 182 40 q 108 207 108 139 q 137 314 108 272 q 216 378 165 356 q 336 412 267 401 q 486 422 406 422 l 1429 422 l 1399 394 l 1399 426 q 1365 540 1400 485 q 1266 633 1331 596 q 1108 671 1201 671 q 941 638 1015 671 q 822 538 867 604 q 778 367 778 471 q 821 200 778 269 q 945 93 864 131 q 1139 56 1026 56 q 1275 74 1210 56 q 1417 146 1340 92 l 1449 90 q 1360 38 1408 61 q 1254 0 1313 14 q 1128 -14 1196 -14 q 905 33 1000 -14 q 757 165 810 81 q 704 363 704 250 q 734 528 704 458 q 819 646 764 599 q 949 716 875 693 q 1110 739 1024 739 q 1301 696 1221 739 q 1424 575 1381 653 q 1468 393 1468 497 l 1467 357 l 468 357 q 360 350 411 357 q 269 326 310 343 q 205 283 228 310 q 182 211 182 256 q 210 127 182 163 q 291 74 238 92 q 414 56 344 56 q 547 79 482 56 q 663 142 613 103 q 742 225 713 181 l 785 174 q 692 78 751 121 q 558 11 632 36 q 408 -14 485 -14 m 704 401 l 704 490 q 689 565 704 532 q 642 622 674 599 q 565 657 610 644 q 460 669 519 669 q 306 640 379 669 q 165 554 233 611 l 119 606 q 228 678 172 650 q 341 722 283 707 q 463 738 399 738 q 579 724 524 738 q 676 683 635 711 q 741 613 717 656 q 765 511 765 571 l 765 401 l 704 401 m 708 824 l 679 867 l 876 1026 l 922 964 l 708 824 z "},"b":{"ha":1126,"x_min":217,"x_max":1013,"o":"m 621 -14 q 497 2 554 -14 q 392 48 439 18 q 310 121 344 78 q 257 215 276 164 l 290 192 l 283 0 l 217 0 l 217 1028 l 286 1028 l 286 539 l 260 514 q 312 606 278 564 q 394 678 346 649 q 499 724 442 707 q 624 740 557 740 q 821 691 733 740 q 960 558 908 642 q 1013 363 1013 474 q 962 169 1013 254 q 823 35 911 85 q 621 -14 735 -14 m 614 56 q 782 96 708 56 q 897 206 856 136 q 939 364 939 275 q 897 522 939 453 q 781 631 854 590 q 614 671 708 671 q 438 630 514 671 q 320 521 363 589 q 278 365 278 453 q 322 203 279 272 q 440 95 365 135 q 614 56 515 56 z "},"c":{"ha":988,"x_min":114,"x_max":878,"o":"m 529 -14 q 315 35 408 -14 q 167 168 221 83 q 114 363 114 253 q 168 558 114 472 q 317 692 222 643 q 533 740 411 740 q 724 706 635 740 q 878 608 814 672 l 836 550 q 752 612 801 585 q 644 655 703 639 q 519 671 586 671 q 349 631 424 671 q 233 521 275 590 q 190 363 190 451 q 234 201 190 271 q 352 94 278 132 q 515 56 426 56 q 644 71 586 56 q 749 110 703 86 q 832 164 796 135 l 874 104 q 722 19 810 51 q 529 -14 633 -14 z "},"ć":{"ha":988,"x_min":114,"x_max":878,"o":"m 529 -14 q 315 35 408 -14 q 167 168 221 83 q 114 363 114 253 q 168 558 114 472 q 317 692 222 643 q 533 740 411 740 q 724 706 635 740 q 878 608 814 672 l 836 550 q 752 612 801 585 q 644 655 703 639 q 519 671 586 671 q 349 631 424 671 q 233 521 275 590 q 190 363 190 451 q 234 201 190 271 q 352 94 278 132 q 515 56 426 56 q 644 71 586 56 q 749 110 703 86 q 832 164 796 135 l 874 104 q 722 19 810 51 q 529 -14 633 -14 m 454 824 l 425 867 l 622 1026 l 668 964 l 454 824 z "},"č":{"ha":988,"x_min":114,"x_max":878,"o":"m 529 -14 q 315 35 408 -14 q 167 168 221 83 q 114 363 114 253 q 168 558 114 472 q 317 692 222 643 q 533 740 411 740 q 724 706 635 740 q 878 608 814 672 l 836 550 q 752 612 801 585 q 644 655 703 639 q 519 671 586 671 q 349 631 424 671 q 233 521 275 590 q 190 363 190 451 q 234 201 190 271 q 352 94 278 132 q 515 56 426 56 q 644 71 586 56 q 749 110 703 86 q 832 164 796 135 l 874 104 q 722 19 810 51 q 529 -14 633 -14 m 488 835 l 336 975 l 375 1010 l 551 875 l 510 875 l 686 1010 l 725 975 l 574 835 l 488 835 z "},"ç":{"ha":988,"x_min":114,"x_max":878,"o":"m 529 -14 q 315 35 408 -14 q 167 168 221 83 q 114 363 114 253 q 168 558 114 472 q 317 692 222 643 q 533 740 411 740 q 724 706 635 740 q 878 608 814 672 l 836 550 q 752 612 801 585 q 644 655 703 639 q 519 671 586 671 q 349 631 424 671 q 233 521 275 590 q 190 363 190 451 q 234 201 190 271 q 352 94 278 132 q 515 56 426 56 q 644 71 586 56 q 749 110 703 86 q 832 164 796 135 l 874 104 q 722 19 810 51 q 529 -14 633 -14 m 399 -319 l 388 -274 q 470 -262 432 -269 q 532 -239 508 -256 q 556 -199 556 -222 q 536 -161 556 -176 q 488 -140 517 -146 q 422 -133 458 -133 l 410 -111 l 490 8 l 551 8 l 490 -82 q 583 -117 546 -92 q 621 -187 621 -143 q 600 -252 621 -226 q 547 -293 579 -278 q 474 -315 514 -308 q 399 -319 435 -321 z "},"ḉ":{"ha":988,"x_min":114,"x_max":878,"o":"m 529 -14 q 315 35 408 -14 q 167 168 221 83 q 114 363 114 253 q 168 558 114 472 q 317 692 222 643 q 533 740 411 740 q 724 706 635 740 q 878 608 814 672 l 836 550 q 752 612 801 585 q 644 655 703 639 q 519 671 586 671 q 349 631 424 671 q 233 521 275 590 q 190 363 190 451 q 234 201 190 271 q 352 94 278 132 q 515 56 426 56 q 644 71 586 56 q 749 110 703 86 q 832 164 796 135 l 874 104 q 722 19 810 51 q 529 -14 633 -14 m 399 -319 l 388 -274 q 470 -262 432 -269 q 532 -239 508 -256 q 556 -199 556 -222 q 536 -161 556 -176 q 488 -140 517 -146 q 422 -133 458 -133 l 410 -111 l 490 8 l 551 8 l 490 -82 q 583 -117 546 -92 q 621 -187 621 -143 q 600 -252 621 -226 q 547 -293 579 -278 q 474 -315 514 -308 q 399 -319 435 -321 m 454 824 l 425 867 l 622 1026 l 668 964 l 454 824 z "},"ĉ":{"ha":988,"x_min":114,"x_max":878,"o":"m 529 -14 q 315 35 408 -14 q 167 168 221 83 q 114 363 114 253 q 168 558 114 472 q 317 692 222 643 q 533 740 411 740 q 724 706 635 740 q 878 608 814 672 l 836 550 q 752 612 801 585 q 644 655 703 639 q 519 671 586 671 q 349 631 424 671 q 233 521 275 590 q 190 363 190 451 q 234 201 190 271 q 352 94 278 132 q 515 56 426 56 q 644 71 586 56 q 749 110 703 86 q 832 164 796 135 l 874 104 q 722 19 810 51 q 529 -14 633 -14 m 375 838 l 336 872 l 488 1013 l 574 1013 l 725 872 l 686 838 l 510 972 l 551 972 l 375 838 z "},"ċ":{"ha":988,"x_min":114,"x_max":878,"o":"m 529 -14 q 315 35 408 -14 q 167 168 221 83 q 114 363 114 253 q 168 558 114 472 q 317 692 222 643 q 533 740 411 740 q 724 706 635 740 q 878 608 814 672 l 836 550 q 752 612 801 585 q 644 655 703 639 q 519 671 586 671 q 349 631 424 671 q 233 521 275 590 q 190 363 190 451 q 234 201 190 271 q 352 94 278 132 q 515 56 426 56 q 644 71 586 56 q 749 110 703 86 q 832 164 796 135 l 874 104 q 722 19 810 51 q 529 -14 633 -14 m 531 876 q 483 893 500 876 q 467 939 467 910 q 483 984 467 967 q 531 1001 500 1001 q 578 985 561 1001 q 594 939 594 968 q 578 894 594 911 q 531 876 561 876 z "},"d":{"ha":1118,"x_min":113,"x_max":908,"o":"m 497 -14 q 299 35 386 -14 q 162 169 211 83 q 113 364 113 256 q 163 558 113 474 q 302 692 214 643 q 501 740 390 740 q 627 725 569 740 q 731 679 685 710 q 811 607 776 649 q 865 513 846 565 l 839 535 l 839 1028 l 908 1028 l 908 0 l 843 0 l 836 199 l 865 215 q 812 121 847 164 q 729 48 776 78 q 622 2 682 18 q 497 -14 563 -14 m 510 57 q 683 97 607 57 q 801 205 758 136 q 844 365 844 274 q 803 520 844 451 q 686 629 761 589 q 511 669 611 669 q 344 630 417 669 q 228 522 271 590 q 186 365 186 453 q 228 207 186 276 q 343 97 269 138 q 510 57 417 57 z "},"ð":{"ha":1033,"x_min":114,"x_max":918,"o":"m 514 -14 q 306 35 396 -14 q 165 172 217 85 q 114 365 114 258 q 143 510 114 443 q 227 628 172 578 q 356 705 282 678 q 518 732 431 732 q 678 701 607 732 q 799 620 749 671 q 876 507 850 569 l 849 494 q 823 601 846 544 q 763 715 800 658 q 675 824 725 772 q 567 917 625 876 q 447 981 510 957 l 485 1026 q 610 960 549 1006 q 727 855 672 915 q 826 718 782 794 q 894 554 871 642 q 918 371 918 467 q 866 170 918 257 q 722 35 814 83 q 514 -14 631 -14 m 514 53 q 683 94 608 53 q 800 205 757 135 q 843 365 843 275 q 799 522 843 453 q 679 631 756 592 q 506 671 603 671 q 342 631 414 671 q 231 523 271 592 q 190 365 190 454 q 231 205 190 275 q 347 94 272 135 q 514 53 421 53 m 390 781 l 379 838 l 635 888 l 668 896 l 842 928 l 856 871 l 717 847 l 686 839 l 390 781 z "},"ď":{"ha":1114,"x_min":113,"x_max":1125,"o":"m 497 -14 q 299 35 386 -14 q 162 169 211 83 q 113 364 113 256 q 163 558 113 474 q 302 692 214 643 q 501 740 390 740 q 627 725 569 740 q 731 679 685 710 q 811 607 776 649 q 865 513 846 565 l 839 535 l 839 1028 l 908 1028 l 908 0 l 843 0 l 836 199 l 865 215 q 812 121 847 164 q 729 48 776 78 q 622 2 682 18 q 497 -14 563 -14 m 510 57 q 683 97 607 57 q 801 205 758 136 q 844 365 844 274 q 803 520 844 451 q 686 629 761 589 q 511 669 611 669 q 344 630 417 669 q 228 522 271 590 q 186 365 186 453 q 228 207 186 276 q 343 97 269 138 q 510 57 417 57 m 1017 803 l 989 836 q 1024 861 1010 850 q 1047 883 1039 872 q 1054 904 1054 894 q 1044 927 1054 922 q 1022 938 1035 932 q 1002 953 1011 942 q 993 981 993 964 q 1009 1015 993 1003 q 1049 1028 1025 1028 q 1103 1006 1082 1028 q 1125 943 1125 983 q 1117 900 1125 921 q 1094 863 1108 879 q 1061 833 1081 847 q 1017 803 1042 818 z "},"đ":{"ha":1118,"x_min":113,"x_max":1032,"o":"m 551 850 l 551 910 l 1032 910 l 1032 850 l 551 850 m 497 -14 q 299 35 386 -14 q 162 169 211 83 q 113 364 113 256 q 163 558 113 474 q 302 692 214 643 q 501 740 390 740 q 627 725 569 740 q 731 679 685 710 q 811 607 776 649 q 865 513 846 565 l 839 535 l 839 1028 l 908 1028 l 908 0 l 843 0 l 836 199 l 865 215 q 812 121 847 164 q 729 48 776 78 q 622 2 682 18 q 497 -14 563 -14 m 510 57 q 683 97 607 57 q 801 205 758 136 q 844 365 844 274 q 803 520 844 451 q 686 629 761 589 q 511 669 611 669 q 344 630 417 669 q 228 522 271 590 q 186 365 186 453 q 228 207 186 276 q 343 97 269 138 q 510 57 417 57 z "},"ḍ":{"ha":1118,"x_min":113,"x_max":908,"o":"m 497 -14 q 299 35 386 -14 q 162 169 211 83 q 113 364 113 256 q 163 558 113 474 q 302 692 214 643 q 501 740 390 740 q 627 725 569 740 q 731 679 685 710 q 811 607 776 649 q 865 513 846 565 l 839 535 l 839 1028 l 908 1028 l 908 0 l 843 0 l 836 199 l 865 215 q 812 121 847 164 q 729 48 776 78 q 622 2 682 18 q 497 -14 563 -14 m 510 57 q 683 97 607 57 q 801 205 758 136 q 844 365 844 274 q 803 520 844 451 q 686 629 761 589 q 511 669 611 669 q 344 630 417 669 q 228 522 271 590 q 186 365 186 453 q 228 207 186 276 q 343 97 269 138 q 510 57 417 57 m 540 -231 q 492 -213 508 -231 q 476 -168 476 -196 q 492 -124 476 -143 q 540 -106 507 -106 q 588 -123 572 -106 q 604 -168 604 -140 q 589 -212 604 -193 q 540 -231 574 -231 z "},"ḏ":{"ha":1118,"x_min":113,"x_max":908,"o":"m 497 -14 q 299 35 386 -14 q 162 169 211 83 q 113 364 113 256 q 163 558 113 474 q 302 692 214 643 q 501 740 390 740 q 627 725 569 740 q 731 679 685 710 q 811 607 776 649 q 865 513 846 565 l 839 535 l 839 1028 l 908 1028 l 908 0 l 843 0 l 836 199 l 865 215 q 812 121 847 164 q 729 48 776 78 q 622 2 682 18 q 497 -14 563 -14 m 510 57 q 683 97 607 57 q 801 205 758 136 q 844 365 844 274 q 803 520 844 451 q 686 629 761 589 q 511 669 611 669 q 344 630 417 669 q 228 522 271 590 q 186 365 186 453 q 228 207 186 276 q 343 97 269 138 q 510 57 417 57 m 350 -201 l 350 -135 l 731 -135 l 731 -201 l 350 -201 z "},"ǆ":{"ha":1926,"x_min":113,"x_max":1831,"o":"m 497 -14 q 299 35 386 -14 q 162 169 211 83 q 113 364 113 256 q 163 558 113 474 q 302 692 214 643 q 501 740 390 740 q 627 725 569 740 q 731 679 685 710 q 811 607 776 649 q 865 513 846 565 l 839 535 l 839 1028 l 908 1028 l 908 0 l 843 0 l 836 199 l 865 215 q 812 121 847 164 q 729 48 776 78 q 622 2 682 18 q 497 -14 563 -14 m 510 57 q 683 97 607 57 q 801 205 758 136 q 844 365 844 274 q 803 520 844 451 q 686 629 761 589 q 511 669 611 669 q 344 630 417 669 q 228 522 271 590 q 186 365 186 453 q 228 207 186 276 q 343 97 269 138 q 510 57 417 57 m 1210 0 l 1210 64 l 1738 679 l 1768 657 l 1210 657 l 1210 722 l 1808 722 l 1808 658 l 1276 35 l 1253 65 l 1831 65 l 1831 0 l 1210 0 m 1478 835 l 1326 975 l 1365 1010 l 1542 875 l 1500 875 l 1676 1010 l 1715 975 l 1564 835 l 1478 835 z "},"e":{"ha":1018,"x_min":107,"x_max":900,"o":"m 533 -14 q 310 34 407 -14 q 160 167 214 82 q 107 363 107 251 q 139 515 107 446 q 226 635 171 585 q 357 713 282 685 q 518 740 432 740 q 674 715 603 740 q 797 644 746 690 q 874 533 847 597 q 897 392 900 469 l 896 346 l 164 346 l 164 410 l 858 410 l 829 393 l 828 426 q 792 540 828 485 q 686 633 756 596 q 517 671 617 671 q 349 638 426 671 q 226 538 272 606 q 181 367 181 471 q 224 203 181 274 q 350 95 267 133 q 547 57 433 57 q 697 77 631 57 q 833 147 764 97 l 864 92 q 776 39 825 63 q 668 1 728 15 q 533 -14 608 -14 z "},"é":{"ha":1018,"x_min":107,"x_max":900,"o":"m 533 -14 q 310 34 407 -14 q 160 167 214 82 q 107 363 107 251 q 139 515 107 446 q 226 635 171 585 q 357 713 282 685 q 518 740 432 740 q 674 715 603 740 q 797 644 746 690 q 874 533 847 597 q 897 392 900 469 l 896 346 l 164 346 l 164 410 l 858 410 l 829 393 l 828 426 q 792 540 828 485 q 686 633 756 596 q 517 671 617 671 q 349 638 426 671 q 226 538 272 606 q 181 367 181 471 q 224 203 181 274 q 350 95 267 133 q 547 57 433 57 q 697 77 631 57 q 833 147 764 97 l 864 92 q 776 39 825 63 q 668 1 728 15 q 533 -14 608 -14 m 439 824 l 410 867 l 607 1026 l 653 964 l 439 824 z "},"ĕ":{"ha":1018,"x_min":107,"x_max":900,"o":"m 533 -14 q 310 34 407 -14 q 160 167 214 82 q 107 363 107 251 q 139 515 107 446 q 226 635 171 585 q 357 713 282 685 q 518 740 432 740 q 674 715 603 740 q 797 644 746 690 q 874 533 847 597 q 897 392 900 469 l 896 346 l 164 346 l 164 410 l 858 410 l 829 393 l 828 426 q 792 540 828 485 q 686 633 756 596 q 517 671 617 671 q 349 638 426 671 q 226 538 272 606 q 181 367 181 471 q 224 203 181 274 q 350 95 267 133 q 547 57 433 57 q 697 77 631 57 q 833 147 764 97 l 864 92 q 776 39 825 63 q 668 1 728 15 q 533 -14 608 -14 m 517 828 q 389 877 442 828 q 319 1011 336 926 l 379 1018 q 431 920 393 956 q 517 885 469 885 q 602 920 564 885 q 654 1018 640 956 l 714 1011 q 644 877 697 926 q 517 828 592 828 z "},"ě":{"ha":1018,"x_min":107,"x_max":900,"o":"m 533 -14 q 310 34 407 -14 q 160 167 214 82 q 107 363 107 251 q 139 515 107 446 q 226 635 171 585 q 357 713 282 685 q 518 740 432 740 q 674 715 603 740 q 797 644 746 690 q 874 533 847 597 q 897 392 900 469 l 896 346 l 164 346 l 164 410 l 858 410 l 829 393 l 828 426 q 792 540 828 485 q 686 633 756 596 q 517 671 617 671 q 349 638 426 671 q 226 538 272 606 q 181 367 181 471 q 224 203 181 274 q 350 95 267 133 q 547 57 433 57 q 697 77 631 57 q 833 147 764 97 l 864 92 q 776 39 825 63 q 668 1 728 15 q 533 -14 608 -14 m 474 835 l 322 975 l 361 1010 l 538 875 l 496 875 l 672 1010 l 711 975 l 560 835 l 474 835 z "},"ḝ":{"ha":1018,"x_min":107,"x_max":900,"o":"m 533 -14 q 310 34 407 -14 q 160 167 214 82 q 107 363 107 251 q 139 515 107 446 q 226 635 171 585 q 357 713 282 685 q 518 740 432 740 q 674 715 603 740 q 797 644 746 690 q 874 533 847 597 q 897 392 900 469 l 896 346 l 164 346 l 164 410 l 858 410 l 829 393 l 828 426 q 792 540 828 485 q 686 633 756 596 q 517 671 617 671 q 349 638 426 671 q 226 538 272 606 q 181 367 181 471 q 224 203 181 274 q 350 95 267 133 q 547 57 433 57 q 697 77 631 57 q 833 147 764 97 l 864 92 q 776 39 825 63 q 668 1 728 15 q 533 -14 608 -14 m 406 -319 l 394 -274 q 477 -262 439 -269 q 539 -239 515 -256 q 563 -199 563 -222 q 543 -161 563 -176 q 494 -140 524 -146 q 429 -133 465 -133 l 417 -111 l 497 8 l 558 8 l 497 -82 q 590 -117 553 -92 q 628 -187 628 -143 q 607 -252 628 -226 q 553 -293 586 -278 q 481 -315 521 -308 q 406 -319 442 -321 m 517 828 q 389 877 442 828 q 319 1011 336 926 l 379 1018 q 431 920 393 956 q 517 885 469 885 q 602 920 564 885 q 654 1018 640 956 l 714 1011 q 644 877 697 926 q 517 828 592 828 z "},"ê":{"ha":1018,"x_min":107,"x_max":900,"o":"m 533 -14 q 310 34 407 -14 q 160 167 214 82 q 107 363 107 251 q 139 515 107 446 q 226 635 171 585 q 357 713 282 685 q 518 740 432 740 q 674 715 603 740 q 797 644 746 690 q 874 533 847 597 q 897 392 900 469 l 896 346 l 164 346 l 164 410 l 858 410 l 829 393 l 828 426 q 792 540 828 485 q 686 633 756 596 q 517 671 617 671 q 349 638 426 671 q 226 538 272 606 q 181 367 181 471 q 224 203 181 274 q 350 95 267 133 q 547 57 433 57 q 697 77 631 57 q 833 147 764 97 l 864 92 q 776 39 825 63 q 668 1 728 15 q 533 -14 608 -14 m 361 838 l 322 872 l 474 1013 l 560 1013 l 711 872 l 672 838 l 496 972 l 538 972 l 361 838 z "},"ế":{"ha":1018,"x_min":107,"x_max":900,"o":"m 533 -14 q 310 34 407 -14 q 160 167 214 82 q 107 363 107 251 q 139 515 107 446 q 226 635 171 585 q 357 713 282 685 q 518 740 432 740 q 674 715 603 740 q 797 644 746 690 q 874 533 847 597 q 897 392 900 469 l 896 346 l 164 346 l 164 410 l 858 410 l 829 393 l 828 426 q 792 540 828 485 q 686 633 756 596 q 517 671 617 671 q 349 638 426 671 q 226 538 272 606 q 181 367 181 471 q 224 203 181 274 q 350 95 267 133 q 547 57 433 57 q 697 77 631 57 q 833 147 764 97 l 864 92 q 776 39 825 63 q 668 1 728 15 q 533 -14 608 -14 m 363 838 l 324 872 l 475 1013 l 561 1013 l 713 872 l 674 838 l 497 972 l 539 972 l 363 838 m 724 1001 l 681 1029 l 775 1210 l 851 1161 l 724 1001 z "},"ệ":{"ha":1018,"x_min":107,"x_max":900,"o":"m 533 -14 q 310 34 407 -14 q 160 167 214 82 q 107 363 107 251 q 139 515 107 446 q 226 635 171 585 q 357 713 282 685 q 518 740 432 740 q 674 715 603 740 q 797 644 746 690 q 874 533 847 597 q 897 392 900 469 l 896 346 l 164 346 l 164 410 l 858 410 l 829 393 l 828 426 q 792 540 828 485 q 686 633 756 596 q 517 671 617 671 q 349 638 426 671 q 226 538 272 606 q 181 367 181 471 q 224 203 181 274 q 350 95 267 133 q 547 57 433 57 q 697 77 631 57 q 833 147 764 97 l 864 92 q 776 39 825 63 q 668 1 728 15 q 533 -14 608 -14 m 532 -231 q 484 -213 500 -231 q 468 -168 468 -196 q 483 -124 468 -143 q 532 -106 499 -106 q 580 -123 564 -106 q 596 -168 596 -140 q 581 -212 596 -193 q 532 -231 565 -231 m 361 838 l 322 872 l 474 1013 l 560 1013 l 711 872 l 672 838 l 496 972 l 538 972 l 361 838 z "},"ề":{"ha":1018,"x_min":107,"x_max":900,"o":"m 533 -14 q 310 34 407 -14 q 160 167 214 82 q 107 363 107 251 q 139 515 107 446 q 226 635 171 585 q 357 713 282 685 q 518 740 432 740 q 674 715 603 740 q 797 644 746 690 q 874 533 847 597 q 897 392 900 469 l 896 346 l 164 346 l 164 410 l 858 410 l 829 393 l 828 426 q 792 540 828 485 q 686 633 756 596 q 517 671 617 671 q 349 638 426 671 q 226 538 272 606 q 181 367 181 471 q 224 203 181 274 q 350 95 267 133 q 547 57 433 57 q 697 77 631 57 q 833 147 764 97 l 864 92 q 776 39 825 63 q 668 1 728 15 q 533 -14 608 -14 m 361 838 l 322 872 l 474 1013 l 560 1013 l 711 872 l 672 838 l 496 972 l 538 972 l 361 838 m 696 1001 l 568 1161 l 646 1211 l 739 1029 l 696 1001 z "},"ể":{"ha":1018,"x_min":107,"x_max":900,"o":"m 533 -14 q 310 34 407 -14 q 160 167 214 82 q 107 363 107 251 q 139 515 107 446 q 226 635 171 585 q 357 713 282 685 q 518 740 432 740 q 674 715 603 740 q 797 644 746 690 q 874 533 847 597 q 897 392 900 469 l 896 346 l 164 346 l 164 410 l 858 410 l 829 393 l 828 426 q 792 540 828 485 q 686 633 756 596 q 517 671 617 671 q 349 638 426 671 q 226 538 272 606 q 181 367 181 471 q 224 203 181 274 q 350 95 267 133 q 547 57 433 57 q 697 77 631 57 q 833 147 764 97 l 864 92 q 776 39 825 63 q 668 1 728 15 q 533 -14 608 -14 m 360 838 l 321 872 l 472 1013 l 558 1013 l 710 872 l 671 838 l 494 972 l 536 972 l 360 838 m 654 1000 q 647 1017 650 1007 q 644 1036 644 1028 q 651 1059 644 1046 q 678 1086 657 1072 q 714 1113 700 1101 q 728 1136 728 1124 q 708 1163 728 1154 q 660 1171 688 1171 q 613 1165 639 1171 q 560 1149 588 1160 l 542 1200 q 607 1222 572 1214 q 671 1229 642 1229 q 763 1202 732 1229 q 794 1142 794 1175 q 777 1095 794 1111 q 740 1067 760 1079 q 715 1049 726 1057 q 704 1025 704 1040 q 704 1021 704 1024 q 706 1013 704 1018 l 654 1000 z "},"ễ":{"ha":1018,"x_min":107,"x_max":900,"o":"m 533 -14 q 310 34 407 -14 q 160 167 214 82 q 107 363 107 251 q 139 515 107 446 q 226 635 171 585 q 357 713 282 685 q 518 740 432 740 q 674 715 603 740 q 797 644 746 690 q 874 533 847 597 q 897 392 900 469 l 896 346 l 164 346 l 164 410 l 858 410 l 829 393 l 828 426 q 792 540 828 485 q 686 633 756 596 q 517 671 617 671 q 349 638 426 671 q 226 538 272 606 q 181 367 181 471 q 224 203 181 274 q 350 95 267 133 q 547 57 433 57 q 697 77 631 57 q 833 147 764 97 l 864 92 q 776 39 825 63 q 668 1 728 15 q 533 -14 608 -14 m 360 838 l 321 872 l 472 1013 l 558 1013 l 710 872 l 671 838 l 494 972 l 536 972 l 360 838 m 610 1107 q 558 1119 582 1107 q 510 1143 533 1131 q 474 1162 492 1153 q 433 1171 457 1171 q 393 1158 411 1171 q 369 1119 375 1144 l 313 1125 q 354 1201 319 1171 q 433 1231 389 1231 q 483 1220 463 1231 q 524 1199 504 1210 q 564 1177 544 1188 q 606 1167 583 1167 q 643 1182 628 1167 q 661 1218 658 1197 l 721 1213 q 701 1160 717 1183 q 663 1122 686 1136 q 610 1107 640 1107 z "},"ȅ":{"ha":1018,"x_min":107,"x_max":900,"o":"m 533 -14 q 310 34 407 -14 q 160 167 214 82 q 107 363 107 251 q 139 515 107 446 q 226 635 171 585 q 357 713 282 685 q 518 740 432 740 q 674 715 603 740 q 797 644 746 690 q 874 533 847 597 q 897 392 900 469 l 896 346 l 164 346 l 164 410 l 858 410 l 829 393 l 828 426 q 792 540 828 485 q 686 633 756 596 q 517 671 617 671 q 349 638 426 671 q 226 538 272 606 q 181 367 181 471 q 224 203 181 274 q 350 95 267 133 q 547 57 433 57 q 697 77 631 57 q 833 147 764 97 l 864 92 q 776 39 825 63 q 668 1 728 15 q 533 -14 608 -14 m 617 824 l 403 964 l 449 1026 l 646 867 l 617 824 m 408 824 l 194 964 l 240 1026 l 438 867 l 408 824 z "},"ë":{"ha":1018,"x_min":107,"x_max":900,"o":"m 533 -14 q 310 34 407 -14 q 160 167 214 82 q 107 363 107 251 q 139 515 107 446 q 226 635 171 585 q 357 713 282 685 q 518 740 432 740 q 674 715 603 740 q 797 644 746 690 q 874 533 847 597 q 897 392 900 469 l 896 346 l 164 346 l 164 410 l 858 410 l 829 393 l 828 426 q 792 540 828 485 q 686 633 756 596 q 517 671 617 671 q 349 638 426 671 q 226 538 272 606 q 181 367 181 471 q 224 203 181 274 q 350 95 267 133 q 547 57 433 57 q 697 77 631 57 q 833 147 764 97 l 864 92 q 776 39 825 63 q 668 1 728 15 q 533 -14 608 -14 m 649 864 q 601 881 618 864 q 585 926 585 897 q 601 972 585 954 q 649 989 618 989 q 696 972 679 989 q 713 926 713 956 q 696 881 713 899 q 649 864 679 864 m 383 863 q 336 879 353 863 q 319 925 319 896 q 336 970 319 953 q 383 988 353 988 q 431 971 414 988 q 447 925 447 954 q 431 880 447 897 q 383 863 414 863 z "},"ė":{"ha":1018,"x_min":107,"x_max":900,"o":"m 533 -14 q 310 34 407 -14 q 160 167 214 82 q 107 363 107 251 q 139 515 107 446 q 226 635 171 585 q 357 713 282 685 q 518 740 432 740 q 674 715 603 740 q 797 644 746 690 q 874 533 847 597 q 897 392 900 469 l 896 346 l 164 346 l 164 410 l 858 410 l 829 393 l 828 426 q 792 540 828 485 q 686 633 756 596 q 517 671 617 671 q 349 638 426 671 q 226 538 272 606 q 181 367 181 471 q 224 203 181 274 q 350 95 267 133 q 547 57 433 57 q 697 77 631 57 q 833 147 764 97 l 864 92 q 776 39 825 63 q 668 1 728 15 q 533 -14 608 -14 m 517 876 q 469 893 486 876 q 453 939 453 910 q 469 984 453 967 q 517 1001 486 1001 q 564 985 547 1001 q 581 939 581 968 q 564 894 581 911 q 517 876 547 876 z "},"ẹ":{"ha":1018,"x_min":107,"x_max":900,"o":"m 533 -14 q 310 34 407 -14 q 160 167 214 82 q 107 363 107 251 q 139 515 107 446 q 226 635 171 585 q 357 713 282 685 q 518 740 432 740 q 674 715 603 740 q 797 644 746 690 q 874 533 847 597 q 897 392 900 469 l 896 346 l 164 346 l 164 410 l 858 410 l 829 393 l 828 426 q 792 540 828 485 q 686 633 756 596 q 517 671 617 671 q 349 638 426 671 q 226 538 272 606 q 181 367 181 471 q 224 203 181 274 q 350 95 267 133 q 547 57 433 57 q 697 77 631 57 q 833 147 764 97 l 864 92 q 776 39 825 63 q 668 1 728 15 q 533 -14 608 -14 m 532 -231 q 484 -213 500 -231 q 468 -168 468 -196 q 483 -124 468 -143 q 532 -106 499 -106 q 580 -123 564 -106 q 596 -168 596 -140 q 581 -212 596 -193 q 532 -231 565 -231 z "},"è":{"ha":1018,"x_min":107,"x_max":900,"o":"m 533 -14 q 310 34 407 -14 q 160 167 214 82 q 107 363 107 251 q 139 515 107 446 q 226 635 171 585 q 357 713 282 685 q 518 740 432 740 q 674 715 603 740 q 797 644 746 690 q 874 533 847 597 q 897 392 900 469 l 896 346 l 164 346 l 164 410 l 858 410 l 829 393 l 828 426 q 792 540 828 485 q 686 633 756 596 q 517 671 617 671 q 349 638 426 671 q 226 538 272 606 q 181 367 181 471 q 224 203 181 274 q 350 95 267 133 q 547 57 433 57 q 697 77 631 57 q 833 147 764 97 l 864 92 q 776 39 825 63 q 668 1 728 15 q 533 -14 608 -14 m 578 824 l 364 964 l 410 1026 l 607 867 l 578 824 z "},"ẻ":{"ha":1018,"x_min":107,"x_max":900,"o":"m 533 -14 q 310 34 407 -14 q 160 167 214 82 q 107 363 107 251 q 139 515 107 446 q 226 635 171 585 q 357 713 282 685 q 518 740 432 740 q 674 715 603 740 q 797 644 746 690 q 874 533 847 597 q 897 392 900 469 l 896 346 l 164 346 l 164 410 l 858 410 l 829 393 l 828 426 q 792 540 828 485 q 686 633 756 596 q 517 671 617 671 q 349 638 426 671 q 226 538 272 606 q 181 367 181 471 q 224 203 181 274 q 350 95 267 133 q 547 57 433 57 q 697 77 631 57 q 833 147 764 97 l 864 92 q 776 39 825 63 q 668 1 728 15 q 533 -14 608 -14 m 503 833 q 496 851 499 840 q 493 869 493 861 q 499 892 493 879 q 526 919 506 906 q 563 946 549 935 q 576 969 576 957 q 556 996 576 988 q 508 1004 536 1004 q 462 999 488 1004 q 408 982 436 993 l 390 1033 q 456 1055 421 1047 q 519 1063 490 1063 q 612 1035 581 1063 q 643 975 643 1008 q 626 928 643 944 q 589 900 608 913 q 564 882 575 890 q 553 858 553 874 q 553 854 553 857 q 554 846 553 851 l 503 833 z "},"ȇ":{"ha":1018,"x_min":107,"x_max":900,"o":"m 533 -14 q 310 34 407 -14 q 160 167 214 82 q 107 363 107 251 q 139 515 107 446 q 226 635 171 585 q 357 713 282 685 q 518 740 432 740 q 674 715 603 740 q 797 644 746 690 q 874 533 847 597 q 897 392 900 469 l 896 346 l 164 346 l 164 410 l 858 410 l 829 393 l 828 426 q 792 540 828 485 q 686 633 756 596 q 517 671 617 671 q 349 638 426 671 q 226 538 272 606 q 181 367 181 471 q 224 203 181 274 q 350 95 267 133 q 547 57 433 57 q 697 77 631 57 q 833 147 764 97 l 864 92 q 776 39 825 63 q 668 1 728 15 q 533 -14 608 -14 m 379 842 l 319 849 q 389 983 336 933 q 517 1032 442 1032 q 644 983 592 1032 q 714 849 697 933 l 654 842 q 602 940 640 904 q 517 975 564 975 q 431 940 469 975 q 379 842 393 904 z "},"ē":{"ha":1018,"x_min":107,"x_max":900,"o":"m 533 -14 q 310 34 407 -14 q 160 167 214 82 q 107 363 107 251 q 139 515 107 446 q 226 635 171 585 q 357 713 282 685 q 518 740 432 740 q 674 715 603 740 q 797 644 746 690 q 874 533 847 597 q 897 392 900 469 l 896 346 l 164 346 l 164 410 l 858 410 l 829 393 l 828 426 q 792 540 828 485 q 686 633 756 596 q 517 671 617 671 q 349 638 426 671 q 226 538 272 606 q 181 367 181 471 q 224 203 181 274 q 350 95 267 133 q 547 57 433 57 q 697 77 631 57 q 833 147 764 97 l 864 92 q 776 39 825 63 q 668 1 728 15 q 533 -14 608 -14 m 324 894 l 324 954 l 710 954 l 710 894 l 324 894 z "},"ḗ":{"ha":1018,"x_min":107,"x_max":900,"o":"m 533 -14 q 310 34 407 -14 q 160 167 214 82 q 107 363 107 251 q 139 515 107 446 q 226 635 171 585 q 357 713 282 685 q 518 740 432 740 q 674 715 603 740 q 797 644 746 690 q 874 533 847 597 q 897 392 900 469 l 896 346 l 164 346 l 164 410 l 858 410 l 829 393 l 828 426 q 792 540 828 485 q 686 633 756 596 q 517 671 617 671 q 349 638 426 671 q 226 538 272 606 q 181 367 181 471 q 224 203 181 274 q 350 95 267 133 q 547 57 433 57 q 697 77 631 57 q 833 147 764 97 l 864 92 q 776 39 825 63 q 668 1 728 15 q 533 -14 608 -14 m 326 881 l 326 940 l 707 940 l 707 881 l 326 881 m 514 988 l 471 1015 l 579 1190 l 642 1147 l 514 988 z "},"ḕ":{"ha":1018,"x_min":107,"x_max":900,"o":"m 533 -14 q 310 34 407 -14 q 160 167 214 82 q 107 363 107 251 q 139 515 107 446 q 226 635 171 585 q 357 713 282 685 q 518 740 432 740 q 674 715 603 740 q 797 644 746 690 q 874 533 847 597 q 897 392 900 469 l 896 346 l 164 346 l 164 410 l 858 410 l 829 393 l 828 426 q 792 540 828 485 q 686 633 756 596 q 517 671 617 671 q 349 638 426 671 q 226 538 272 606 q 181 367 181 471 q 224 203 181 274 q 350 95 267 133 q 547 57 433 57 q 697 77 631 57 q 833 147 764 97 l 864 92 q 776 39 825 63 q 668 1 728 15 q 533 -14 608 -14 m 543 988 l 415 1147 l 478 1190 l 586 1015 l 543 988 m 326 881 l 326 940 l 707 940 l 707 881 l 326 881 z "},"ę":{"ha":1018,"x_min":107,"x_max":900,"o":"m 682 -307 q 588 -275 626 -307 q 550 -183 550 -243 q 576 -88 550 -132 q 649 -1 601 -44 q 767 82 697 42 l 801 47 q 664 -56 714 -3 q 614 -172 614 -110 q 633 -228 614 -208 q 689 -249 653 -249 q 731 -237 710 -249 q 775 -199 753 -226 l 821 -232 q 783 -274 804 -257 q 737 -299 761 -290 q 682 -307 713 -307 m 533 -14 q 310 34 407 -14 q 160 167 214 82 q 107 363 107 251 q 139 515 107 446 q 226 635 171 585 q 357 713 282 685 q 518 740 432 740 q 674 715 603 740 q 797 644 746 690 q 874 533 847 597 q 897 392 900 469 l 896 346 l 164 346 l 164 410 l 858 410 l 829 393 l 828 426 q 792 540 828 485 q 686 633 756 596 q 517 671 617 671 q 349 638 426 671 q 226 538 272 606 q 181 367 181 471 q 224 203 181 274 q 350 95 267 133 q 547 57 433 57 q 697 77 631 57 q 833 147 764 97 l 864 92 q 776 39 825 63 q 668 1 728 15 q 533 -14 608 -14 z "},"ẽ":{"ha":1018,"x_min":107,"x_max":900,"o":"m 533 -14 q 310 34 407 -14 q 160 167 214 82 q 107 363 107 251 q 139 515 107 446 q 226 635 171 585 q 357 713 282 685 q 518 740 432 740 q 674 715 603 740 q 797 644 746 690 q 874 533 847 597 q 897 392 900 469 l 896 346 l 164 346 l 164 410 l 858 410 l 829 393 l 828 426 q 792 540 828 485 q 686 633 756 596 q 517 671 617 671 q 349 638 426 671 q 226 538 272 606 q 181 367 181 471 q 224 203 181 274 q 350 95 267 133 q 547 57 433 57 q 697 77 631 57 q 833 147 764 97 l 864 92 q 776 39 825 63 q 668 1 728 15 q 533 -14 608 -14 m 607 850 q 553 863 578 850 q 494 910 528 876 q 468 931 481 924 q 439 938 456 938 q 391 917 410 938 q 367 858 372 897 l 310 864 q 353 960 317 922 q 446 997 390 997 q 494 986 472 997 q 550 943 517 975 q 577 919 564 929 q 610 910 590 910 q 647 929 632 910 q 665 975 663 949 l 725 969 q 706 909 721 936 q 665 866 690 882 q 607 850 640 850 z "},"ə":{"ha":1013,"x_min":115,"x_max":906,"o":"m 496 -18 q 294 26 381 -18 q 162 149 208 69 q 115 331 115 228 l 117 376 l 850 376 l 850 313 l 154 313 l 183 329 l 185 296 q 221 182 185 238 q 327 89 257 126 q 497 51 397 51 q 664 84 588 51 q 786 185 740 117 q 832 356 832 253 q 789 518 832 449 q 664 626 746 588 q 465 665 582 665 q 317 645 383 665 q 179 575 250 625 l 149 631 q 237 683 188 660 q 346 722 286 707 q 481 736 406 736 q 703 688 607 736 q 852 556 799 640 q 906 360 906 471 q 874 208 906 278 q 787 88 843 138 q 657 10 731 38 q 496 -18 583 -18 z "},"f":{"ha":768,"x_min":126,"x_max":681,"o":"m 297 0 l 297 815 q 324 920 297 874 q 399 994 350 967 q 515 1021 449 1021 q 610 1006 567 1021 q 681 963 653 990 l 656 901 q 588 944 626 931 q 513 957 549 957 q 428 938 460 957 q 381 887 396 919 q 365 814 365 854 l 365 0 l 340 0 q 317 0 326 0 q 297 0 308 0 m 126 656 l 126 719 l 642 719 l 642 656 l 126 656 z "},"g":{"ha":1115,"x_min":114,"x_max":914,"o":"m 542 -319 q 363 -292 439 -319 q 235 -231 288 -264 l 265 -164 q 338 -206 296 -186 q 431 -237 379 -225 q 546 -250 483 -250 q 701 -215 633 -250 q 807 -109 769 -181 q 844 74 844 -37 l 844 194 l 865 211 q 785 92 839 143 q 658 15 732 42 q 494 -11 585 -11 q 299 37 385 -11 q 163 169 213 85 q 114 363 114 254 q 166 558 114 474 q 305 692 218 643 q 501 740 392 740 q 597 731 550 740 q 685 702 643 721 q 763 656 728 683 q 825 592 799 628 q 867 513 851 556 l 838 529 l 844 722 l 914 722 l 914 75 q 885 -101 914 -26 q 804 -224 856 -175 q 685 -296 753 -272 q 542 -319 617 -319 m 514 58 q 686 98 611 58 q 803 206 761 138 q 846 363 846 275 q 803 522 844 453 q 687 631 763 592 q 514 671 611 671 q 347 631 421 671 q 231 523 274 592 q 188 364 189 454 q 229 208 188 278 q 344 99 271 139 q 514 58 418 58 z "},"ğ":{"ha":1115,"x_min":114,"x_max":914,"o":"m 542 -319 q 363 -292 439 -319 q 235 -231 288 -264 l 265 -164 q 338 -206 296 -186 q 431 -237 379 -225 q 546 -250 483 -250 q 701 -215 633 -250 q 807 -109 769 -181 q 844 74 844 -37 l 844 194 l 865 211 q 785 92 839 143 q 658 15 732 42 q 494 -11 585 -11 q 299 37 385 -11 q 163 169 213 85 q 114 363 114 254 q 166 558 114 474 q 305 692 218 643 q 501 740 392 740 q 597 731 550 740 q 685 702 643 721 q 763 656 728 683 q 825 592 799 628 q 867 513 851 556 l 838 529 l 844 722 l 914 722 l 914 75 q 885 -101 914 -26 q 804 -224 856 -175 q 685 -296 753 -272 q 542 -319 617 -319 m 514 58 q 686 98 611 58 q 803 206 761 138 q 846 363 846 275 q 803 522 844 453 q 687 631 763 592 q 514 671 611 671 q 347 631 421 671 q 231 523 274 592 q 188 364 189 454 q 229 208 188 278 q 344 99 271 139 q 514 58 418 58 m 547 828 q 419 877 472 828 q 350 1011 367 926 l 410 1018 q 462 920 424 956 q 547 885 500 885 q 633 920 594 885 q 685 1018 671 956 l 744 1011 q 675 877 728 926 q 547 828 622 828 z "},"ǧ":{"ha":1115,"x_min":114,"x_max":914,"o":"m 542 -319 q 363 -292 439 -319 q 235 -231 288 -264 l 265 -164 q 338 -206 296 -186 q 431 -237 379 -225 q 546 -250 483 -250 q 701 -215 633 -250 q 807 -109 769 -181 q 844 74 844 -37 l 844 194 l 865 211 q 785 92 839 143 q 658 15 732 42 q 494 -11 585 -11 q 299 37 385 -11 q 163 169 213 85 q 114 363 114 254 q 166 558 114 474 q 305 692 218 643 q 501 740 392 740 q 597 731 550 740 q 685 702 643 721 q 763 656 728 683 q 825 592 799 628 q 867 513 851 556 l 838 529 l 844 722 l 914 722 l 914 75 q 885 -101 914 -26 q 804 -224 856 -175 q 685 -296 753 -272 q 542 -319 617 -319 m 514 58 q 686 98 611 58 q 803 206 761 138 q 846 363 846 275 q 803 522 844 453 q 687 631 763 592 q 514 671 611 671 q 347 631 421 671 q 231 523 274 592 q 188 364 189 454 q 229 208 188 278 q 344 99 271 139 q 514 58 418 58 m 504 835 l 353 975 l 392 1010 l 568 875 l 526 875 l 703 1010 l 742 975 l 590 835 l 504 835 z "},"ĝ":{"ha":1115,"x_min":114,"x_max":914,"o":"m 542 -319 q 363 -292 439 -319 q 235 -231 288 -264 l 265 -164 q 338 -206 296 -186 q 431 -237 379 -225 q 546 -250 483 -250 q 701 -215 633 -250 q 807 -109 769 -181 q 844 74 844 -37 l 844 194 l 865 211 q 785 92 839 143 q 658 15 732 42 q 494 -11 585 -11 q 299 37 385 -11 q 163 169 213 85 q 114 363 114 254 q 166 558 114 474 q 305 692 218 643 q 501 740 392 740 q 597 731 550 740 q 685 702 643 721 q 763 656 728 683 q 825 592 799 628 q 867 513 851 556 l 838 529 l 844 722 l 914 722 l 914 75 q 885 -101 914 -26 q 804 -224 856 -175 q 685 -296 753 -272 q 542 -319 617 -319 m 514 58 q 686 98 611 58 q 803 206 761 138 q 846 363 846 275 q 803 522 844 453 q 687 631 763 592 q 514 671 611 671 q 347 631 421 671 q 231 523 274 592 q 188 364 189 454 q 229 208 188 278 q 344 99 271 139 q 514 58 418 58 m 392 838 l 353 872 l 504 1013 l 590 1013 l 742 872 l 703 838 l 526 972 l 568 972 l 392 838 z "}}}
